<svg id="Layer_1" height="512" viewBox="0 0 512 512" width="512" xmlns="http://www.w3.org/2000/svg" data-name="Layer 1"><path d="m107.77 462.39-23.62 23.61-58.15-58.15 23.61-23.62 7.09 7.1h.01l23.02 23.02 20.94 20.95h.01z" fill="#fb6771"/><path d="m227.497 251.58h23.405v42.441h-23.405z" fill="#fb6771" transform="matrix(.707 -.707 .707 .707 -122.839 249.041)"/><path d="m252.91 303.06-152.23 152.24h-.01l-20.94-20.95-23.02-23.02 152.23-152.24 6.98 6.98 30.01 30.01z" fill="#88ced8"/><path d="m371.08 166.45-101.62 120.06-6.98-6.98-30.01-30.01-6.98-6.98 120.06-101.62z" fill="#88ced8"/><path d="m425.48 26-83.28 83.28a20.008 20.008 0 0 0 0 28.29l3.35 3.35 25.53 25.53 3.35 3.35a20.008 20.008 0 0 0 28.29 0l83.28-83.28z" fill="#ccd3df"/><path d="m215.92 266.07-6.98-6.98-152.23 152.24 15 15 152.23-152.24z" fill="#a0eaea"/><path d="m345.55 140.92-120.06 101.62 15.912 13.46 118.732-100.496z" fill="#a0eaea"/><path d="m486 86.52-38.53-1.18-80.85 60.04 60.04-80.85-1.18-38.53z" fill="#b0b5ca"/><path d="m429.725 21.757a6 6 0 0 0 -8.485 0l-83.282 83.282a26.029 26.029 0 0 0 -1.207 35.467l-115.137 97.454a6 6 0 0 0 -.366 8.822l2.736 2.736-8.063 8.062-2.735-2.735a6 6 0 0 0 -8.486 0l-148 148-2.849-2.85a6 6 0 0 0 -8.485 0l-23.609 23.605a6 6 0 0 0 0 8.485l58.154 58.154a6 6 0 0 0 8.485 0l23.612-23.612a6 6 0 0 0 0-8.485l-2.85-2.849 148-148a6 6 0 0 0 0-8.486l-2.735-2.735 8.062-8.063 2.736 2.736a6 6 0 0 0 4.242 1.757h.249a6 6 0 0 0 4.331-2.118l97.454-115.137a26.02 26.02 0 0 0 35.467-1.207l83.279-83.28a6 6 0 0 0 0-8.485zm1.756 46.353a6 6 0 0 0 1.181-3.761l-.718-23.4 39.109 39.109-23.4-.718a6.006 6.006 0 0 0 -3.761 1.181l-48.224 35.815zm-85.038 45.414 73.468-73.467.693 22.574-58.804 79.169a5.982 5.982 0 0 0 -.419 6.461l-14.941-14.941a14.017 14.017 0 0 1 .003-19.796zm-262.289 363.991-49.669-49.669 15.126-15.126 49.669 49.669zm16.519-30.7-35.484-35.488 143.754-143.754 35.484 35.484zm145.261-159.222-21.528-21.527 8.063-8.066 21.531 21.531zm23.159-9.937-34.749-34.749 110.87-93.843 17.722 17.722zm129.383-112.1a14.018 14.018 0 0 1 -19.8 0l-14.95-14.956a5.906 5.906 0 0 0 6.471-.408l79.172-58.8 22.574.693z" fill="#284268"/></svg>