<svg id="Layer_1" height="512" viewBox="0 0 512 512" width="512" xmlns="http://www.w3.org/2000/svg" data-name="Layer 1"><path d="m348.92 195.46.03.16-114.67 114.67-60.39 45.92-.04-.04-18.02-18.02-.04-.04 45.92-60.39 114.68-114.68.2.04c-.42 2.3-.9 4.51-1.42 6.61a122.216 122.216 0 0 1 -7.96 22.42 9.7 9.7 0 0 0 12.99 12.82 112.167 112.167 0 0 1 22.11-8.1c2.07-.52 4.29-.97 6.61-1.37z" fill="#ccd3df"/><path d="m482.25 92.79a12.783 12.783 0 0 1 0 18.09l-71.92 71.93a30.552 30.552 0 0 1 -19.19 8.88c-11.6.91-28.66 1.44-42.22 3.77-2.32.4-4.54.85-6.61 1.37a112.167 112.167 0 0 0 -22.11 8.1 9.7 9.7 0 0 1 -12.99-12.82 122.216 122.216 0 0 0 7.96-22.42c.52-2.1 1-4.31 1.42-6.61 2.55-13.62 3.56-30.09 4.11-41.61a30.669 30.669 0 0 1 8.94-20.25l71.48-71.47a12.783 12.783 0 0 1 18.09 0l19.87 19.87 41.19-17.89-17.89 41.19zm-56.55 17.16a16.723 16.723 0 1 0 -23.65 0 16.724 16.724 0 0 0 23.65 0z" fill="#6d7486"/><path d="m439.08 49.62-19.87-19.87a12.783 12.783 0 0 0 -18.09 0l-71.48 71.47a30.669 30.669 0 0 0 -8.94 20.25c-.55 11.52-1.56 27.99-4.11 41.61-.42 2.3-.9 4.51-1.42 6.61a122.216 122.216 0 0 1 -7.96 22.42 9.7 9.7 0 0 0 12.99 12.82 122.911 122.911 0 0 1 11.946-5.025c1.084-3.15 2.1-6.52 3.024-10.215.52-2.1 1-4.31 1.42-6.61 2.55-13.62 3.56-30.09 4.11-41.61a30.669 30.669 0 0 1 8.94-20.25l71.48-71.47a12.783 12.783 0 0 1 18.09 0z" fill="#b0b5ca"/><path d="m173.85 356.17-80.98 80.97-9.01-9-9-9.01 80.97-80.98z" fill="#b0b5ca"/><path d="m66.18 463.83-22.16 22.17-18.02-18.02 22.17-22.16z" fill="#6d7486"/><g fill="#284268"><path d="m469.514 71.565 16.257-37.442a6 6 0 0 0 -7.894-7.894l-37.443 16.257-16.981-16.986a18.819 18.819 0 0 0 -26.58 0l-71.473 71.48a36.6 36.6 0 0 0 -10.7 24.207c-.519 10.99-1.442 25.981-3.624 38.68l-113.613 113.615a6.067 6.067 0 0 0 -.534.611l-45.909 60.382-80.408 80.409a6 6 0 0 0 0 8.485l4.767 4.767-18.2 18.2-4.767-4.767a6 6 0 0 0 -8.486 0l-22.169 22.168a6 6 0 0 0 0 8.486l18.019 18.019a6 6 0 0 0 8.486 0l22.166-22.166a6 6 0 0 0 0-8.485l-4.767-4.767 18.2-18.2 4.768 4.768a6 6 0 0 0 8.485 0l80.408-80.408 60.382-45.909a5.851 5.851 0 0 0 .612-.534l113.5-113.495c9.271-1.429 20.143-2.109 29.317-2.681 3.685-.229 7.166-.446 10.284-.692a36.577 36.577 0 0 0 22.955-10.615l71.928-71.931a18.793 18.793 0 0 0 0-26.579zm-425.495 405.95-9.534-9.535 13.681-13.68 9.534 9.533zm48.856-48.856-4.763-4.759-4.762-4.761 72.488-72.488 7.088 7.088 2.446 2.446zm137.446-122.895-55.9 42.5-10.687-10.687 42.5-55.9 98.166-98.16c-.8 1.99-1.67 4-2.63 6.079a15.739 15.739 0 0 0 14.188 22.319 15.8 15.8 0 0 0 6.835-1.572c1.594-.765 3.406-1.6 5.4-2.446zm247.689-199.121-71.925 71.923a24.56 24.56 0 0 1 -15.413 7.139c-3.021.238-6.453.452-10.088.679-12.575.784-28.224 1.76-39.718 4.621a118.5 118.5 0 0 0 -23.262 8.517 3.7 3.7 0 0 1 -4.945-4.889 128.678 128.678 0 0 0 8.337-23.5c3.717-14.946 5.029-35.34 5.692-49.381a24.624 24.624 0 0 1 7.194-16.287l71.476-71.475a6.8 6.8 0 0 1 9.609 0l19.869 19.869a6 6 0 0 0 5.545 1.616 6.083 6.083 0 0 0 1.128-.371c.761-.332 15.563-6.758 27.2-11.81-5.05 11.632-11.475 26.43-11.809 27.2a6.4 6.4 0 0 0 -.248.663 6 6 0 0 0 1.491 6.011l19.869 19.87a6.8 6.8 0 0 1 0 9.61z"/><path d="m413.873 75.4a22.727 22.727 0 1 0 16.07 6.658 22.577 22.577 0 0 0 -16.07-6.658zm7.585 30.312a10.727 10.727 0 1 1 0-15.17 10.661 10.661 0 0 1 0 15.17z"/></g></svg>