<svg id="Layer_1" height="512" viewBox="0 0 512 512" width="512" xmlns="http://www.w3.org/2000/svg" data-name="Layer 1"><path d="m290.85 259.76 7.661 7.661-.001-.001-8.261-8.261z" fill="#6d7486"/><path d="m298.51 267.42-56.2-56.2a40 40 0 0 0 -56.57 0l-23.14 23.15 112.77 112.76 23.14-23.14a40 40 0 0 0 0-56.57z" fill="#b0b5ca"/><path d="m262.309 231.219-10.549-10.549-9.45-9.45a40 40 0 0 0 -56.57 0l-23.14 23.15 20 20 23.14-23.15a40 40 0 0 1 56.569-.001z" fill="#6d7486"/><path d="m125.873 309.788h49.384v98.755h-49.384z" fill="#ccd3df" transform="matrix(.707 -.707 .707 .707 -209.868 211.662)"/><path d="m456.054 21.828c-.182 0-.363 0-.545 0-17.965 0-31.634 8.549-39.551 24.749-6.245 12.779-7.626 27.631-8.368 35.611l-.07.753c-.914 9.741-10.1 21.507-13.63 25.3l-4.133 4.133-14.851-14.849-18.15-18.15a6 6 0 0 0 -8.485 8.484l13.909 13.91-45.78 45.773-4.944-4.944a6 6 0 1 0 -8.485 8.484l4.944 4.945-7.557 7.557-4.944-4.944a6 6 0 0 0 -8.486 8.484l4.945 4.945-7.557 7.557-4.945-4.944a6 6 0 0 0 -8.485 8.486l4.944 4.944-7.557 7.557-4.944-4.944a6 6 0 1 0 -8.486 8.484l4.945 4.945-8.03 8.029-5.2-5.2a46.051 46.051 0 0 0 -65.054 0l-23.146 23.145a6 6 0 0 0 0 8.484l52.585 52.586-9.445 9.445-20.25-20.25a6 6 0 0 0 -8.485 8.484l20.251 20.251-7.558 7.558-20.25-20.25a6 6 0 1 0 -8.485 8.484l20.25 20.251-8.5 8.5-31.121-31.121a6 6 0 0 0 -8.486 0l-34.916 34.916a6 6 0 0 0 0 8.484l11.078 11.078-7.557 7.558-4.944-4.944a6 6 0 0 0 -8.485 8.486l4.943 4.944-7.557 7.556-4.944-4.943a6 6 0 0 0 -8.482 8.484l4.944 4.945-28.793 28.786-13.908-13.9a6 6 0 1 0 -8.486 8.484l18.151 18.146 15.8 15.8-7.081 7.082a6 6 0 1 0 8.485 8.484l7.081-7.081 33.5 33.5a6 6 0 0 0 8.486-8.484l-13.91-13.91 28.791-28.79 4.944 4.945a6 6 0 0 0 8.485-8.485l-4.944-4.944 7.557-7.557 4.944 4.944a6 6 0 0 0 8.485-8.487l-4.943-4.943 7.557-7.557 10.634 10.634a6 6 0 0 0 8.485 0l34.916-34.916a6 6 0 0 0 0-8.484l-30.23-30.231 8.5-8.5 19.363 19.364a6 6 0 0 0 8.486-8.485l-19.364-19.363 7.557-7.558 19.364 19.364a6 6 0 1 0 8.485-8.485l-19.364-19.364 9.445-9.445 51.7 51.7a6 6 0 0 0 8.485 0l23.146-23.147a46.052 46.052 0 0 0 0-65.052l-4.291-4.291 8.029-8.029 4.944 4.944a6 6 0 0 0 8.485-8.487l-4.943-4.943 7.557-7.557 4.944 4.944a6 6 0 1 0 8.485-8.485l-4.944-4.944 7.557-7.557 4.944 4.944a6 6 0 1 0 8.485-8.485l-4.944-4.944 7.557-7.558 4.944 4.945a6 6 0 0 0 8.486-8.487l-4.944-4.943 45.776-45.776 13.909 13.909a6 6 0 1 0 8.485-8.484l-33.032-33.035 4.2-4.2q.066-.065.129-.132c.628-.668 15.4-16.542 16.891-32.464l.071-.762c2.277-24.484 8.338-49.471 35.96-49.471h.441c11.155.107 17.04 5.707 20.012 10.386 4.831 7.6 5.388 18.117 1.42 26.782-4.572 9.988-15.382 16.729-23.7 18.225-4.245.763-7.669.214-9.391-1.508a6 6 0 1 0 -8.475 8.484c4.609 4.61 11.715 6.325 20 4.834 11.4-2.052 25.868-10.59 32.483-25.039 5.616-12.266 4.752-27.265-2.2-38.212-6.458-10.166-17.122-15.831-30.029-15.955zm-358.586 359.728 11.554 11.554-7.557 7.557-11.554-11.553zm8.486-8.485 7.557-7.558 11.554 11.554-7.557 7.558zm-53.318 53.317 28.79-28.79 11.554 11.554-28.79 28.79zm31.15 31.15-11.111-11.111 28.79-28.79 11.111 11.111zm37.275-37.275-11.111-11.111 7.557-7.557 11.111 11.111zm16.039-16.043-11.111-11.11 7.557-7.558 11.111 11.111zm57.349-27.6-26.431 26.431-61.346-61.347 26.431-26.431zm176.213-266.37 10.61 10.611-45.772 45.776-10.61-10.61zm-54.262 54.261 10.61 10.611-7.558 7.557-10.609-10.61zm-16.042 16.043 10.61 10.61-7.557 7.557-10.611-10.61zm-16.042 16.046 10.61 10.61-7.558 7.557-10.61-10.61zm13.691 45.776-8.029 8.029-10.639-10.639 8.029-8.029zm-29.733-29.734 10.61 10.61-8.03 8.029-10.61-10.61zm26 107.107-18.9 18.9-51.7-51.7-52.583-52.583 18.9-18.9a34.039 34.039 0 0 1 48.083 0l56.2 56.2a34.04 34.04 0 0 1 -.005 48.08zm12.224-85.859-10.639-10.639 7.557-7.557 10.634 10.636zm16.042-16.042-10.64-10.642 7.557-7.557 10.639 10.639zm16.037-16.048-10.639-10.639 7.557-7.557 10.639 10.639zm61.823-61.816-45.78 45.776-10.639-10.639 45.776-45.776z" fill="#284268"/></svg>