<svg id="Layer_1" height="512" viewBox="0 0 512 512" width="512" xmlns="http://www.w3.org/2000/svg" data-name="Layer 1"><g fill="#6d7486"><path d="m90.32 420.94c2.43 11.89 5.02 23.6-4.92 33.99-.17.16-.33.33-.49.49 0 0-11.79 9.05-22.48-1.64l-2.47-2.47 26.24-26.25z"/><path d="m59.96 451.31-4.24 4.23c-2.14-11.48-4.18-22.44 5.13-32.69.36-.39.73-.78 1.12-1.17 0 0 11.8-9.05 22.48 1.64l1.75 1.74z"/><path d="m153.27 357.99c4.03 13.37 8.3 26.51-1.07 36.56l-1.16 1.16a.927.927 0 0 1 -.14.14c-12.1 11.16-28.17-7.33-28.17-7.33l23.16-23.15z"/><path d="m143.42 362.89 2.47 2.48-23.16 23.15-7.21 7.21c-2.34-11.51-4.84-22.86 4.04-33 .43-.5.89-.99 1.38-1.48 0 0 10.87-9.97 22.48 1.64z"/></g><path d="m322.4 224.34-170.2 170.21c9.37-10.05 5.1-23.19 1.07-36.56-4.11-13.63-7.98-27.51 3.11-38.6l130.53-130.53z" fill="#b0b5ca"/><path d="m299.709 148.779h33.831v91.737h-33.831z" fill="#4689d3" transform="matrix(.707 -.707 .707 .707 -44.881 280.974)"/><path d="m346.55 200.19 14.7 14.7-.23.23-50.18-50.18.23-.23 51.52-51.53 8.28-8.28 35.49 35.49-8.29 8.28z" fill="#edb740"/><path d="m362.59 113.18-51.52 51.53-76.56-76.56a36.43 36.43 0 0 1 51.52-51.52z" fill="#d8a43d"/><path d="m474.65 225.24-76.58-76.57-51.52 51.52 76.57 76.57a36.434 36.434 0 0 0 51.53-51.52z" fill="#d8a43d"/><path d="m172.237 374.511c-3.626-12.49-6-24.973 4.143-35.121l130.53-130.53 15.49 15.483-35.49-35.48-130.53 130.527c-11.09 11.09-7.22 24.97-3.11 38.6 4.03 13.37 8.3 26.51-1.07 36.56z" fill="#ccd3df"/><path d="m254.51 56.63a36.527 36.527 0 0 1 51.52 0l56.559 56.551-76.559-76.551a36.43 36.43 0 0 0 -51.52 51.52l20 20a36.534 36.534 0 0 1 0-51.52z" fill="#edb740"/><path d="m119.51 362.68.05.05c-8.88 10.14-6.38 21.49-4.04 33 2.46 12.08 4.74 24.34-6.48 35.56l-23.64 23.64c9.94-10.39 7.35-22.1 4.92-33.99-2.46-12.08-4.74-24.34 6.48-35.56z" fill="#ccd3df"/><path d="m60.83 422.83.02.02c-9.31 10.25-7.27 21.21-5.13 32.69 1.66 8.88 3.39 18.08-.04 27.51l-28.95 2.95 2.96-29.1.22-.23a20.745 20.745 0 0 1 5.08-8.01z" fill="#ccd3df"/><path d="m478.889 221-72.33-72.329 4.039-4.038a6 6 0 0 0 0-8.484l-35.485-35.489a6 6 0 0 0 -8.486 0l-4.037 4.04-72.314-72.315a42.432 42.432 0 0 0 -60.009 60.008l57.633 57.631-19.91 19.909a6 6 0 0 0 0 8.485l10.441 10.44-126.295 126.294c-12.474 12.473-9.465 27.9-5.636 41.121l-.684.684c-11.037-9.36-23.186-5.4-28.936-.13-.063.059-.126.118-.187.18q-.6.6-1.149 1.2c-.091.081-.193.142-.281.23l-22.7 22.7c-10.9 10.9-11.116 22.923-9.475 33.648-9.9-5.517-20.13-1.426-24.766 2.131a5.921 5.921 0 0 0 -.591.518c-.295.3-.573.591-.853.888-.054.051-.117.086-.169.139l-25.96 25.96a26.95 26.95 0 0 0 -6.15 9.308 6 6 0 0 0 -.876 2.563l-2.964 29.1a6 6 0 0 0 5.968 6.608 5.909 5.909 0 0 0 .608-.031l27.375-2.789a5.92 5.92 0 0 0 .9.08 6.452 6.452 0 0 0 6.178-5.549c2.446-7.66 2.111-15.054 1.1-21.935a21.094 21.094 0 0 0 11.246 3.237 24.73 24.73 0 0 0 14.427-4.832 6.047 6.047 0 0 0 .59-.517c.139-.139.266-.279.4-.418.029-.028.062-.046.091-.074l23.64-23.641c12.335-12.335 10.99-26.118 8.749-37.821l.766-.767c4.208 3.6 10.838 8.051 18.2 8.457q.54.03 1.074.03a18.735 18.735 0 0 0 12.89-5.174l167.439-167.428 10.455 10.454a6 6 0 0 0 8.485 0l19.91-19.909 57.631 57.631a42.432 42.432 0 1 0 60.008-60.004zm-427.859 256.494-17.588 1.791 2.091-20.519c.018-.049.035-.1.052-.148a14.711 14.711 0 0 1 3.648-5.711l8.787-8.787a104.25 104.25 0 0 0 1.81 12.546v.009.013c1.348 7.2 2.615 14.062 1.2 20.806zm8.962-34.713c-.306-6.331 1-11.48 5.918-16.551 1.33-.926 6.207-3.83 11.48-.847zm20.979 8.088c-1.407.982-6.771 4.164-12.377.281l17.751-17.75c.655 6.881-.369 12.3-5.374 17.469zm23.829-23.822-6.388 6.388a104.43 104.43 0 0 0 -2.088-13.1c-2.729-13.382-3.96-22.023 4.724-30.707l6.388-6.388a104.414 104.414 0 0 0 2.088 13.1c2.727 13.381 3.959 22.022-4.724 30.707zm14.7-43.773c-.666-6.953.391-12.406 5.524-17.626a11.612 11.612 0 0 1 4.587-2.189 9.18 9.18 0 0 1 7.671 2.033zm28.362 7.122-1.067 1.068-.006.008a6.623 6.623 0 0 1 -5.106 1.947c-3.5-.184-7.4-2.639-10.342-5.016l18.793-18.793.159-.16c2.269 9.034 2.486 15.612-2.432 20.95zm218.972-272.97 4.037-4.036 27 27-4.038 4.038-47.51 47.511-27-27zm-128.082-33.518a30.433 30.433 0 0 1 43.039-43.039l72.314 72.314-43.039 43.039zm-75.233 290.831c-.714-5.911-2.51-11.87-4.221-17.531-4.657-15.408-6.892-25.355 1.324-33.571l126.293-126.294 27 27zm173.581-144.184-56.38-56.379 15.437-15.436 56.379 56.379zm133.3 41.966a30.468 30.468 0 0 1 -43.038 0l-72.329-72.329 43.038-43.039 72.329 72.328a30.543 30.543 0 0 1 0 43.04z" fill="#284268"/></svg>