<svg id="Layer_1" height="512" viewBox="0 0 512 512" width="512" xmlns="http://www.w3.org/2000/svg" data-name="Layer 1"><path d="m231.7 208.68 39.65 39.64c-23.85 25.08-47.89 53-73.49 82.02-33.61 38.1-63.06 75.25-88.76 110.38a40.347 40.347 0 0 1 -28.27 13.19 39.278 39.278 0 0 1 -29.01-11.52l-14.28-14.29a39.387 39.387 0 0 1 1.67-57.28c35.45-26.48 74.09-54.56 112.23-88.29 28.52-25.21 55.55-49.75 80.26-73.85z" fill="#d8a43d"/><path d="m248.289 185.97h24.933v68.25h-24.933z" fill="#eadf53" transform="matrix(.707 -.707 .707 .707 -79.257 248.848)"/><path d="m408.8 115.18-14.23 11.21v.01c-4.53-2.74-8.64-5.43-12.15-8-11.68-8.56-23.02-17.47-34.33-26.42l9.23-15.43z" fill="#fb6771"/><path d="m303.36 216.7-.53.32q-7.05 6.54-14.04 13.48l-39.41-39.41c4.57-4.64 15.4-15.62 19.89-20.34 8.95 11.31 17.88 22.66 26.44 34.36 2.47 3.37 5.04 7.29 7.65 11.59z" fill="#fb6771"/><path d="m485.98 170.58s2.45 34.48-50.58 87.51c-53.47 53.47-87.51 50.58-87.51 50.58s-3.75-9.12-9.56-22.23h.01c14.96-3.65 40.87-11.95 77.17-48.25 36.09-36.09 44.46-62.17 48.18-77.19 13.15 5.82 22.29 9.58 22.29 9.58z" fill="#ccd3df"/><path d="m269.27 170.75c-9.96-12.62-19.96-25.21-29.5-38.24-1.04-1.43-13.98-13.22 2.27-29.47l38.31-38.32a22.714 22.714 0 0 1 29.47-2.26c13.05 9.55 25.65 19.55 38.27 29.52 11.31 8.95 22.65 17.86 34.33 26.42 3.51 2.57 7.62 5.26 12.15 8 20.46 12.38 49.33 25.83 69.12 34.6-3.72 15.02-12.09 41.1-48.18 77.19-36.3 36.3-62.21 44.6-77.17 48.25h-.01c-8.84-19.97-22.47-49.23-34.97-69.74-2.61-4.3-5.18-8.22-7.65-11.59-8.56-11.7-17.49-23.05-26.44-34.36z" fill="#b0b5ca"/><path d="m54.21 385.82c35.45-26.48 74.09-54.56 112.23-88.29 28.52-25.21 55.55-49.75 80.26-73.85l24.648 24.642-39.648-39.642c-24.71 24.1-51.74 48.64-80.26 73.85-38.14 33.73-76.78 61.81-112.23 88.29a39.387 39.387 0 0 0 -1.67 57.28l14.28 14.29c.152.152.311.292.464.441a39.382 39.382 0 0 1 1.926-57.011z" fill="#edb740"/><path d="m309.82 62.46a22.714 22.714 0 0 0 -29.47 2.26l-38.31 38.32c-16.25 16.25-3.31 28.04-2.27 29.47l15 15c-1.04-1.43-13.98-13.22 2.27-29.47l38.31-38.32a22.714 22.714 0 0 1 29.47-2.26z" fill="#6d7486"/><path d="m491.968 170.153a6 6 0 0 0 -3.705-5.125c-.6-.246-49.474-20.406-83.061-39.377l7.306-5.752a6 6 0 0 0 -.111-9.513l-51.472-38.636a6 6 0 0 0 -8.751 1.718l-5.727 9.574c-10.755-8.492-21.809-17.17-33.083-25.423a28.557 28.557 0 0 0 -37.256 2.863l-38.308 38.311c-12.066 12.066-13.143 25.614-2.957 37.169l.182.208c8.539 11.657 17.531 23.085 26.3 34.182-3.59 3.7-8.257 8.452-12 12.257a5.981 5.981 0 0 0 -8.116.3l-17.632 17.632a6 6 0 0 0 -.393 8.051c-20.779 20.1-44.385 41.743-75.707 69.44-33.607 29.717-67.151 54.692-99.59 78.843q-6.186 4.607-12.26 9.138-.206.154-.4.324a45.389 45.389 0 0 0 -1.928 66.007l14.287 14.286a44.923 44.923 0 0 0 32.043 13.3c.457 0 .917-.007 1.376-.02 18.164-.53 29.535-11.77 32.588-15.2.127-.143.246-.291.359-.445 27.674-37.825 57.421-74.819 88.414-109.951q7.968-9.03 15.745-17.9c18.448-21.013 35.947-40.929 53.37-59.471l.352.352a6 6 0 0 0 8.485 0l17.631-17.631a6 6 0 0 0 0-8.486l-.628-.628q2.334-2.266 4.629-4.448c19.261 33.609 40.148 84.248 40.4 84.857a6 6 0 0 0 5.043 3.7c.146.012.619.046 1.4.046 7.28 0 41.384-2.892 90.855-52.363 54.333-54.349 52.427-90.669 52.32-92.189zm-132.917-84.806 39.9 29.951-4.8 3.781c-2.988-1.887-5.743-3.737-8.185-5.525-10.164-7.441-20.206-15.28-30.019-23.016zm-149.963 223.14q-7.774 8.854-15.725 17.883c-31.163 35.33-61.084 72.53-88.923 110.559a34.186 34.186 0 0 1 -23.791 10.982 33.073 33.073 0 0 1 -24.583-9.765l-14.287-14.287a33.388 33.388 0 0 1 1.235-48.39q5.958-4.45 12.031-8.967c32.639-24.3 66.389-49.428 100.373-79.48 31.521-27.872 55.284-49.666 76.225-69.922l31.344 31.344c-17.644 18.764-35.293 38.848-53.899 60.043zm66.982-63.93-39.77-39.773 9.146-9.146 39.773 39.773zm12.759-22.5-30.993-30.993c3.385-3.44 7.53-7.66 10.981-11.206 7.422 9.423 14.921 19.056 22.052 28.8 1.533 2.094 3.113 4.421 4.722 6.925q-3.335 3.139-6.762 6.471zm52.929 57.279c-10.9-24.343-27.48-59.022-41.207-77.771l-55.937-72.6c-.145-.2-.407-.517-.773-.933-3.993-4.53-7.325-10.982 2.44-20.748l38.312-38.311a16.619 16.619 0 0 1 21.682-1.673c12.28 8.99 24.4 18.57 36.125 27.834l2.1 1.653c11.159 8.816 22.652 17.861 34.377 26.445 3.637 2.662 7.875 5.433 12.519 8.247 19.272 11.681 45.56 24.138 65.172 32.924-4.818 16.772-15.112 39.346-45.305 69.54-30.389 30.397-52.863 40.651-69.505 45.39zm89.4-25.488c-40.808 40.808-69.724 47.56-79.341 48.645-1.181-2.812-2.952-6.983-5.171-12.081 17.927-5.335 41.749-16.621 73.1-47.974 16.2-16.2 28.731-32.3 37.252-47.859a128.394 128.394 0 0 0 10.651-25.279c5.141 2.237 9.344 4.021 12.169 5.208-1.048 9.616-7.728 38.406-48.659 79.337z" fill="#284268"/></svg>