<svg id="Layer_1" height="512" viewBox="0 0 512 512" width="512" xmlns="http://www.w3.org/2000/svg" data-name="Layer 1"><path d="m215.66 244.89 47.83 47.83c.38.38.77.74 1.17 1.07v.01s-16.28 48.74-65.2 97.66c-49.42 49.42-89.49 57.63-89.49 57.63l-.07.06a18.907 18.907 0 0 0 -1.35-1.49l-47.83-47.83a18.907 18.907 0 0 0 -1.49-1.35l.06-.07s8.21-40.07 57.63-89.49c48.92-48.92 97.66-65.2 97.66-65.2h.01c.33.4.69.79 1.07 1.17z" fill="#e29454"/><path d="m109.9 449.15a20 20 0 0 1 -1.35 26.79l-.68.68a20 20 0 0 1 -28.28 0l-47.83-47.83a20 20 0 0 1 0-28.28l.68-.68a20 20 0 0 1 26.79-1.35 18.907 18.907 0 0 1 1.49 1.35l47.83 47.83a18.907 18.907 0 0 1 1.35 1.49z" fill="#edb740"/><path d="m292.45 263.76a20.008 20.008 0 0 1 0 28.29l-.68.67a19.988 19.988 0 0 1 -27.11 1.07c-.4-.33-.79-.69-1.17-1.07l-47.83-47.83c-.38-.38-.74-.77-1.07-1.17a19.988 19.988 0 0 1 1.07-27.11l.67-.68a20.008 20.008 0 0 1 28.29 0l3.4 3.4 41.03 41.03z" fill="#edb740"/><path d="m264.062 200.032h30.547v58.025h-30.547z" fill="#b0b5ca" transform="matrix(.707 -.707 .707 .707 -80.144 264.605)"/><path d="m486.1 37.24-181.24 195.73-29.45-29.45 188.49-174z" fill="#ccd3df"/><path d="m89.292 428.4c.073-.352 8.426-40.28 57.628-89.482 47.927-47.927 95.673-64.523 97.593-65.177l-28.853-28.851c-.38-.38-.74-.77-1.07-1.17h-.01s-48.74 16.28-97.66 65.2c-49.42 49.42-57.63 89.49-57.63 89.49l-.06.07a18.907 18.907 0 0 1 1.49 1.35z" fill="#e8a467"/><path d="m61.76 430.51.68-.68a20 20 0 0 1 26.79-1.35l.06-.07v-.008l-28.57-28.572a18.907 18.907 0 0 0 -1.49-1.35 20 20 0 0 0 -26.79 1.35l-.68.68a20 20 0 0 0 0 28.28l30 30a20 20 0 0 1 0-28.28z" fill="#eadf53"/><path d="m244.513 273.743.067-.023h.01a19.988 19.988 0 0 1 1.07-27.11l.67-.68a20.008 20.008 0 0 1 28.29 0l1.1 1.1-27.7-27.7-3.4-3.4a20.008 20.008 0 0 0 -28.29 0l-.67.68a19.988 19.988 0 0 0 -1.07 27.11c.33.4.69.79 1.07 1.17z" fill="#eadf53"/><path d="m89.29 428.41-.06.07a18.907 18.907 0 0 1 1.49 1.35l-1.428-1.43z" fill="#5fa8ed"/><path d="m244.59 273.72h-.01l-.067.023 1.147 1.147c-.38-.38-.74-.77-1.07-1.17z" fill="#5fa8ed"/><path d="m488.07 31.577-22.2-7.723a6 6 0 0 0 -6.041 1.258l-184.258 170.088-1.709-1.709a6 6 0 0 0 -8.486 0l-17.376 17.378a26.029 26.029 0 0 0 -35.907.82l-.676.676a26.04 26.04 0 0 0 -5.641 28.314c-15.387 6.362-54 24.906-93.093 64-38.058 38.054-52.283 70.67-57.083 84.921a26.029 26.029 0 0 0 -27.406 5.991l-.676.676a26 26 0 0 0 0 36.77l47.83 47.83a26.03 26.03 0 0 0 36.77 0l.676-.676a26.031 26.031 0 0 0 5.991-27.406c14.248-4.8 46.864-19.027 84.92-57.083 39.092-39.092 57.637-77.706 64-93.092a26.057 26.057 0 0 0 28.313-5.642l.676-.676a26 26 0 0 0 .821-35.908l17.375-17.384a6 6 0 0 0 0-8.485l-1.7-1.7 177.31-191.495a6 6 0 0 0 -2.431-9.743zm-383.763 440.123-.677.676a14 14 0 0 1 -19.8 0l-47.83-47.828a14 14 0 0 1 0-19.8l.677-.677a14.016 14.016 0 0 1 19.8 0l47.83 47.83a14 14 0 0 1 0 19.8zm90.911-84.488c-24.742 24.742-46.939 38.651-61.2 45.962a132.917 132.917 0 0 1 -22.24 9.224l-45.8-45.8c2.955-9.952 15.225-43.474 55.191-83.439 39.87-39.87 80.011-57.739 91.84-62.436l44.653 44.653c-4.679 11.824-22.469 51.863-62.444 91.838zm92.988-99.412-.677.676a14 14 0 0 1 -19.8 0l-47.83-47.83a14.016 14.016 0 0 1 0-19.8l.677-.677a14 14 0 0 1 19.8 0l47.83 47.831a14 14 0 0 1 0 19.8zm.841-35.928-32.542-32.542 13.114-13.114 32.543 32.542zm15.653-27.549-20.632-20.631 181.255-167.322 10.142 3.53z" fill="#284268"/></svg>