<svg id="Layer_1" height="512" viewBox="0 0 512 512" width="512" xmlns="http://www.w3.org/2000/svg" data-name="Layer 1"><path d="m202.1 342.97-133.58 133.58a21.016 21.016 0 0 1 -29.74 0l-6.62-6.61a21.046 21.046 0 0 1 0-29.75l91.79-91.78c12.89-12.89 29.17-6.33 44.79-1.87 12.17 3.48 23.93 5.69 33.36-3.57z" fill="#b0b5ca"/><g fill="#6d7486"><path d="m200.61 319.75c8.45 8.45 6.43 18.29 1.68 23.04a1.92 1.92 0 0 1 -.15.14c-.01.02-.03.03-.04.04-9.43 9.26-21.19 7.05-33.36 3.57l20.78-20.77 8.55-8.55z"/><path d="m220.52 294.63-.03.17-22.42 22.42-8.55 8.55-2.54-2.54c-12.36-12.36-1.68-23.03-1.68-23.03.62-.62 1.24-1.19 1.87-1.72 10.27-8.71 21.73-6.22 33.35-3.85z"/><path d="m279.46 240.91c12.35 12.35 1.68 23.03 1.68 23.03-.21.21-.41.41-.62.61-10.62 10.06-22.58 7.41-34.72 4.94l21.48-21.47 9.64-9.65z"/><path d="m298.4 216.89-21.48 21.48-9.64 9.65-.01-.01-2.54-2.53c-12.35-12.36-1.68-23.04-1.68-23.04.62-.62 1.24-1.19 1.87-1.72 10.3-8.74 21.81-6.2 33.48-3.83z"/><path d="m357.21 163.15c12.36 12.36 1.68 23.04 1.68 23.04-.19.19-.39.38-.58.56-10.6 10.08-22.55 7.47-34.67 5l.02-.12 21.8-21.8 9.21-9.22z"/><path d="m376.57 138.71-21.9 21.9-9.21 9.22-2.54-2.54c-11.9-11.9-1.68-23.04-1.68-23.04.5-.5 1-.97 1.51-1.41 10.39-9.1 22.02-6.54 33.82-4.13z"/><path d="m436.06 84.3c10.95 10.95 1.68 23.04 1.68 23.04-.17.17-.34.33-.5.5-10.63 10.17-22.62 7.53-34.79 5.05l.01-.06 21.85-21.85 9.21-9.22z"/><path d="m456.03 59.23v.02l-22.51 22.51-9.21 9.22-2.54-2.54c-10.95-10.95-1.68-23.04-1.68-23.04.36-.36.71-.7 1.07-1.02 10.91-10.03 22.6-7.43 34.87-5.15z"/></g><path d="m52.16 460.19 91.79-91.78c10.729-10.729 23.807-7.982 36.9-4.188l21.25-21.252c-9.43 9.26-21.19 7.05-33.36 3.57-15.62-4.46-31.9-11.02-44.79 1.87l-91.79 91.78a21.046 21.046 0 0 0 0 29.75l6.62 6.61a20.889 20.889 0 0 0 8.294 5.092 21.028 21.028 0 0 1 5.086-21.452z" fill="#ccd3df"/><path d="m280.52 264.55-23.45 23.46c-11.54 11.53-24.13 9.14-36.55 6.62-11.62-2.37-23.08-4.86-33.35 3.85l-.07-.08 22.27-22.27c11.49-11.5 24.05-9.16 36.43-6.64 12.14 2.47 24.1 5.12 34.72-4.94z" fill="#ccd3df"/><path d="m298.4 216.89c-11.67-2.37-23.18-4.91-33.48 3.83l-.07-.08 22.27-22.27c11.53-11.52 24.12-9.15 36.52-6.62 12.12 2.47 24.07 5.08 34.67-5l.01.01-23.5 23.49c-11.49 11.5-24.04 9.16-36.42 6.64z" fill="#ccd3df"/><path d="m437.24 107.84-24.23 24.23c-11.5 11.5-24.06 9.16-36.44 6.64-11.8-2.41-23.43-4.97-33.82 4.13l-.04-.05 23.26-23.26c11.52-11.52 24.09-9.16 36.48-6.64 12.17 2.48 24.16 5.12 34.79-5.05z" fill="#ccd3df"/><path d="m486 29.29-3.03 29.67c-9.22 3.34-18.22 1.89-26.94.27-12.27-2.28-23.96-4.88-34.87 5.15l-.02-.03 26.6-26.6a21.207 21.207 0 0 1 8.21-5.2l.23-.23z" fill="#ccd3df"/><path d="m485.392 23.316-29.817 3.038a5.94 5.94 0 0 0 -2.588.9 27.452 27.452 0 0 0 -9.488 6.26l-26.6 26.6c-.059.059-.1.128-.154.189-.3.282-.6.562-.9.86a6.188 6.188 0 0 0 -.518.591c-4.1 5.338-8.882 17.956.57 29.149l-15.471 15.472c-11.974-2.3-26.089-3.7-38.7 8.91l-23.263 23.263c-.089.09-.152.194-.235.288q-.618.566-1.23 1.178c-.061.06-.121.123-.18.186a23.8 23.8 0 0 0 -5.02 9.658c-1.251 5.008-1.246 12.376 5.243 19.9l-15.463 15.462c-11.974-2.3-26.088-3.7-38.7 8.91l-22.269 22.27c-.133.134-.232.287-.35.429-.485.437-.968.889-1.448 1.369a22.718 22.718 0 0 0 -5.349 9.578c-1.332 4.993-1.368 12.4 5.387 20.175l-15.025 15.025c-11.974-2.3-26.089-3.7-38.7 8.911l-22.268 22.267c-.134.134-.232.287-.351.43-.484.437-.968.888-1.448 1.368a22.747 22.747 0 0 0 -5.348 9.579c-1.333 4.993-1.368 12.4 5.387 20.174l-14.08 14.081-.953-.282c-15.067-4.478-32.145-9.553-46.359 4.661l-91.787 91.785a27.064 27.064 0 0 0 0 38.229l6.619 6.619a27.066 27.066 0 0 0 38.229 0l133.622-133.623.058-.059q.042-.04.084-.084a20.628 20.628 0 0 0 5.867-14.31 23.133 23.133 0 0 0 -5.915-15.433l16.13-16.13c11.975 2.3 26.089 3.7 38.7-8.91l23.454-23.449c.036-.036.059-.079.094-.116.174-.167.348-.326.52-.5 5.708-5.708 10.05-18.069-.043-29.749l15.03-15.03c11.973 2.3 26.088 3.7 38.7-8.91l23.5-23.5c.033-.033.054-.072.086-.1.161-.156.323-.3.484-.464a22.725 22.725 0 0 0 5.349-9.579c1.332-4.992 1.368-12.4-5.387-20.174l15.458-15.459c11.973 2.3 26.088 3.7 38.7-8.909l24.225-24.226c.029-.028.047-.062.074-.09.143-.139.287-.269.43-.412a5.927 5.927 0 0 0 .517-.591c4.1-5.338 8.883-17.955-.569-29.149l16.145-16.146c7.937 1.368 16.617 2.254 25.652-.663a6.365 6.365 0 0 0 5.386-7.105l2.855-28.032a6 6 0 0 0 -6.577-6.578zm-421.112 449a15.051 15.051 0 0 1 -21.259 0l-6.621-6.622a15.05 15.05 0 0 1 0-21.259l91.785-91.786a18.8 18.8 0 0 1 14.166-5.781c5.66 0 12.25 1.749 20.29 4.139 6 1.783 12.333 3.666 18.629 4.31zm133.764-133.769c-4.809 4.81-10.328 5.7-17.427 4.606l13.139-13.139 4.185-4.185a11.107 11.107 0 0 1 2.459 6.771 8.667 8.667 0 0 1 -2.356 5.947zm-8.409-21.382c-2.177-2.865-4.643-7.929-.093-12.727 5.518-5.519 11.266-6.586 18.65-5.83zm63.193-33.4c-8.953 8.953-17.84 7.686-31.6 4.882a104.052 104.052 0 0 0 -13.734-2.161l6.114-6.114c8.952-8.952 17.839-7.688 31.6-4.881a104.161 104.161 0 0 0 13.732 2.16zm24.066-24.065c-5.518 5.518-11.267 6.586-18.651 5.83l13.271-13.27 5.285-5.286c2.18 2.861 4.645 7.926.095 12.726zm-4.218-25.573-5.285 5.286c-2.178-2.866-4.643-7.93-.093-12.728 5.518-5.519 11.267-6.587 18.651-5.831zm57.906-28.114c-8.724 8.724-17.39 7.744-30.561 5.091a5.954 5.954 0 0 0 -.844-.171l-.2-.039a104.172 104.172 0 0 0 -13.731-2.162l6.112-6.112c8.952-8.952 17.839-7.686 31.6-4.882a104.063 104.063 0 0 0 13.742 2.162zm24.066-24.067c-5.518 5.517-11.266 6.584-18.649 5.829l13.7-13.7 4.851-4.851c2.182 2.857 4.65 7.921.098 12.719zm-4.214-25.576-4.855 4.855c-2.064-2.673-2.8-5.347-2.212-8.124a12.068 12.068 0 0 1 2.26-4.745c5.476-5.4 11.19-6.441 18.512-5.691zm58.335-28.545c-8.952 8.953-17.841 7.687-31.6 4.882a104.4 104.4 0 0 0 -13.733-2.161l6.775-6.775c8.953-8.952 17.839-7.689 31.6-4.881a104.213 104.213 0 0 0 13.732 2.16zm24.4-24.407c-5.42 5.241-11.086 6.254-18.327 5.511l18.541-18.54c4.109 5.77.917 11.381-.212 13.026zm-3.889-25.897-4.832 4.832c-4.109-5.775-.915-11.386.214-13.031 5.691-5.517 11.465-6.627 18.8-5.981zm48.139-23.207c-6.978 1.494-14.065.18-21.5-1.208a104.224 104.224 0 0 0 -13.171-1.871l9.24-9.24a15.2 15.2 0 0 1 5.909-3.773c.049-.017.095-.04.144-.058l21.244-2.164z" fill="#284268"/></svg>