<svg id="Layer_1" height="512" viewBox="0 0 512 512" width="512" xmlns="http://www.w3.org/2000/svg" data-name="Layer 1"><path d="m118.83 26h153.5v29.54h-153.5z" fill="#e75163"/><path d="m231.68 395.56v12.67h-72.2v-12.67a20 20 0 0 1 20-20h32.2a20 20 0 0 1 20 20z" fill="#6d7486"/><path d="m210.35 135.57v.87h-29.54v-.87-79.65-.38h29.54v.38z" fill="#4689d3"/><path d="m210.35 346.48v29.08h-29.54v-21.69z" fill="#ccd3df"/><path d="m210.35 294.79v25.85l-29.54 7.38v-25.84z" fill="#ccd3df"/><path d="m210.35 243.1v25.85l-29.54 7.38v-25.84z" fill="#ccd3df"/><g fill="#6d7486"><path d="m210.35 320.64v25.84l-29.54 7.39v-25.85z"/><path d="m210.35 268.95v25.84l-29.54 7.39v-25.85z"/><path d="m210.35 223.3v19.8l-29.54 7.39v-27.19z"/></g><path d="m393.17 205.39v231.38a49.235 49.235 0 0 1 -49.23 49.23h-205.54v-44.67h155.42a24.616 24.616 0 0 0 24.56-22.99l15.21-191.28a24.609 24.609 0 0 0 -24.56-26.23h-85.76v-44.67h120.67a49.235 49.235 0 0 1 49.23 49.23z" fill="#ccd3df"/><path d="m213.27 136.44h-35.38a10 10 0 0 0 -10 10v66.86a10 10 0 0 0 10 10h35.38a10 10 0 0 0 10-10v-66.86a10 10 0 0 0 -10-10z" fill="#e75163"/><path d="m363.59 227.06a24.609 24.609 0 0 0 -24.56-26.23h-30a24.609 24.609 0 0 1 24.56 26.23l-15.21 191.28a24.616 24.616 0 0 1 -24.56 22.99h30a24.616 24.616 0 0 0 24.56-22.99z" fill="#b0b5ca"/><path d="m253.27 200.83v-44.67h-29.95-.05v44.67h.05z" fill="#b0b5ca"/><path d="m138.4 441.33h30v44.67h-30z" fill="#b0b5ca"/><path d="m343.936 150.16h-114.665v-3.716a16.022 16.022 0 0 0 -12.922-15.7v-69.206h55.976a6 6 0 0 0 6-6v-29.538a6 6 0 0 0 -6-6h-153.491a6 6 0 0 0 -6 6v29.538a6 6 0 0 0 6 6h55.978v69.21a16.022 16.022 0 0 0 -12.923 15.7v66.852a16.021 16.021 0 0 0 12.923 15.7v140.988a26.036 26.036 0 0 0 -21.333 25.573v12.666a6 6 0 0 0 6 6h72.2a6 6 0 0 0 6-6v-12.666a26.037 26.037 0 0 0 -21.333-25.573v-140.988a16.021 16.021 0 0 0 12.922-15.7v-6.474h79.755a18.616 18.616 0 0 1 18.58 19.762l-15.212 191.358a18.661 18.661 0 0 1 -18.575 17.388h-155.416a6 6 0 0 0 -6 6v44.666a6 6 0 0 0 6 6h205.536a55.292 55.292 0 0 0 55.23-55.229v-231.38a55.293 55.293 0 0 0 -55.23-55.231zm-219.102-100.622v-17.538h141.491v17.538zm79.515 12v68.906h-17.537v-68.906zm21.333 334.023v6.666h-60.2v-6.666a14.015 14.015 0 0 1 14-14h32.2a14.016 14.016 0 0 1 14 14zm-21.333-144.774v13.475l-17.537 4.385v-13.476zm-17.537-7.987v-13.5h17.537v9.117zm17.537 33.831v13.476l-17.537 4.385v-13.475zm0 25.846v13.476l-17.537 4.384v-13.474zm0 25.846v13.477l-17.537 4.385v-13.477zm0 25.846v15.391h-17.537v-11.006zm12.922-140.869a4 4 0 0 1 -4 4h-35.382a4 4 0 0 1 -4-4v-66.856a4 4 0 0 1 4-4h35.382a4 4 0 0 1 4 4zm169.9 223.471a43.28 43.28 0 0 1 -43.235 43.229h-199.536v-32.666h149.416a30.672 30.672 0 0 0 30.543-28.517l15.216-191.358a30.615 30.615 0 0 0 -30.549-32.633h-79.755v-32.666h114.665a43.281 43.281 0 0 1 43.23 43.231z" fill="#284268"/></svg>