<svg id="Layer_1" height="512" viewBox="0 0 512 512" width="512" xmlns="http://www.w3.org/2000/svg" data-name="Layer 1"><path d="m486 73.58-11.53 24.7-60.75-60.75 24.7-11.53z" fill="#b0b5ca"/><path d="m291.13 259.1-20.13 20.12-38.22-38.22 20.12-20.13z" fill="#b0b5ca"/><path d="m413.72 37.53-106.5 106.5c14.14 26.58-26.95 68.38-53.26 51.75l-13.07 13.08 62.25 62.25 13.08-13.07c-16.63-26.31 25.17-67.4 51.75-53.26l106.5-106.5z" fill="#ccd3df"/><path d="m104.04 455.16a19.059 19.059 0 0 1 -1.53 25.24l-.01.02a19.084 19.084 0 0 1 -26.97 0l-43.95-43.95a19.084 19.084 0 0 1 0-26.97l.02-.01a19.085 19.085 0 0 1 26.97 0l43.94 43.94a19.124 19.124 0 0 1 1.53 1.73z" fill="#ffc85a"/><path d="m273.86 282.08-43.94-43.94a19.078 19.078 0 0 0 -26.98 0l-.01.01a19.073 19.073 0 0 0 -1.31 25.52 17.856 17.856 0 0 0 1.31 1.45l43.95 43.95a17.856 17.856 0 0 0 1.45 1.31 19.073 19.073 0 0 0 25.52-1.31l.01-.01a19.078 19.078 0 0 0 0-26.98z" fill="#ffc85a"/><path d="m248.33 310.38-.36.87s-14.86 44.54-60.44 90.12c-46.05 46.05-83.38 53.7-83.38 53.7l-.11.09a19.124 19.124 0 0 0 -1.53-1.73l-43.94-43.94a19.124 19.124 0 0 0 -1.73-1.53l.09-.11s7.65-37.33 53.7-83.38c45.58-45.58 90.12-60.44 90.12-60.44l.87-.36a17.856 17.856 0 0 0 1.31 1.45l43.95 43.95a17.856 17.856 0 0 0 1.45 1.31z" fill="#d8a43d"/><path d="m230.75 294.03.771-.319-28.591-28.591a17.856 17.856 0 0 1 -1.31-1.45l-.87.36s-44.54 14.86-90.12 60.44c-46.05 46.05-53.7 83.38-53.7 83.38l-.09.11a19.124 19.124 0 0 1 1.73 1.53l28.36 28.36s7.65-37.33 53.7-83.38c45.58-45.58 90.12-60.44 90.12-60.44z" fill="#edb740"/><g fill="#f5cac1"><path d="m104.04 455.16.11-.09-1.64-1.64a19.124 19.124 0 0 1 1.53 1.73z"/><path d="m246.88 309.07 1.409 1.409.041-.1a17.856 17.856 0 0 1 -1.45-1.309z"/><path d="m86.84 437.96a19.124 19.124 0 0 1 1.73 1.53l-1.64-1.64z"/><path d="m231.62 293.67-.1.041 1.409 1.409a17.856 17.856 0 0 1 -1.309-1.45z"/></g><path d="m442.665 21.756a6 6 0 0 0 -6.78-1.194l-24.706 11.529a6 6 0 0 0 -1.706 1.194l-106.5 106.5a6 6 0 0 0 -1.054 7.061c4.357 8.189 2.595 22.991-11.573 36.141-13.575 12.6-26.358 12.035-33.18 7.725a6 6 0 0 0 -7.448.83l-13.073 13.073a6 6 0 0 0 0 8.485l7.771 7.771-11.7 11.7a25.062 25.062 0 0 0 -33.979 1.286l-.049.049a25.1 25.1 0 0 0 -5.69 26.66c-13.786 5.661-49.712 22.758-86.616 59.661-35.277 35.277-48.622 65.568-53.2 79.026a25.1 25.1 0 0 0 -25.835 5.99l-.043.044a25.074 25.074 0 0 0 .032 35.426l43.946 43.946a25.074 25.074 0 0 0 35.42.038l.05-.049a25.1 25.1 0 0 0 5.99-25.835c13.458-4.574 43.749-17.919 79.026-53.2 36.9-36.9 54-72.83 59.661-86.616a25.1 25.1 0 0 0 26.66-5.69l.043-.044a25.061 25.061 0 0 0 1.292-33.984l11.7-11.7 7.771 7.771a6 6 0 0 0 8.485 0l13.073-13.073a6 6 0 0 0 .83-7.448c-4.311-6.822-4.875-19.6 7.725-33.18 13.149-14.168 27.952-15.929 36.141-11.573a6 6 0 0 0 7.061-1.054l106.5-106.5a6 6 0 0 0 1.194-1.706l11.529-24.706a6 6 0 0 0 -1.194-6.78zm-344.365 454.376-.041.04a13.073 13.073 0 0 1 -18.488 0l-43.943-43.945a13.073 13.073 0 0 1 0-18.488l.036-.037a13.088 13.088 0 0 1 18.462.026l43.946 43.946a13.088 13.088 0 0 1 .028 18.458zm84.987-79c-36.7 36.7-67.829 48.343-77.35 51.239l-42.314-42.317a124.322 124.322 0 0 1 8.516-20.454c6.8-13.256 19.731-33.886 42.731-56.886 37.735-37.735 75.1-54.066 85.156-58.012l41.274 41.272c-3.948 10.063-20.28 47.426-58.011 85.156zm86.331-92.317-.037.038a13.088 13.088 0 0 1 -18.461-.026l-43.947-43.947a13.088 13.088 0 0 1 -.029-18.458l.041-.04a13.072 13.072 0 0 1 18.487 0l43.946 43.946a13.072 13.072 0 0 1 0 18.487zm1.382-34.076-29.739-29.739 11.639-11.644 29.744 29.744zm95.615-73.086c-6.979-2.46-14.837-2.353-22.993.352a57.5 57.5 0 0 0 -23.408 15.485c-12.739 13.725-16.911 30.242-11.346 43.408l-5.728 5.728-53.769-53.769 5.728-5.728c13.168 5.566 29.682 1.394 43.408-11.346a57.5 57.5 0 0 0 15.493-23.408c2.7-8.156 2.811-16.015.352-22.993l99.369-99.369 52.271 52.271zm106.042-109.669-48.641-48.641 13.135-6.13 41.636 41.636z" fill="#284268"/></svg>