<?xml version="1.0"?>
<svg xmlns="http://www.w3.org/2000/svg" id="Layer_1" data-name="Layer 1" viewBox="0 0 512 512" width="512" height="512"><path d="M472.85,176.66c7.73,28.83-19.45,47.68-31.37,50.88l1.66,13.78c14.2,5.58,31.43,2.45,42.86-5.83,0,29.85-31.13,41.02-43.47,41.02l-1.97,13.75c12.28,9.06,29.73,10.49,42.91,5.45-7.72,28.84-40.69,31.57-52.6,28.38l-5.47,12.77c9.52,11.93,26.01,17.83,40.04,16.38-14.92,25.85-47.47,19.96-58.16,13.79l-8.58,10.92c6.11,13.99,20.51,23.95,34.44,26.18-21.11,21.11-51.02,7-59.75-1.73l-11.11,8.33c2.27,15.09,13.6,28.44,26.48,34.2-25.85,14.93-51.09-6.45-57.26-17.13l-12.89,5.16c-1.71,15.17,5.78,31,16.73,39.89-28.83,7.73-47.68-19.45-50.88-31.37l-13.78,1.66c-5.58,14.2-2.45,31.43,5.83,42.86-29.85,0-41.02-31.13-41.02-43.47l-13.75-1.97c-9.06,12.28-10.49,29.73-5.45,42.91-28.84-7.72-31.57-40.69-28.38-52.61l-12.77-5.46c-11.93,9.52-17.83,26.01-16.38,40.04-25.85-14.92-19.96-47.47-13.79-58.16l-10.92-8.58c-13.99,6.11-23.95,20.51-26.18,34.44-21.11-21.11-6.99-51.03,1.73-59.75l-8.33-11.11c-15.09,2.27-28.44,13.6-34.2,26.48-14.93-25.85,6.45-51.09,17.14-57.26l-5.17-12.89c-15.17-1.71-31,5.78-39.89,16.73-7.73-28.83,19.45-47.68,31.37-50.88l-1.66-13.78c-14.2-5.58-31.43-2.45-42.86,5.83,0-29.85,31.13-41.02,43.47-41.02l1.97-13.75c-12.28-9.06-29.73-10.49-42.91-5.45,7.72-28.84,40.69-31.57,52.61-28.38l5.46-12.77c-9.52-11.93-26.01-17.83-40.04-16.38,14.92-25.85,47.47-19.96,58.16-13.79l8.58-10.92c-6.11-13.99-20.51-23.95-34.44-26.18,21.11-21.11,51.03-6.99,59.75,1.73l11.11-8.33c-2.27-15.09-13.6-28.44-26.48-34.2,25.85-14.93,51.09,6.45,57.26,17.14l12.89-5.17c1.71-15.17-5.78-31-16.73-39.89,28.83-7.73,47.68,19.45,50.88,31.37l13.78-1.66c5.58-14.2,2.45-31.43-5.83-42.86,29.85,0,41.02,31.13,41.02,43.47l13.75,1.97c9.06-12.28,10.49-29.73,5.45-42.91,28.84,7.72,31.57,40.69,28.38,52.6l12.77,5.47c11.93-9.52,17.83-26.01,16.38-40.04,25.85,14.92,19.96,47.47,13.79,58.16l10.92,8.58c13.99-6.11,23.95-20.51,26.18-34.44,21.11,21.11,7,51.02-1.73,59.75l8.33,11.11c15.09-2.27,28.44-13.6,34.2-26.48,14.93,25.85-6.45,51.09-17.13,57.26l5.16,12.89C448.13,195.1,463.96,187.61,472.85,176.66Z" style="fill:#ccd3df"/><path d="M256,85.25A170.75,170.75,0,1,1,85.25,256,170.753,170.753,0,0,1,256,85.25Z" style="fill:#b0b5ca"/><path d="M115.25,256A170.763,170.763,0,0,1,271,85.913c-4.944-.43-9.944-.663-15-.663a170.75,170.75,0,0,0,0,341.5c5.056,0,10.056-.233,15-.663A170.763,170.763,0,0,1,115.25,256Z" style="fill:#f4f8fc"/><path d="M256,149.47A106.53,106.53,0,1,1,149.47,256,106.536,106.536,0,0,1,256,149.47Z" style="fill:#ccd3df"/><path d="M179.47,256A106.555,106.555,0,0,1,271,150.526a106.531,106.531,0,1,0,0,210.947A106.553,106.553,0,0,1,179.47,256Z" style="fill:#6d7486"/><circle cx="256" cy="256" r="24.78" style="fill:#6d7486"/><path d="M492,235.487a6,6,0,0,0-9.52-4.858,41.609,41.609,0,0,1-33.839,6.2l-.629-5.249c16.238-6.96,38.311-27.839,30.637-56.477a6,6,0,0,0-10.453-2.229,41.624,41.624,0,0,1-30.978,14.75h-.1l-1.967-4.906c13.883-10.927,29.8-36.808,14.976-62.483a6,6,0,0,0-10.674.553,41.612,41.612,0,0,1-26.2,22.29l-3.169-4.23c10.582-14.148,19.259-43.266-1.7-64.23a6,6,0,0,0-10.168,3.3,41.615,41.615,0,0,1-19.542,28.314l-4.157-3.267c6.56-16.4,7.405-46.775-18.271-61.6a6,6,0,0,0-8.967,5.816,41.614,41.614,0,0,1-11.549,32.406l-4.891-2.093a60.452,60.452,0,0,0-3.275-26.28c-3.741-10.292-12.033-23.587-30.286-28.478a6,6,0,0,0-7.157,7.939,41.608,41.608,0,0,1-2.768,34.291l-5.233-.749C279.589,46.726,265.135,20,235.487,20a6,6,0,0,0-4.859,9.521,41.611,41.611,0,0,1,6.2,33.838l-5.281.633a60.475,60.475,0,0,0-15.977-21.123c-8.387-7.042-22.215-14.406-40.468-9.518a6,6,0,0,0-2.228,10.454,41.6,41.6,0,0,1,14.748,31.08l-4.937,1.98a60.468,60.468,0,0,0-20.9-16.268c-9.923-4.631-25.187-8.171-41.553,1.277a6,6,0,0,0,.553,10.674,41.618,41.618,0,0,1,22.29,26.206l-4.256,3.189a60.49,60.49,0,0,0-24.4-10.3c-10.781-1.905-26.444-1.373-39.806,11.989a6,6,0,0,0,3.3,10.167,41.611,41.611,0,0,1,28.312,19.543l-3.287,4.183a60.464,60.464,0,0,0-26.233-3.64c-10.91.951-25.9,5.519-35.346,21.884a6,6,0,0,0,5.816,8.967,41.633,41.633,0,0,1,32.406,11.549l-2.078,4.861c-17.545-2.088-47.1,4.952-54.773,33.59a6,6,0,0,0,7.938,7.158,41.618,41.618,0,0,1,34.292,2.768l-.749,5.233C46.726,232.411,20,246.865,20,276.513a6,6,0,0,0,9.52,4.858,41.619,41.619,0,0,1,33.84-6.2l.63,5.248c-16.239,6.961-38.313,27.839-30.639,56.478A6,6,0,0,0,43.8,339.125a41.624,41.624,0,0,1,30.978-14.75h.1l1.98,4.936a60.473,60.473,0,0,0-16.268,20.9c-4.632,9.924-8.171,25.188,1.278,41.553a6,6,0,0,0,10.674-.553,41.605,41.605,0,0,1,26.205-22.29l3.169,4.229c-10.582,14.148-19.259,43.267,1.7,64.231a6,6,0,0,0,10.168-3.3,41.614,41.614,0,0,1,19.543-28.314l4.157,3.266c-6.561,16.4-7.406,46.775,18.27,61.6a6,6,0,0,0,8.967-5.816,41.613,41.613,0,0,1,11.549-32.406l4.891,2.091a60.488,60.488,0,0,0,3.275,26.281c3.742,10.292,12.033,23.588,30.286,28.479a6,6,0,0,0,7.157-7.939,41.61,41.61,0,0,1,2.767-34.29l5.233.75C232.411,465.275,246.865,492,276.513,492a6,6,0,0,0,4.859-9.521,41.606,41.606,0,0,1-6.2-33.839l5.281-.634a60.478,60.478,0,0,0,15.977,21.123c8.386,7.043,22.213,14.407,40.468,9.52a6,6,0,0,0,2.228-10.454,41.608,41.608,0,0,1-14.748-31.08l4.938-1.978a60.457,60.457,0,0,0,20.9,16.267c9.923,4.632,25.187,8.17,41.552-1.278a6,6,0,0,0-.553-10.674,41.616,41.616,0,0,1-22.29-26.2l4.257-3.189a60.456,60.456,0,0,0,24.4,10.3c10.783,1.908,26.444,1.372,39.805-11.99a6,6,0,0,0-3.3-10.167,41.61,41.61,0,0,1-28.313-19.543l3.266-4.157c16.4,6.561,46.776,7.407,61.6-18.27a6,6,0,0,0-5.816-8.967,41.631,41.631,0,0,1-32.406-11.549l2.079-4.86c17.542,2.086,47.1-4.954,54.772-33.591a6,6,0,0,0-7.938-7.158,41.619,41.619,0,0,1-34.291-2.767l.75-5.234C465.275,279.589,492,265.135,492,235.487Zm-55,59.6c9.89,7.3,23.282,10.546,36.025,9.208-11.021,15.7-33.846,15.814-40.6,14a6,6,0,0,0-7.069,3.435L419.887,334.5a6,6,0,0,0,.825,6.1c7.663,9.613,19.758,16.216,32.414,18.218-14.71,12.314-36.786,6.515-42.845,3.016a6,6,0,0,0-7.718,1.49l-8.577,10.919a6,6,0,0,0-.782,6.105c4.918,11.277,14.9,20.792,26.62,26-5.936,2.781-12.681,3.523-20.159,2.2-10.377-1.833-18.86-7.216-22.031-10.386a6,6,0,0,0-7.84-.559l-11.112,8.325a6,6,0,0,0-2.336,5.695c1.831,12.164,9.015,23.941,18.984,32-6.456,1.149-13.161.12-20.042-3.093-9.548-4.457-16.35-11.851-18.591-15.734a6,6,0,0,0-7.429-2.569l-12.889,5.166a6,6,0,0,0-3.73,4.9c-1.379,12.225,2.512,25.458,10.054,35.825-6.531-.56-12.743-3.291-18.558-8.175-8.07-6.777-12.726-15.68-13.887-20.011a5.993,5.993,0,0,0-6.511-4.4l-13.786,1.657a6,6,0,0,0-4.869,3.763c-4.493,11.443-4.163,25.221.429,37.181-18.018-6.581-24.034-28.6-24.034-35.594a6,6,0,0,0-5.148-5.939l-13.745-1.971A6.01,6.01,0,0,0,216.916,437c-7.308,9.9-10.555,23.3-9.207,36.053-5.376-3.751-9.39-9.222-11.984-16.36-3.6-9.9-3.181-19.942-2.02-24.273a6,6,0,0,0-3.437-7.069L177.5,419.888a6,6,0,0,0-6.1.825c-9.612,7.662-16.215,19.759-18.219,32.413-12.313-14.71-6.514-36.785-3.015-42.845a6,6,0,0,0-1.49-7.719l-10.92-8.577a6,6,0,0,0-6.1-.781c-11.268,4.914-20.777,14.889-25.987,26.594-8.086-17.395,3.228-37.218,8.176-42.166a6,6,0,0,0,.558-7.841l-8.326-11.11a6,6,0,0,0-5.7-2.335c-12.165,1.831-23.941,9.014-32,18.983-1.149-6.454-.119-13.16,3.094-20.042,4.457-9.549,11.852-16.349,15.735-18.592a6,6,0,0,0,2.569-7.429l-5.168-12.888a6,6,0,0,0-4.9-3.729c-12.214-1.378-25.439,2.5-35.8,10.038,1.694-19.108,21.4-30.618,28.163-32.428a6,6,0,0,0,4.4-6.512L74.82,269.961a6,6,0,0,0-3.764-4.869c-11.442-4.494-25.22-4.162-37.18.429,6.582-18.018,28.6-24.034,35.6-24.034a6,6,0,0,0,5.939-5.149l1.968-13.745A6,6,0,0,0,75,216.915c-9.889-7.3-23.281-10.546-36.024-9.208,11.02-15.7,33.843-15.813,40.6-14a6,6,0,0,0,7.07-3.436L92.113,177.5a6,6,0,0,0-.825-6.1c-7.669-9.62-19.777-16.226-32.442-18.223,5.015-4.223,11.337-6.684,18.9-7.343,10.5-.912,20.085,2.089,23.968,4.331a6,6,0,0,0,7.718-1.489l8.579-10.918a6,6,0,0,0,.782-6.106c-4.918-11.277-14.9-20.792-26.62-26,5.937-2.78,12.682-3.523,20.159-2.2,10.377,1.834,18.862,7.217,22.032,10.387a6,6,0,0,0,7.841.559l11.111-8.328a6,6,0,0,0,2.335-5.694c-1.831-12.164-9.015-23.941-18.984-32,6.455-1.148,13.162-.118,20.042,3.094,9.55,4.457,16.351,11.852,18.593,15.735a6,6,0,0,0,7.429,2.569l12.888-5.168a6,6,0,0,0,3.729-4.9c1.379-12.225-2.512-25.458-10.054-35.825,6.531.559,12.743,3.291,18.558,8.174,8.07,6.776,12.726,15.678,13.886,20.009a6,6,0,0,0,6.51,4.405l13.786-1.654a6,6,0,0,0,4.871-3.763c4.493-11.443,4.163-25.221-.429-37.181,18.018,6.582,24.034,28.6,24.034,35.6a6,6,0,0,0,5.15,5.939l13.745,1.968a6,6,0,0,0,5.676-2.375c7.308-9.9,10.555-23.3,9.207-36.053,5.376,3.751,9.39,9.221,11.984,16.358,3.6,9.9,3.181,19.941,2.021,24.272a6,6,0,0,0,3.435,7.069L334.5,92.112a6,6,0,0,0,6.1-.825c9.612-7.662,16.215-19.759,18.219-32.413,12.312,14.709,6.515,36.783,3.016,42.843a6,6,0,0,0,1.49,7.718l10.918,8.579a6,6,0,0,0,6.105.782c11.268-4.914,20.778-14.89,25.987-26.594,8.087,17.395-3.227,37.216-8.174,42.164a6,6,0,0,0-.559,7.84l8.325,11.112a6,6,0,0,0,5.695,2.336c12.156-1.83,23.923-9,31.984-18.961,3.31,18.894-12.749,35.112-18.808,38.611a6,6,0,0,0-2.569,7.428l5.166,12.889a6,6,0,0,0,4.9,3.73c12.215,1.381,25.439-2.5,35.8-10.038-1.694,19.108-21.4,30.617-28.16,32.427a6,6,0,0,0-4.4,6.511l1.653,13.787a6,6,0,0,0,3.765,4.87c11.442,4.494,25.221,4.163,37.18-.429-6.581,18.018-28.6,24.034-35.594,24.034a6,6,0,0,0-5.94,5.148l-1.97,13.745A6,6,0,0,0,437,295.085Z" style="fill:#284268"/><path d="M256,79.25C158.54,79.25,79.25,158.54,79.25,256S158.54,432.75,256,432.75,432.75,353.46,432.75,256,353.46,79.25,256,79.25Zm0,341.5c-90.843,0-164.75-73.906-164.75-164.75S165.157,91.25,256,91.25,420.75,165.156,420.75,256,346.843,420.75,256,420.75Z" style="fill:#284268"/><path d="M256,225.224A30.776,30.776,0,1,0,286.776,256,30.811,30.811,0,0,0,256,225.224Zm0,49.552A18.776,18.776,0,1,1,274.776,256,18.8,18.8,0,0,1,256,274.776Z" style="fill:#284268"/><path d="M256,143.473A112.527,112.527,0,1,0,368.528,256,112.655,112.655,0,0,0,256,143.473Zm0,213.054A100.527,100.527,0,1,1,356.528,256,100.641,100.641,0,0,1,256,356.527Z" style="fill:#284268"/></svg>
