<svg id="Layer_1" height="512" viewBox="0 0 512 512" width="512" xmlns="http://www.w3.org/2000/svg" data-name="Layer 1"><path d="m205.51 357.38-128.63 128.62-25.33-127.52 47.91-47.91z" fill="#ccd3df"/><path d="m438.26 48.2v-.01a75.788 75.788 0 0 0 -107.17 0l-252.96 252.97 148.7 65.63 211.43-211.43a75.776 75.776 0 0 0 0-107.16z" fill="#4689d3"/><path d="m438.26 48.2v-.01a75.788 75.788 0 0 0 -107.17 0l-252.96 252.97 41.629 18.37 241.331-241.34a75.809 75.809 0 0 1 90.018-12.86 75.747 75.747 0 0 0 -12.848-17.13z" fill="#5fa8ed"/><path d="m127.211 322.819-27.751-12.249-47.91 47.91 25.33 127.52 23.371-23.37-18.701-94.15z" fill="#b0b5ca"/><path d="m385.92 100.53a30.546 30.546 0 0 1 0 43.2l-116.3 116.31a30.547 30.547 0 1 1 -43.2-43.2l116.3-116.31a30.546 30.546 0 0 1 43.2 0z" fill="#d8ff33"/><g fill="#284268"><path d="m442.5 43.952a81.871 81.871 0 0 0 -115.651 0l-252.962 252.964a6 6 0 0 0 1.819 9.731l13.312 5.875-41.713 41.713a6 6 0 0 0 -1.643 5.412l25.338 127.522a6 6 0 0 0 10.127 3.074l125.716-125.719 17.567 7.753a6 6 0 0 0 6.665-1.247l211.425-211.43a81.872 81.872 0 0 0 0-115.648zm-361.92 429.866-22.523-113.364 42.734-42.736 94.279 41.61zm353.437-322.7-208.517 208.521-136.934-60.433 246.768-246.768a69.779 69.779 0 0 1 98.683 98.681z"/><path d="m390.164 96.29a36.544 36.544 0 0 0 -51.684 0l-116.305 116.31a36.546 36.546 0 1 0 51.683 51.684l116.305-116.3a36.544 36.544 0 0 0 0-51.684zm-8.485 43.2-116.306 116.303a24.546 24.546 0 0 1 -34.714-34.713l116.307-116.3a24.543 24.543 0 0 1 34.712 0 24.547 24.547 0 0 1 0 34.713z"/><path d="m318.542 159.426-37.384 37.384a6 6 0 1 0 8.485 8.485l37.383-37.383a6 6 0 1 0 -8.484-8.486z"/></g></svg>