<svg id="Layer_1" height="512" viewBox="0 0 512 512" width="512" xmlns="http://www.w3.org/2000/svg" data-name="Layer 1"><path d="m243.3 86.34a19.784 19.784 0 0 0 -19.43 16.11v94.52a19.784 19.784 0 0 0 19.43 16.11h171.46a41.528 41.528 0 0 0 41.56-41.56v-45.39a9.841 9.841 0 0 1 2.23-6.23l27.45-33.56z" fill="#a0eaea"/><path d="m451.38 362.34v63.32h-120.69a31.66 31.66 0 0 1 0-63.32z" fill="#5fa8ed"/><path d="m410.82 243.21 20.77 119.13h-83.21s11.18-9.91 15.39-18.63c4.01-8.32 1.54-22.58 1.54-22.58l-16.93-67.06h-23.63v-40.99h90.01a41.176 41.176 0 0 0 6.52-.51l.08.51s-7.45 6.27-9.7 13.57a35.349 35.349 0 0 0 -.84 16.56z" fill="#fb6771"/><path d="m349.15 143.19v42.13h-38.58z" fill="#4689d3"/><path d="m349.15 114.1v29.09l-38.58 42.13h-42.53l65.22-71.22z" fill="#5fa8ed"/><path d="m333.26 114.1-65.22 71.22h-15.5v-29.09l39.57-42.13z" fill="#4689d3"/><path d="m292.11 114.1-39.57 42.13v-42.13z" fill="#5fa8ed"/><path d="m223.52 106.13a19.376 19.376 0 0 1 .35-3.68l-.35-.06h-30.01v94.64h30.01l.35-.06a19.376 19.376 0 0 1 -.35-3.68z" fill="#b0b5ca"/><path d="m193.51 123.99v51.44h-24.56v-5.72-20-20-5.72z" fill="#6d7486"/><path d="m129.73 110.14a39.57 39.57 0 1 0 0 79.14h39.22v-79.14z" fill="#b0b5ca"/><path d="m154 143.712a6 6 0 0 0 0 12h14.946v-12z" fill="#ccd3df"/><path d="m154 163.712a6 6 0 0 0 0 12h14.946v-12z" fill="#ccd3df"/><path d="m154 123.712a6 6 0 1 0 0 12h14.946v-12z" fill="#ccd3df"/><path d="m248.87 196.97a19.376 19.376 0 0 1 -.35-3.68v-87.16a19.376 19.376 0 0 1 .35-3.68 19.784 19.784 0 0 1 19.43-16.11h-25a19.784 19.784 0 0 0 -19.43 16.11 19.376 19.376 0 0 0 -.35 3.68v87.16a19.376 19.376 0 0 0 .35 3.68 19.784 19.784 0 0 0 19.43 16.11h25a19.784 19.784 0 0 1 -19.43-16.11z" fill="#88ced8"/><path d="m324.03 394a31.667 31.667 0 0 1 31.66-31.66h-25a31.66 31.66 0 0 0 0 63.32h25a31.667 31.667 0 0 1 -31.66-31.66z" fill="#4689d3"/><path d="m421.28 212.57a41.176 41.176 0 0 1 -6.52.51h6.6z" fill="#f9ed32"/><path d="m388.77 343.71c4.01-8.32 1.54-22.58 1.54-22.58l-16.93-67.06h-23.63v-40.99h-25v40.99h23.63l16.93 67.06s2.47 14.26-1.54 22.58c-4.21 8.72-15.39 18.63-15.39 18.63h25s11.18-9.91 15.39-18.63z" fill="#e75163"/><path d="m115.16 149.71a39.571 39.571 0 0 1 39.57-39.57h-25a39.57 39.57 0 1 0 0 79.14h25a39.562 39.562 0 0 1 -39.57-39.57z" fill="#6d7486"/><g fill="#284268"><path d="m491.422 83.774a6 6 0 0 0 -5.422-3.43h-242.695a25.821 25.821 0 0 0 -23.871 16.049h-25.921a6 6 0 0 0 -6 6v15.6h-12.567v-7.849a6 6 0 0 0 -6-6h-39.217a45.63 45.63 0 0 0 -45.164 39.57h-58.565a6 6 0 0 0 0 12h58.565a45.631 45.631 0 0 0 45.164 39.57h39.217a6 6 0 0 0 6-6v-7.849h12.567v15.6a6 6 0 0 0 6 6h25.921a25.823 25.823 0 0 0 23.871 16.049h75.448v34.992a6 6 0 0 0 6 6h18.952l15.731 62.288c.56 3.429 1.47 13.478-1.071 18.747-2.552 5.293-8.765 11.826-12.338 15.237h-15.339a37.656 37.656 0 0 0 0 75.312h120.688a6 6 0 0 0 6-6v-63.316a6 6 0 0 0 -6-6h-14.74l-19.907-114.168c-.016-.088-.041-.207-.059-.293a29.576 29.576 0 0 1 .73-13.469c1.307-4.25 5.523-8.679 7.461-10.423a47.635 47.635 0 0 0 37.461-46.47v-45.389a3.859 3.859 0 0 1 .869-2.436l27.453-33.552a6 6 0 0 0 .778-6.37zm-328.476 39.938h-8.946a6 6 0 1 0 0 12h8.946v8h-8.946a6 6 0 0 0 0 12h8.946v8h-8.946a6 6 0 0 0 0 12h8.946v7.57h-33.217a33.6 33.6 0 0 1 -33.539-32.32 5.985 5.985 0 0 0 0-2.5 33.6 33.6 0 0 1 33.539-32.32h33.217zm24.567 45.721h-12.567v-39.442h12.567zm30.007 21.6h-18.007v-82.64h18.007zm214.065 177.312h13.791v51.312h-114.688a25.656 25.656 0 0 1 0-51.312h100.9zm-7.13-12h-62.017a51.811 51.811 0 0 0 6.736-10.025c4.716-9.778 2.336-24.565 2.05-26.219-.027-.15-.058-.3-.095-.444l-16.2-64.05a9.971 9.971 0 0 0 -3.775-5.6 9.97 9.97 0 0 0 -5.89-1.928l-14.511-.006v-28.993h77.8a27.434 27.434 0 0 0 -2.623 5.809 41.665 41.665 0 0 0 -1 19.462zm29.445-240.245a15.894 15.894 0 0 0 -3.581 10.034v45.389a35.6 35.6 0 0 1 -35.558 35.559h-171.456a13.8 13.8 0 0 1 -13.785-13.782v-87.171a13.8 13.8 0 0 1 13.785-13.785h230.034z"/><path d="m252.538 191.325h96.616a6 6 0 0 0 6-6v-71.225a6 6 0 0 0 -6-6h-96.616a6 6 0 0 0 -6 6v71.226a6 6 0 0 0 6 5.999zm90.616-12h-18.954l18.952-20.7zm0-59.226v20.761l-35.221 38.465h-26.268l54.235-59.225zm-84.616 0h19.7l-19.7 20.98zm0 38.509 36.162-38.508h24.923l-54.223 59.225h-6.858z"/><path d="m380.2 131.825h45.388a6 6 0 1 0 0-12h-45.388a6 6 0 0 0 0 12z"/><path d="m380.2 155.6h45.388a6 6 0 0 0 0-12h-45.388a6 6 0 0 0 0 12z"/><path d="m380.2 179.6h45.388a6 6 0 0 0 0-12h-45.388a6 6 0 0 0 0 12z"/></g></svg>