<svg id="Layer_1" height="512" viewBox="0 0 512 512" width="512" xmlns="http://www.w3.org/2000/svg" data-name="Layer 1"><path d="m155.81 408.8-63.24 63.24-.93-.93-51.16-51.16 63.24-63.24 51.16 51.16z" fill="#e75163"/><path d="m92.57 472.04-2.02 2.01c-14.83 14.83-37.27 16.42-52.09 1.6a37.964 37.964 0 0 1 0-53.69l2.02-2.01 51.16 51.16z" fill="#4689d3"/><path d="m174 299.68 36.99 36.99c-24.3 0-42.13 21.51-42.13 45.81l-.01-.01a37.75 37.75 0 0 1 -11.03 24.31l-2.01 2.02-.93-.93-51.16-51.16 2.01-2.02a37.775 37.775 0 0 1 24.32-11.03l-.02-.01a43.949 43.949 0 0 0 43.97-43.97z" fill="#4689d3"/><path d="m227.35 321.34-38.03-38.03a9.947 9.947 0 0 0 -14.06 0l-1.79 1.78a9.947 9.947 0 0 0 0 14.06l.53.53 36.99 36.99.52.52a9.934 9.934 0 0 0 14.05 0l1.79-1.79a9.947 9.947 0 0 0 0-14.06z" fill="#4689d3"/><path d="m326.22 236.05-14.85 14.85h-.01l-64.48-38.72 14.14-14.14z" fill="#ccd3df"/><path d="m355.92 206.35-14.85 14.85-65.2-38.01 14.85-14.85z" fill="#ccd3df"/><path d="m385.61 176.65-14.84 14.85-65.2-38.01 14.85-14.85z" fill="#ccd3df"/><path d="m415.31 146.95-14.85 14.85-65.2-38.01 14.85-14.85z" fill="#ccd3df"/><path d="m445.01 117.25-14.85 14.85-65.2-38.01 14.85-14.85z" fill="#ccd3df"/><path d="m474.71 87.55-14.85 14.85-65.2-38.01 14.85-14.85z" fill="#ccd3df"/><g fill="#b0b5ca"><path d="m484.66 77.61-9.95 9.94-65.2-38.01 23.54-23.54z"/><path d="m459.86 102.4-14.85 14.85-65.2-38.01 14.85-14.85z"/><path d="m430.16 132.1-14.85 14.85-65.2-38.01 14.85-14.85z"/><path d="m400.46 161.8-14.85 14.85-65.19-38.01 14.84-14.85z"/><path d="m370.77 191.5-14.85 14.85-65.2-38.01 14.85-14.85z"/><path d="m341.07 221.2-14.85 14.85-65.2-38.01 14.85-14.85z"/><path d="m246.88 212.18 64.48 38.72-30.31 30.31-27.24-4.44-35.51 35.52-19.93-19.93 35.52-35.51-4.44-27.24z"/></g><path d="m61.48 439.95 62.74-62.74-20.5-20.5-63.24 63.24 20.499 20.499z" fill="#fb6771"/><path d="m59.46 441.96 1.519-1.511-20.5-20.5-2.02 2.01a38.337 38.337 0 0 0 -3.782 4.4 37.9 37.9 0 0 0 3.782 49.29l.019.018q.708.707 1.439 1.364c.126.113.257.217.384.328.375.329.751.655 1.135.964.124.1.251.192.376.29.395.31.792.617 1.2.907.1.076.213.146.319.22.431.3.866.6 1.306.881.079.051.159.1.238.147.473.3.95.584 1.432.855l.158.086c.514.285 1.032.558 1.554.814l.078.037q.825.4 1.662.757l.023.009q.861.363 1.734.676a37.968 37.968 0 0 1 7.944-42.042z" fill="#5fa8ed"/><path d="m162.583 329.251q-1.419 1.562-2.982 2.982-.781.709-1.595 1.382a44.083 44.083 0 0 1 -7.01 4.731q-1.869 1.016-3.844 1.851t-4.041 1.478a43.918 43.918 0 0 1 -10.817 1.918q-1.125.057-2.264.057l.02.01q-.831.054-1.659.145a37.83 37.83 0 0 0 -9.725 2.4q-.786.308-1.56.653-1.546.689-3.042 1.524a37.991 37.991 0 0 0 -8.334 6.312l-2.01 2.02 20.5 20.5.5-.5 2.01-2.02a37.775 37.775 0 0 1 24.32-11.03l-.02-.01a43.786 43.786 0 0 0 26.291-8.714l.007-.009a44.862 44.862 0 0 1 5.727-6.786l.215-.208q.547-.524 1.114-1.027l.29-.255q.564-.493 1.143-.967c.087-.071.176-.139.264-.209.409-.328.822-.652 1.243-.964a43.759 43.759 0 0 0 7.657-23.85l-20.981-20.985a43.814 43.814 0 0 1 -11.417 29.571z" fill="#5fa8ed"/><path d="m437.3 21.757a6 6 0 0 0 -8.486 0l-203.608 203.606a6 6 0 0 0 -1.68 5.208l3.946 24.208-29.1 29.1-4.812-4.812a15.939 15.939 0 0 0 -22.542 0l-1.786 1.786a15.911 15.911 0 0 0 -1.3 21.048 38.015 38.015 0 0 1 -37.9 35.747 6.011 6.011 0 0 0 -.763.049 43.921 43.921 0 0 0 -27.778 12.752l-67.274 67.27a43.959 43.959 0 0 0 0 62.17 40.412 40.412 0 0 0 28.788 12.111q.874 0 1.756-.038a45.39 45.39 0 0 0 30.03-13.662l67.271-67.271a43.916 43.916 0 0 0 12.754-27.8 5.937 5.937 0 0 0 .046-.745c0-21.134 15.027-38.467 33.926-39.729a15.909 15.909 0 0 0 21.019-1.323l1.787-1.787a15.937 15.937 0 0 0 0-22.541l-4.812-4.812 29.1-29.1 24.207 3.944a6 6 0 0 0 5.207-1.679l30.223-30.223 14.881-14.881.03-.03 14.816-14.816.038-.038 14.816-14.817.024-.024 14.822-14.822.032-.032 14.82-14.82.024-.025 14.822-14.821.032-.033 14.817-14.816.033-.034 14.819-14.818.026-.027 14.82-14.819.034-.035 14.812-14.811.042-.043 14.811-14.812.028-.028 9.983-9.984a6 6 0 0 0 0-8.485zm-373.053 458.217a28.552 28.552 0 0 1 -21.547-8.574 31.967 31.967 0 0 1 -2.121-42.862l43.4 43.4a32.861 32.861 0 0 1 -19.732 8.036zm28.315-16.42-43.6-43.6 54.761-54.759 43.605 43.6zm70.3-81.416a31.911 31.911 0 0 1 -7.169 18.058l-43.378-43.378a31.918 31.918 0 0 1 18.075-7.172 50.059 50.059 0 0 0 47.936-37.157l20.013 20.011c-20.32 5.97-35.331 25.935-35.476 49.638zm60.246-50.982-1.788 1.787a4.033 4.033 0 0 1 -5.569 0l-38.035-38.035a3.938 3.938 0 0 1 0-5.571l1.785-1.786a4.034 4.034 0 0 1 5.571 0l38.035 38.034a3.939 3.939 0 0 1 0 5.571zm55.876-56.356-24.207-3.944a6 6 0 0 0 -5.207 1.679l-31.27 31.265-11.44-11.44 31.27-31.27a6 6 0 0 0 1.68-5.207l-3.946-24.208 11.941-11.941 53.888 32.352zm31.455-31.454-53.888-32.352 5.44-5.441 54.479 31.761zm14.806-14.806-54.479-31.761 6.074-6.075 54.479 31.761zm14.849-14.85-54.479-31.761 6.075-6.074 54.478 31.761zm14.849-14.849-54.479-31.761 6.075-6.08 54.479 31.762zm14.849-14.849-54.478-31.761 6.074-6.075 54.479 31.762zm14.849-14.849-54.478-31.761 6.074-6.075 54.479 31.762zm14.85-14.85-54.478-31.761 6.074-6.074 54.478 31.761zm14.849-14.849-54.479-31.761 6.075-6.074 54.479 31.761zm14.849-14.849-54.478-31.766 6.074-6.075 54.479 31.762zm14.85-14.849-54.479-31.766 6.075-6.075 54.478 31.761zm14.849-14.849-54.479-31.766 6.075-6.075 54.478 31.761zm14.849-14.85-54.478-31.766 13.8-13.8 43.119 43.12z" fill="#284268"/></svg>