<svg id="Layer_1" height="512" viewBox="0 0 512 512" width="512" xmlns="http://www.w3.org/2000/svg" data-name="Layer 1"><path d="m424.058 153.287h41.203v21.015h-41.203z" fill="#6d7486" transform="matrix(.707 -.707 .707 .707 14.383 362.322)"/><path d="m356.94 58.47a110.846 110.846 0 0 0 -156.76 156.76l89.1 89.09 18.03-18.04-88.36-88.36a85.341 85.341 0 1 1 120.69-120.69l88.36 88.36 18.04-18.03z" fill="#ccd3df"/><path d="m284.915 292.433h41.2v21.019h-41.2z" fill="#6d7486" transform="matrix(.707 -.707 .707 .707 -124.729 304.835)"/><path d="m179.99 292.993h91.57v25.145h-91.57z" fill="#6d7486" transform="matrix(.707 -.707 .707 .707 -149.939 249.145)"/><path d="m207.8 352.34a12.51 12.51 0 0 1 -16.74 18.55 12.714 12.714 0 0 1 -.95-.86l-28.8-28.8a12.714 12.714 0 0 1 -.86-.95 12.51 12.51 0 0 1 18.55-16.74l5.51 5.51 17.78 17.78z" fill="#a0eaea"/><path d="m191.06 370.89-.23.57s-9.74 29.2-39.62 59.07c-30.18 30.19-54.65 35.2-54.65 35.2l-.07.05a13.25 13.25 0 0 0 -1-1.13l-28.8-28.8a13.25 13.25 0 0 0 -1.13-1l.05-.07s5.01-24.47 35.2-54.65c29.87-29.88 59.07-39.62 59.07-39.62l.57-.23a12.714 12.714 0 0 0 .86.95l28.8 28.8a12.714 12.714 0 0 0 .95.86z" fill="#d8a43d"/><path d="m96.49 465.78a12.509 12.509 0 0 1 -18.69 16.56l-28.8-28.8a12.509 12.509 0 0 1 16.56-18.69 13.25 13.25 0 0 1 1.13 1l28.8 28.8a13.25 13.25 0 0 1 1 1.13z" fill="#a0eaea"/><g fill="#edb740"><path d="m191.06 370.89a12.714 12.714 0 0 1 -.95-.86l.924.924z"/><path d="m120.81 400.13c29.87-29.88 59.07-39.62 59.07-39.62l.506-.2-19.076-19.08a12.714 12.714 0 0 1 -.86-.95l-.57.23s-29.2 9.74-59.07 39.62c-30.19 30.18-35.2 54.65-35.2 54.65l-.05.07a13.25 13.25 0 0 1 1.13 1l18.922 18.922c.036-.172 5.117-24.572 35.198-54.642z"/><path d="m95.49 464.65a13.25 13.25 0 0 1 1 1.13l.07-.05h.008z"/></g><path d="m456.039 137.554a6 6 0 0 0 -8.485 0l-1.518 1.518-84.849-84.848a116.846 116.846 0 1 0 -165.245 165.245l44.834 44.831-56.266 56.27-1.268-1.268a18.507 18.507 0 0 0 -31.592 13.086 18.581 18.581 0 0 0 .616 4.681c-10.239 4.416-32.716 15.83-55.7 38.815-21.871 21.872-31.079 40.969-34.7 50.757a18.656 18.656 0 0 0 -4.02-.451 18.507 18.507 0 0 0 -13.086 31.593l28.8 28.8a18.507 18.507 0 0 0 31.592-13.086 18.656 18.656 0 0 0 -.45-4.02c9.788-3.62 28.885-12.827 50.757-34.7 22.984-22.984 34.4-45.461 38.815-55.7a18.581 18.581 0 0 0 4.681.616 18.506 18.506 0 0 0 13.084-31.593l-1.268-1.268 56.266-56.266 13.753 13.753-1.518 1.517a6 6 0 0 0 0 8.486l14.863 14.863a6 6 0 0 0 8.486 0l29.134-29.135a6 6 0 0 0 0-8.485l-3.189-3.189 101.528-101.528 3.188 3.189a6 6 0 0 0 8.486 0l29.132-29.137a6 6 0 0 0 0-8.485zm-364.794 340.54a6.506 6.506 0 0 1 -9.2 0l-28.8-28.8a6.506 6.506 0 1 1 9.2-9.2l28.8 28.8a6.508 6.508 0 0 1 0 9.2zm55.727-51.8c-22.412 22.412-41.547 30.338-48.665 32.695l-25.951-25.955c2.356-7.118 10.283-26.253 32.7-48.665 23.109-23.11 45.986-33.819 53.857-37.058l25.127 25.128c-3.22 7.861-13.858 30.641-37.068 53.851zm56.582-60.5a6.505 6.505 0 0 1 -9.2 0l-28.8-28.8a6.506 6.506 0 1 1 9.2-9.2l28.8 28.8a6.515 6.515 0 0 1 0 9.191zm-1.268-27.439-9.286-9.3 56.266-56.266 9.291 9.291zm96.092-21.89-6.378-6.387 20.649-20.649 6.378 6.378zm21.7-36.566-3.189-3.189a6 6 0 0 0 -8.485 0l-1.1 1.1-84.121-84.121a79.343 79.343 0 0 1 112.217-112.219l84.121 84.121-1.1 1.1a6 6 0 0 0 0 8.486l3.189 3.189zm107.922-122.799-84.12-84.12a91.343 91.343 0 1 0 -129.18 129.184l84.121 84.12-9.549 9.549-84.848-84.849a104.846 104.846 0 1 1 148.276-148.275l84.849 84.848zm9.523 20.2-6.378-6.378 20.655-20.64 6.378 6.378z" fill="#284268"/></svg>