<svg id="Layer_1" height="512" viewBox="0 0 512 512" width="512" xmlns="http://www.w3.org/2000/svg" data-name="Layer 1"><path d="m482.9 134.09a10.562 10.562 0 0 1 0 14.95l-24.71 24.71-7.47-7.47-7.48-7.47 5.18-5.17 17.24-17.24 2.3-2.31a10.574 10.574 0 0 1 14.94 0z" fill="#fb6771"/><path d="m465.66 136.4-17.24 17.24-.1-.1-48.86-48.86a16.272 16.272 0 0 0 -22.99 0l-142.93 142.93a16.272 16.272 0 0 0 0 22.99l48.86 48.86.1.1-17.25 17.24-.09-.09-53.65-53.65a32.32 32.32 0 0 1 -5.71-7.7l-44.49 44.48-16.28-16.28 220.91-220.91a32.507 32.507 0 0 1 45.98 0l53.64 53.65z" fill="#6d7486"/><path d="m302.42 329.52-24.71 24.72a10.571 10.571 0 0 1 -14.95-14.95l2.49-2.49 17.25-17.24 4.98-4.98 7.47 7.47z" fill="#fb6771"/><path d="m165.57 324.1-24.8-24.8a10.766 10.766 0 0 0 -16.08 14.26 9.784 9.784 0 0 0 .86.97l24.79 24.8a9.888 9.888 0 0 0 .98.86 10.766 10.766 0 0 0 14.25-16.09z" fill="#ffc85a"/><path d="m151.32 340.19-.05.06s-8.39 25.14-34.11 50.87c-25.99 25.98-47.06 30.3-47.06 30.3l-.06.05a9.888 9.888 0 0 0 -.86-.98l-24.8-24.79a9.888 9.888 0 0 0 -.98-.86l.05-.07s4.32-21.07 30.31-47.05c25.72-25.73 50.86-34.11 50.86-34.11l.07-.05a9.784 9.784 0 0 0 .86.97l24.79 24.8a9.888 9.888 0 0 0 .98.86z" fill="#d8a43d"/><path d="m70.04 421.47a10.767 10.767 0 0 1 -16.09 14.25l-24.8-24.8a10.762 10.762 0 0 1 14.25-16.08 9.888 9.888 0 0 1 .98.86l24.8 24.79a9.888 9.888 0 0 1 .86.98z" fill="#ffc85a"/><path d="m69.209 420.523a9.846 9.846 0 0 1 .831.947l.06-.05h.005z" fill="#f9ed32"/><path d="m151.268 340.255.05-.06a9.846 9.846 0 0 1 -.947-.831z" fill="#f9ed32"/><g fill="#edb740"><path d="m93.76 367.72c25.72-25.73 50.86-34.11 50.86-34.11l-19.07-19.08a9.784 9.784 0 0 1 -.86-.97l-.07.05s-25.14 8.38-50.86 34.11c-25.99 25.98-30.31 47.05-30.31 47.05l-.05.07a9.888 9.888 0 0 1 .98.86l19.071 19.064c.028-.135 4.402-21.147 30.309-47.044z"/><path d="m151.269 340.252.05-.06a9.977 9.977 0 0 1 -.915-.8z"/><path d="m69.238 420.556a9.972 9.972 0 0 1 .8.914l.06-.05z"/></g><path d="m436.01 183.57a10.767 10.767 0 0 1 0 15.24l-1.39 1.39v13.02l-13.22.2v13.02l-13.22.2v13.02l-13.22.2v13.02l-13.22.2v13.02l-13.22.2v13.02l-13.22.2v13.02l-13.22.2v13.02h-13.02l-1.39 1.39a10.773 10.773 0 0 1 -15.24-15.23l108.35-108.35a10.789 10.789 0 0 1 13.83-1.18 11.078 11.078 0 0 1 1.4 1.18z" fill="#ccd3df"/><path d="m487.147 129.853a16.536 16.536 0 0 0 -21.314-1.773l-49.672-49.672a38.56 38.56 0 0 0 -54.468 0l-216.665 216.666-.012-.012a16.769 16.769 0 0 0 -28.625 11.857 16.935 16.935 0 0 0 .347 3.4c-9.288 4.121-28.062 14-47.223 33.159-18.426 18.422-26.493 34.622-29.815 43.333a16.871 16.871 0 0 0 -2.931-.269 16.768 16.768 0 0 0 -11.857 28.625l24.8 24.794a16.768 16.768 0 0 0 28.618-11.861 16.977 16.977 0 0 0 -.268-2.931c8.709-3.323 24.912-11.39 43.338-29.815 19.161-19.161 29.037-37.936 33.158-47.224a16.87 16.87 0 0 0 3.4.347 16.768 16.768 0 0 0 11.857-28.625l-.012-.011 35.118-35.117q1.114 1.335 2.352 2.573l49.646 49.646a16.558 16.558 0 0 0 25.036 21.532l24.716-24.715a6 6 0 0 0 0-8.486l-3.23-3.229 8.091-8.091a16.749 16.749 0 0 0 20-2.2h10.552a6 6 0 0 0 6-6v-7.113l7.308-.107a6 6 0 0 0 5.912-6v-7.113l7.308-.108a6 6 0 0 0 5.912-6v-7.114l7.308-.106a6 6 0 0 0 5.912-6v-7.113l7.308-.108a6 6 0 0 0 5.912-6v-7.113l7.308-.108a6 6 0 0 0 5.912-6v-7.113l7.308-.108a6 6 0 0 0 5.912-6v-7.113l7.308-.108a6 6 0 0 0 5.912-6v-10.54a16.789 16.789 0 0 0 2.2-20l7.9-7.9 3.23 3.23a6 6 0 0 0 8.485 0l24.715-24.716a16.584 16.584 0 0 0 -.007-23.43zm-422.213 301.623a4.767 4.767 0 0 1 -6.743 0l-24.791-24.794a4.768 4.768 0 1 1 6.743-6.743l24.795 24.794a4.775 4.775 0 0 1 -.004 6.743zm47.981-44.6c-18.7 18.7-34.707 25.6-41.087 27.784l-21.628-21.635c2.132-6.326 8.923-22.186 27.8-41.067 18.945-18.945 37.7-28.155 45.155-31.33l21.1 21.1c-3.155 7.432-12.3 26.104-31.34 45.145zm48.41-51.789a4.767 4.767 0 0 1 -6.743 0l-24.794-24.797a4.768 4.768 0 0 1 6.743-6.743l20.539 20.54 4.254 4.254a4.772 4.772 0 0 1 .001 6.743zm112.14 14.91a4.567 4.567 0 1 1 -6.459-6.459l20.473-20.473 6.458 6.459zm158.305-155.434-1.391 1.39a6 6 0 0 0 -1.757 4.243v7.113l-7.309.108a6 6 0 0 0 -5.911 6v7.113l-7.309.108a6 6 0 0 0 -5.911 6v7.113l-7.308.107a6 6 0 0 0 -5.912 6v7.113l-7.309.108a6 6 0 0 0 -5.911 6v7.113l-7.308.107a6 6 0 0 0 -5.912 6v7.113l-7.309.108a6 6 0 0 0 -5.911 6v7.113l-7.309.108a6 6 0 0 0 -5.911 6v7.026h-7.026a6 6 0 0 0 -4.243 1.757l-1.39 1.391a4.77 4.77 0 1 1 -6.746-6.747l108.345-108.352a4.771 4.771 0 0 1 6.748 6.747zm1.57-19.388a16.779 16.779 0 0 0 -16.8 4.156l-108.348 108.347a16.795 16.795 0 0 0 -4.169 16.813l-9.072 9.072-3.23-3.229a6 6 0 0 0 -8.485 0l-.739.739-44.71-44.711a10.258 10.258 0 0 1 0-14.506l142.929-142.929a10.256 10.256 0 0 1 14.506 0l44.711 44.711-.931.93a6 6 0 0 0 0 8.485l3.23 3.23zm15.078-30.023-44.71-44.711a22.285 22.285 0 0 0 -31.477 0l-142.931 142.93a22.258 22.258 0 0 0 0 31.477l44.71 44.71-8.758 8.758-49.5-49.5a26.514 26.514 0 0 1 -4.592-6.151 6.13 6.13 0 0 0 -.5-.815 6 6 0 0 0 -7.552-1.858l-41.8 41.367-7.8-7.8 216.671-216.665a26.544 26.544 0 0 1 37.5 0l49.5 49.5zm30.244-.356-20.473 20.474-6.459-6.459 20.47-20.474a4.567 4.567 0 1 1 6.459 6.459z" fill="#284268"/></svg>