<svg id="Layer_1" height="512" viewBox="0 0 512 512" width="512" xmlns="http://www.w3.org/2000/svg" data-name="Layer 1"><path d="m471.62 88.07-9.85 9.86-15.49 15.49-12.67 12.67 14.37 14.37 38.02-38.01z" fill="#b0b5ca"/><path d="m461.77 97.93-15.49 15.49-.41-.41-28.1-28.11a61.792 61.792 0 0 0 -87.37 0l-167.62 167.63-.21.38a29.244 29.244 0 0 0 -31.47 1.73l184.81-184.81a83.266 83.266 0 0 1 117.76 0z" fill="#6d7486"/><path d="m208.36 380.09c.3 5.31.44 8.54.44 8.54a29.239 29.239 0 0 1 -8.21 25.26l-52.67 52.67s-18.46-1.84-22.08-7.9c-2.86-4.8.38-23.94-3.62-30.5-4.94-8.12-17.58-9.73-26.36-27.4-5.74-11.53-5.29-31.69-11.54-36.25-11.5-8.38-47.5 14.9-58.32 2.98 0 0 12.9-32.49 45.36-50.78 1.62-.92 31.87-34.51 56.05-58.92a29.262 29.262 0 0 1 35.16-4.88 28.821 28.821 0 0 1 6.29 4.78s23.77 28.21 27.8 38.14c4.77 11.73 7.86 36.47 9.74 57.46.94 10.62 1.58 20.28 1.96 26.8zm-38.76 17.07c9.92-9.92 3.75-42.52-4.44-57.67-7-14.1-30.36-43.65-45.47-28.53a18.118 18.118 0 0 0 -5.01 9.5 16.869 16.869 0 0 0 1.23 10.66c4.18 7.09 10.69 15.27 15.68 26.19 5.69 12.45 7.61 24.08 10.23 32.64a16.648 16.648 0 0 0 27.78 7.21z" fill="#49c160"/><path d="m91.36 336.71c1.62-.92 31.87-34.51 56.05-58.92a29.245 29.245 0 0 1 32.826-6.052c-6.042-7.717-11.376-14.048-11.376-14.048a28.821 28.821 0 0 0 -6.29-4.78 29.262 29.262 0 0 0 -35.16 4.88c-24.18 24.41-54.43 58-56.05 58.92-32.46 18.29-45.36 50.78-45.36 50.78 5.944 6.548 19.485 2.475 32.391-1.138a106.649 106.649 0 0 1 32.969-29.642z" fill="#50dd5a"/><path d="m225.42 334.27-19.02 19.02c.94 10.62 1.58 20.28 1.96 26.8l31.44-31.44z" fill="#b0b5ca"/><g fill="#284268"><path d="m155.863 315.963c-8.039-8.692-15.846-13.711-23.206-14.917a19.14 19.14 0 0 0 -17.209 5.669 24.064 24.064 0 0 0 -6.663 12.636c-1.207 6.44.3 12.009 1.959 14.821 1.44 2.442 3.1 4.942 4.853 7.588a129.863 129.863 0 0 1 10.533 18.04c3.792 8.3 5.832 16.29 7.632 23.338.777 3.04 1.51 5.912 2.322 8.565a22.869 22.869 0 0 0 16.4 15.689 22.337 22.337 0 0 0 21.361-5.995c13.247-13.248 4.745-49.6-3.361-64.67a96.217 96.217 0 0 0 -14.621-20.764zm9.5 76.95a10.32 10.32 0 0 1 -9.975 2.836 10.969 10.969 0 0 1 -7.827-7.56c-.729-2.382-1.429-5.121-2.169-8.02-1.829-7.161-4.106-16.074-8.343-25.353a139.79 139.79 0 0 0 -11.449-19.69c-1.665-2.509-3.238-4.879-4.492-7.006a11.675 11.675 0 0 1 -.525-6.559 12.115 12.115 0 0 1 3.354-6.361 7.272 7.272 0 0 1 5.349-2.434 8.889 8.889 0 0 1 1.433.122c10.2 1.671 23.659 18.366 29.066 29.267.031.063.064.125.1.187 7.941 14.695 12.192 43.858 5.475 50.571z"/><path d="m475.866 83.828a6 6 0 0 0 -8.485 0l-5.614 5.613-23.856-23.857a89.367 89.367 0 0 0 -126.241 0l-184.452 184.452a35.851 35.851 0 0 0 -4.07 3.531c-14.012 14.149-29.824 31.12-41.37 43.512-6.29 6.751-12.251 13.148-13.861 14.686-33.557 19.157-46.938 52.113-47.494 53.513a6 6 0 0 0 1.136 6.248c8.246 9.077 22.965 4.945 37.2.952 7.564-2.123 18.991-5.33 22.006-3.133 1.617 1.4 3.152 9.338 4.068 14.083 1.278 6.618 2.728 14.12 5.655 20.008 6.045 12.157 13.942 17.724 19.708 21.788 3.146 2.218 5.631 3.969 6.9 6.059 1.3 2.128 1.339 9.781 1.365 14.354.045 7.744.176 12.665 2.225 16.1 4.659 7.808 20.18 10.151 26.637 10.8a5.995 5.995 0 0 0 4.839-1.727l52.669-52.67a35.344 35.344 0 0 0 9.94-30.1c-.036-.817-.126-2.778-.279-5.6l29.545-29.545a6 6 0 0 0 0-8.485l-2.937-2.95 199.7-199.7 2.945 2.946a6 6 0 0 0 8.486 0l38.016-38.017a6 6 0 0 0 0-8.485zm-279.516 325.82-50.6 50.6c-6.694-.984-13.361-3.037-14.708-4.6-.529-1.555-.558-6.666-.578-10.077-.043-7.647-.089-15.555-3.117-20.528-2.57-4.218-6.3-6.844-10.238-9.624-5.242-3.695-11.183-7.883-15.877-17.323-2.2-4.425-3.429-10.788-4.618-16.941-1.822-9.43-3.395-17.575-8.759-21.487-7.739-5.644-19.689-2.291-32.339 1.259-7.156 2.008-16.37 4.593-21.647 3.96 4.835-9.333 17.546-30.051 40.439-42.948 1.348-.76 1.974-1.357 16.249-16.677 11.493-12.335 27.234-29.229 41.116-43.247a23.074 23.074 0 0 1 16.452-6.886h.059a23.082 23.082 0 0 1 16.262 6.638c8.973 10.667 23.994 29.774 26.655 36.323 8.64 21.273 11.669 90.1 11.7 90.8a5.843 5.843 0 0 0 .069.685 23.307 23.307 0 0 1 -6.52 20.073zm17.134-43.171c-.247-3.413-.534-7.089-.863-10.919l12.8-12.8 5.891 5.891zm215.881-236.148 2.945 2.946-199.7 199.7-2.945-2.946a6 6 0 0 0 -8.486 0l-10.056 10.056c-1.964-18.017-4.838-36.5-8.9-46.513-4.268-10.507-26.274-36.784-28.77-39.746-.11-.131-.225-.256-.346-.377-.462-.462-.937-.907-1.42-1.34l162.959-162.962a55.841 55.841 0 0 1 78.881 0l24.267 24.267-8.429 8.43a6 6 0 0 0 0 8.485zm-7.353-49.667a67.855 67.855 0 0 0 -95.851 0l-164.941 164.938a34.757 34.757 0 0 0 -10.233-2.363l169.169-169.168a77.353 77.353 0 0 1 109.269 0l23.857 23.858-7 7zm25.972 51.316-5.891-5.892 23.915-23.914 5.612-5.611 5.891 5.891z"/></g></svg>