<svg id="Layer_1" height="512" viewBox="0 0 512 512" width="512" xmlns="http://www.w3.org/2000/svg" data-name="Layer 1"><path d="m480.49 206.26a20.008 20.008 0 0 1 0 28.29l-63.39 63.39a20 20 0 0 1 -28.28 0l-2.4-2.4a20.008 20.008 0 0 1 0-28.29l1.16-1.16 61.06-61.06 1.17-1.17a20 20 0 0 1 28.28 0z" fill="#ccd3df"/><path d="m448.64 205.03-61.06 61.06c-2.86-7.48-31.75-36.77-39.89-39.9l61.06-61.05c3.13 8.14 32.42 37.03 39.89 39.89z" fill="#b0b5ca"/><path d="m355.2 95.93-76.71 76.72 61.37 61.37 76.72-76.71z" fill="#ccd3df"/><path d="m347.37 103.76-61.05 61.06c-3.13-8.14-32.4-37.01-39.89-39.89l61.05-61.06c2.86 7.47 31.74 36.75 39.89 39.89z" fill="#b0b5ca"/><path d="m286.67 180.83 43.99 43.99q-7.77 7.2-15.47 14.85h-.01l-43.41-43.42q7.62-7.725 14.9-15.42z" fill="#6d7486"/><path d="m270.561 190.613h27.478v75.194h-27.478z" fill="#b0b5ca" transform="matrix(.707 -.707 .707 .707 -78.099 267.872)"/><path d="m308.65 34.42a20 20 0 0 1 0 28.28l-1.17 1.17-61.05 61.06h-.01l-1.16 1.17a20.008 20.008 0 0 1 -28.29 0l-2.4-2.41a20 20 0 0 1 0-28.28l63.39-63.39a20.008 20.008 0 0 1 28.29 0z" fill="#ccd3df"/><path d="m252.29 215.63 43.68 43.68c-26.29 27.64-52.76 58.39-80.96 90.36-37.04 41.98-69.48 82.91-97.8 121.62-1.81 2.03-12.82 14-31.16 14.53a43.216 43.216 0 0 1 -31.95-12.69l-15.74-15.74a43.4 43.4 0 0 1 1.84-63.11c39.06-29.18 81.63-60.12 123.66-97.29 31.42-27.77 61.2-54.81 88.43-81.36z" fill="#d8a43d"/><path d="m163.86 296.99c-42.03 37.17-84.6 68.11-123.66 97.29a43.4 43.4 0 0 0 -1.84 63.11l15.74 15.74c.421.421.854.821 1.287 1.221.306.28.614.557.925.828a43.393 43.393 0 0 1 3.888-60.9c39.06-29.18 81.63-60.12 123.66-97.29 31.42-27.77 61.2-54.81 88.43-81.36l-20-20c-27.23 26.551-57.01 53.591-88.43 81.361z" fill="#edb740"/><path d="m482.334 199.619a26.033 26.033 0 0 0 -34.514-2c-8.062-5.859-25.555-23.338-31.556-31.512l4.556-4.556a6 6 0 0 0 0-8.486l-61.373-61.374a6 6 0 0 0 -8.485 0l-4.556 4.556c-8.174-6-25.652-23.493-31.512-31.556a26.034 26.034 0 0 0 -2-34.514l-2.4-2.4a26.028 26.028 0 0 0 -36.769 0l-63.396 63.39a26.03 26.03 0 0 0 0 36.769l2.4 2.4a26.027 26.027 0 0 0 34.514 2c8.063 5.86 25.556 23.338 31.557 31.512l-4.556 4.556a6 6 0 0 0 0 8.485l4.041 4.041q-3.225 3.364-6.561 6.789l-.054-.054a6 6 0 0 0 -8.485 0l-19.425 19.435a6 6 0 0 0 -.015 8.468c-23 22.257-49.123 46.221-83.858 76.937-37.053 32.759-74.027 60.287-109.787 86.909q-6.809 5.067-13.491 10.055-.206.153-.4.324a49.4 49.4 0 0 0 -2.1 71.837l15.742 15.742a48.9 48.9 0 0 0 34.875 14.469q.745 0 1.5-.022c19.767-.577 32.144-12.81 35.466-16.545q.191-.215.36-.445c30.5-41.687 63.285-82.46 97.45-121.187q8.772-9.942 17.334-19.713c20.485-23.334 39.91-45.44 59.26-66.01l.832.832a6 6 0 0 0 8.486 0l19.426-19.426a6 6 0 0 0 0-8.486l-1.132-1.131q3.442-3.35 6.812-6.538l5.1 5.1a6 6 0 0 0 8.485 0l4.556-4.556c8.174 6 25.653 23.494 31.512 31.556a26.034 26.034 0 0 0 2 34.514l2.4 2.4a26.03 26.03 0 0 0 36.77 0l63.392-63.392a26.031 26.031 0 0 0 0-36.77zm-241.318-77.766a14.017 14.017 0 0 1 -19.8 0l-2.4-2.4a14.017 14.017 0 0 1 0-19.8l63.39-63.393a14.018 14.018 0 0 1 19.8 0l2.4 2.4a14.014 14.014 0 0 1 0 19.8zm14.861 2.109 50.639-50.639a210.328 210.328 0 0 0 31.407 31.407l-50.639 50.639a210.186 210.186 0 0 0 -31.407-31.407zm-28.056 202.05q-8.559 9.751-17.315 19.692c-34.338 38.922-67.3 79.9-97.958 121.8a38.3 38.3 0 0 1 -26.669 12.324 37.041 37.041 0 0 1 -27.535-10.937l-15.744-15.746a37.4 37.4 0 0 1 1.4-54.221q6.569-4.906 13.264-9.885c35.955-26.77 73.135-54.451 110.566-87.55 34.945-30.9 61.229-55.014 84.394-77.439l35.379 35.379c-19.565 20.794-39.138 43.071-59.782 66.583zm73.353-69.989-44.686-44.686 10.941-10.94 44.686 44.685zm14.051-24.8-35.013-35.013q3.332-3.418 6.561-6.788l35.262 35.261q-3.367 3.19-6.81 6.539zm28.156-9.2-.02.019-3.5 3.5-52.887-52.892 3.5-3.5.018-.019 64.713-64.713 52.887 52.888-3.5 3.5-.019.019zm13.762 3.208 50.638-50.638a210.328 210.328 0 0 0 31.407 31.407l-50.638 50.634a210.328 210.328 0 0 0 -31.407-31.407zm119.108 5.079-63.391 63.39a14.017 14.017 0 0 1 -19.8 0l-2.4-2.4a14 14 0 0 1 0-19.8l63.39-63.4a14 14 0 0 1 19.8 0l2.4 2.4a14.017 14.017 0 0 1 .001 19.806z" fill="#284268"/></svg>