<svg id="Layer_1" height="512" viewBox="0 0 512 512" width="512" xmlns="http://www.w3.org/2000/svg" data-name="Layer 1"><path d="m486.04 219.79-73.91 73.91-28.43-28.42 8.5-8.51 56.88-56.88h.01l8.52-8.53z" fill="#ccd3df"/><path d="m449.08 199.89-56.88 56.88c-4.45-29.56-19.09-43.45-46.88-46.93l56.86-56.86c3.48 27.79 17.34 42.46 46.9 46.91z" fill="#b0b5ca"/><path d="m300.092 112.778h90.457v80.409h-90.457z" fill="#ccd3df" transform="matrix(.707 -.707 .707 .707 -7.023 289.013)"/><path d="m339.74 101.71-45.69 45.69-58.02-76.09a19.708 19.708 0 0 1 27.62-27.62z" fill="#b0b5ca"/><path d="m192.955 221.429h141.036v26.803h-141.036z" fill="#b0b5ca" transform="matrix(.707 -.707 .707 .707 -88.881 255.083)"/><path d="m185.18 256.27-147.51 147.5a40 40 0 0 0 0 56.57l.29.29a40 40 0 0 0 56.57 0l147.51-147.51z" fill="#fb6771"/><path d="m205.18 276.27-20-20-147.51 147.5a40 40 0 0 0 0 56.57l.29.29a39.9 39.9 0 0 0 11.623 8.087 40.014 40.014 0 0 1 8.087-44.947z" fill="#e75163"/><path d="m257.77 65.43a19.715 19.715 0 0 1 25.88-1.74l56.09 38.02-76.09-58.02a19.708 19.708 0 0 0 -27.62 27.62l58.02 76.09-38.02-56.09a19.7 19.7 0 0 1 1.74-25.88z" fill="#ccd3df"/><path d="m461.856 187.118a6 6 0 0 0 -8.485 0l-6.345 6.345c-23.492-4.261-34.882-15.614-38.484-38.36l1.432-1.432a6 6 0 0 0 0-8.485l-56.857-56.857a6 6 0 0 0 -8.486 0l-5.431 5.428-71.909-54.837a25.709 25.709 0 0 0 -36.032 36.033l54.835 71.913-5.427 5.427a6 6 0 0 0 0 8.486l14.71 14.709-91.244 91.244-14.71-14.71a6 6 0 0 0 -8.485 0l-147.507 147.508a46.052 46.052 0 0 0 0 65.057l.289.288a46 46 0 0 0 65.05 0l147.51-147.51a6 6 0 0 0 0-8.485l-14.709-14.71 91.244-91.244 14.709 14.71a6 6 0 0 0 8.486 0l1.431-1.432c22.725 3.6 34.07 15 38.332 38.512l-6.316 6.317a6 6 0 0 0 0 8.485l28.428 28.429a6 6 0 0 0 8.486 0l73.914-73.915a6 6 0 0 0 0-8.485zm-221.056-119.441a13.709 13.709 0 0 1 19.214-19.215l70.627 53.856-35.985 35.982zm-7.249 245.446-143.263 143.264a34 34 0 0 1 -48.083 0l-.286-.285a34.037 34.037 0 0 1 0-48.083l143.262-143.269zm-10.467-27.438-10.467-10.467 91.244-91.244 10.467 10.467zm118.682-80.777-48.366-48.372 55.479-55.479 48.372 48.372zm15.78 1.19 40.888-40.887c5.382 20.083 17.907 32.51 38.581 38.263l-41.23 41.226c-5.751-20.685-18.17-33.218-38.238-38.6zm54.581 79.121-19.943-19.944 65.429-65.429 19.943 19.944z" fill="#284268"/></svg>