<svg id="Layer_1" height="512" viewBox="0 0 512 512" width="512" xmlns="http://www.w3.org/2000/svg" data-name="Layer 1"><path d="m281.52 339.81 11.58 11.58a20.219 20.219 0 0 0 -15.63 15.63l-11.58-11.58-35.48-35.48-.03-.08a29.305 29.305 0 0 0 15.58-15.58l.08.03z" fill="#ccd3df"/><path d="m293.1 351.39a20.219 20.219 0 1 1 -10.14 5.49 20.187 20.187 0 0 1 10.14-5.49z" fill="#b0b5ca"/><path d="m239.69 272.31a29.207 29.207 0 0 1 6.27 31.99 29.305 29.305 0 0 1 -15.58 15.58 29.207 29.207 0 1 1 9.31-47.57z" fill="#fb6771"/><path d="m282.6 247.61a78.1 78.1 0 0 1 -1.08 92.2l-35.48-35.48-.08-.03a29.2 29.2 0 1 0 -15.58 15.58l.03.08 35.48 35.48a78.127 78.127 0 0 1 -92.2 1.08 78.079 78.079 0 1 1 108.91-108.91z" fill="#88ced8"/><path d="m173.69 356.52v.01l-123.04 123.03-24.65 6.44 6.44-24.65 123.03-123.04h.01a78.176 78.176 0 0 0 18.21 18.21z" fill="#ccd3df"/><path d="m310.84 219.37-28.23 28.23-.01.01a78.176 78.176 0 0 0 -18.21-18.21l.01-.01 28.23-28.23z" fill="#ccd3df"/><path d="m354.5 216.62c-.16-.19-.34-.38-.53-.57l-58.02-58.02c-.19-.19-.38-.37-.57-.53a14.194 14.194 0 0 0 -19.5.53l-3.15 3.15a14.19 14.19 0 0 0 0 20.08l58.01 58.01a14.19 14.19 0 0 0 20.08 0l3.15-3.15a14.194 14.194 0 0 0 .53-19.5z" fill="#c98049"/><path d="m410.01 173.58c-25.61 14.29-50.2 14.8-55.51 43.04-.16-.19-.34-.38-.53-.57l-58.02-58.02c-.19-.19-.38-.37-.57-.53 28.24-5.31 28.75-29.9 43.04-55.51 16.26-29.13 85.33-70.08 85.33-70.08a32.841 32.841 0 0 1 42.02 3.71l10.61 10.61a32.841 32.841 0 0 1 3.71 42.02s-40.95 69.07-70.08 85.33z" fill="#e8a467"/><path d="m264.39 229.4a78.073 78.073 0 0 0 -92.541 125.751c-.463-.61-.928-1.22-1.369-1.841a78.08 78.08 0 0 1 108.91-108.91c.621.441 1.231.906 1.841 1.369a77.643 77.643 0 0 0 -16.841-16.369z" fill="#a0eaea"/><path d="m310.95 173.03 43.02 43.02c.19.19.37.38.53.57l.007-.033z" fill="#d7df23"/><path d="m353.42 116.99c16.26-29.13 85.33-70.08 85.33-70.08a32.841 32.841 0 0 1 39.72 1.62c-.656-.792-1.35-1.561-2.09-2.3l-10.61-10.61a32.841 32.841 0 0 0 -42.02-3.71s-69.07 40.95-85.33 70.08c-14.29 25.61-14.8 50.2-43.04 55.51.19.16.38.34.57.53l14.463 14.463c28.206-5.323 28.723-29.903 43.007-55.503z" fill="#e29454"/><path d="m245.38 334.88-.036.014.066.066z" fill="#d7df23"/><path d="m260.96 319.3.08.03-.066-.066z" fill="#d7df23"/><path d="m198.39 272.31a29.207 29.207 0 0 0 8.91 47.39 29.208 29.208 0 0 1 38.483-38.483 29.207 29.207 0 0 0 -47.39-8.907z" fill="#e75163"/><path d="m310.38 172.5c.19.16.38.34.57.53l-.537-.537z" fill="#d7df23"/><circle cx="445.27" cy="66.73" fill="#6d7486" r="12.275"/><g fill="#284268"><path d="m470.014 31.378a38.8 38.8 0 0 0 -49.514-4.516c-4.837 2.88-70.732 42.489-87.322 72.205a197.551 197.551 0 0 0 -9.74 20.933c-6.742 16.2-11.326 27.194-26.662 31.052a20.173 20.173 0 0 0 -25.142 2.737l-3.149 3.147a20.221 20.221 0 0 0 0 28.563l15.66 15.659-20.512 20.512a84.091 84.091 0 0 0 -115.882 115.884l-119.558 119.556a6 6 0 0 0 -1.563 2.727l-6.436 24.647a6 6 0 0 0 7.322 7.321l24.646-6.436a5.994 5.994 0 0 0 2.727-1.562l119.561-119.561a83.963 83.963 0 0 0 38.981 12.61q2.808.186 5.6.186a84.048 84.048 0 0 0 46.169-13.808l5.923 5.922a26.23 26.23 0 1 0 26.145-24.209c-.686 0-1.368.034-2.045.086l-5.913-5.913a84.065 84.065 0 0 0 1.014-90.751l20.515-20.515 15.661 15.661a20.22 20.22 0 0 0 28.562 0l3.148-3.147a20.224 20.224 0 0 0 2.735-25.14c3.857-15.339 14.849-19.922 31.053-26.665a197.551 197.551 0 0 0 20.932-9.742c29.716-16.59 69.326-82.485 72.206-87.321a38.8 38.8 0 0 0 -4.517-49.514zm-422.458 442.792-13.163 3.437 3.436-13.163 117.1-117.1c1.481 1.739 3.019 3.441 4.652 5.074s3.326 3.174 5.071 4.655zm231.158-121.537a26.284 26.284 0 0 0 -3.222 3.919l-35.381-35.38a35.512 35.512 0 0 0 7.142-7.143l35.375 35.376a26.6 26.6 0 0 0 -3.914 3.228zm-43.262-43.262a23.208 23.208 0 1 1 6.8-16.412 23.056 23.056 0 0 1 -6.801 16.412zm58.617 47.95c.183-.03.361-.075.541-.121a14.337 14.337 0 0 1 2.661-.253 14.243 14.243 0 0 1 10.073 24.315 14.239 14.239 0 0 1 -24.053-12.762c.037-.147.079-.292.105-.441a14.153 14.153 0 0 1 10.673-10.734zm-13.443-26.888-27.741-27.741a35.346 35.346 0 0 0 1.365-9.733 35.209 35.209 0 1 0 -35.209 35.209 35.344 35.344 0 0 0 9.732-1.364l27.742 27.741a72.431 72.431 0 0 1 -88.445-10.615 72.084 72.084 0 0 1 101.942-101.941 72.434 72.434 0 0 1 10.614 88.444zm2.524-91.858c-1.48-1.745-3.025-3.442-4.654-5.071s-3.334-3.171-5.074-4.651l19.209-19.21 9.725 9.725zm66.577-6.693-3.147 3.147a8.206 8.206 0 0 1 -11.593 0l-58.016-58.017a8.206 8.206 0 0 1 0-11.592l3.148-3.147a8.2 8.2 0 0 1 10.337-1.031 6 6 0 0 0 1.7 1.481l57.112 57.112a6.022 6.022 0 0 0 1.479 1.706 8.211 8.211 0 0 1 -1.02 10.341zm125.441-147.064q-.127.183-.241.374c-.4.677-40.439 67.851-67.844 83.15a185.406 185.406 0 0 1 -19.691 9.141c-14.8 6.16-28.916 12.042-35.719 27.783l-44.938-44.94c15.741-6.8 21.622-20.914 27.782-35.717a185.235 185.235 0 0 1 9.141-19.692c15.288-27.386 82.474-67.442 83.151-67.843.127-.076.252-.157.374-.241a26.812 26.812 0 0 1 34.346 3.03l10.609 10.608a26.814 26.814 0 0 1 3.03 34.347z"/><path d="m432.343 53.81a18.277 18.277 0 0 0 25.847 25.847 18.277 18.277 0 0 0 -25.847-25.847zm17.363 17.361a6.274 6.274 0 1 1 0-8.877 6.287 6.287 0 0 1 0 8.877z"/></g></svg>