<svg id="Layer_1" height="512" viewBox="0 0 512 512" width="512" xmlns="http://www.w3.org/2000/svg" data-name="Layer 1"><path d="m406.16 28.66a9.989 9.989 0 0 0 -14.14 0l-1.85 1.85a9.989 9.989 0 0 0 0 14.14l80.11 80.11 15.99-16z" fill="#edb740"/><path d="m437.71 92.19 32.57 32.57c-2 2.78-12.06 13.64-14.18 16.59l.9 21.86-18.51 2.55-.02-.02.8 21.76-18.51 2.55.8 21.76-18.8 2.26.8 21.76-19.17 1.89.8 21.75-19.55 1.41.66 21.61-19.98.97.8 21.76-20.74.21.8 21.75-21.75-.8-.21 20.74-21.76-.8-.97 19.98-21.61-.66-1.41 19.55-21.75-.8-1.89 19.17-21.76-.8-2.26 18.8-21.76-.8-2.55 18.51-21.76-.8.02.02-2.55 18.51-21.86-.9c-1.47 1.06-4.93 4.1-8.36 7.14-3.43 3.02-6.84 6.04-8.23 7.04l-32.57-32.57z" fill="#ccd3df"/><path d="m44.65 390.17a9.989 9.989 0 0 0 -14.14 0l-1.85 1.85a9.989 9.989 0 0 0 0 14.14l80.1 80.11 16-15.99z" fill="#edb740"/><path d="m30.63 260.808h488.639v28.284h-488.639z" fill="#b0b5ca" transform="matrix(.707 -.707 .707 .707 -113.888 274.95)"/><path d="m410.407 24.415a16.019 16.019 0 0 0 -22.628 0l-1.854 1.854a16.018 16.018 0 0 0 0 22.627l43.3 43.3-337.025 337.028-43.3-43.3a16.019 16.019 0 0 0 -22.627 0l-1.854 1.854a16.018 16.018 0 0 0 0 22.628l80.107 80.107a6 6 0 0 0 8.485 0l15.7-15.7c1.563-1.194 4.153-3.465 8.065-6.919 2.212-1.954 4.818-4.255 6.556-5.71l19.627.811a6.012 6.012 0 0 0 6.191-5.175l1.814-13.151 16.313.6a6.013 6.013 0 0 0 6.164-5.177l1.811-13.132 16.335.6a6.018 6.018 0 0 0 6.178-5.278l1.6-13.318 16.238.6a6.034 6.034 0 0 0 6.191-5.408l1.336-13.561 16.115.593a6.026 6.026 0 0 0 6.2-5.566l.994-13.805 15.856.482a5.994 5.994 0 0 0 6.176-5.7l.688-14.054 15.83.582a6.07 6.07 0 0 0 4.361-1.655 5.994 5.994 0 0 0 1.858-4.279l.152-14.578 15.6.574a6 6 0 0 0 6.217-6.217l-.574-15.6 14.578-.152a6 6 0 0 0 5.938-6.22l-.582-15.83 14.054-.688a6 6 0 0 0 5.7-6.176l-.482-15.856 13.805-.994a6 6 0 0 0 5.566-6.2l-.593-16.115 13.561-1.336a6 6 0 0 0 5.408-6.191l-.6-16.238 13.318-1.6a6 6 0 0 0 5.278-6.178l-.6-16.335 13.132-1.811a6 6 0 0 0 5.177-6.164l-.6-16.313 13.151-1.814a6 6 0 0 0 5.175-6.191s-.581-14.068-.81-19.626c1.456-1.74 3.759-4.349 5.713-6.562 3.452-3.91 5.721-6.5 6.915-8.06l15.7-15.7a6 6 0 0 0 0-8.485zm-301.642 453.371-75.865-75.865a4 4 0 0 1 0-5.656l1.854-1.854a4 4 0 0 1 5.657 0l75.864 75.864zm350.135-348.958c-3.718 4.211-6.15 6.985-7.414 8.663-1.488 1.644-1.437 2.872-1.245 7.522l.536 13-12.677 1.742a6 6 0 0 0 -5.629 6.21l.6 16.33-13.137 1.812a6 6 0 0 0 -5.167 6.3l.592 16.1-13.319 1.605a6 6 0 0 0 -5.273 6.266l.589 16.027-13.556 1.34a6 6 0 0 0 -5.408 6.192l.587 15.963-13.769.991a6 6 0 0 0 -5.566 6.167l.478 15.723-14.092.69a6 6 0 0 0 -5.7 6.213l.573 15.6-14.577.151a6 6 0 0 0 -5.934 6.22l.562 15.3-15.3-.562a6 6 0 0 0 -6.22 5.934l-.151 14.577-15.6-.573a6.023 6.023 0 0 0 -6.213 5.7l-.69 14.092-15.723-.478a6 6 0 0 0 -6.167 5.566l-.991 13.769-15.963-.587a6.008 6.008 0 0 0 -6.192 5.408l-1.336 13.561-15.98-.588a6 6 0 0 0 -6.313 5.272l-1.605 13.319-16.025-.589a6 6 0 0 0 -6.379 5.164l-1.806 13.135-16.33-.6a6.025 6.025 0 0 0 -5.713 3.606 5.962 5.962 0 0 0 -.476 1.873l-1.768 12.824-16.413-.678a5.993 5.993 0 0 0 -3.754 1.126c-1.627 1.169-4.49 3.678-9.012 7.67-1.19 1.051-2.5 2.207-3.706 3.26l-24.448-24.447 337.029-337.029 24.447 24.447c-1.056 1.206-2.205 2.513-3.256 3.701zm11.374-12.553-75.863-75.864a4 4 0 0 1 0-5.657l1.854-1.854a4 4 0 0 1 5.656 0l75.865 75.865z" fill="#284268"/></svg>