<svg id="Layer_1" height="512" viewBox="0 0 512 512" width="512" xmlns="http://www.w3.org/2000/svg" data-name="Layer 1"><path d="m486 368.13v3.88a16.239 16.239 0 0 1 -16.24 16.24h-427.52a16.239 16.239 0 0 1 -16.24-16.24v-3.88a16.239 16.239 0 0 1 16.24-16.24h427.52a16.239 16.239 0 0 1 16.24 16.24z" fill="#fff655"/><path d="m442.5 309.63 10.06-.88a11.194 11.194 0 0 1 12.17 11.15v31.99h-156.12v-30.49z" fill="#fb6771"/><path d="m442.5 309.63-133.89 11.77v-55.5h-26.12v-123.21c81.99 12.22 147.09 80.36 160.01 166.94z" fill="#eadf53"/><path d="m308.61 351.88v.01h-105.22v-85.99h105.22z" fill="#d8ff33"/><path d="m282.49 142.69v123.21h-52.98v-130.96a11.19 11.19 0 0 1 11.19-11.19h30.6a11.19 11.19 0 0 1 11.19 11.19z" fill="#fb6771"/><path d="m229.51 142.69v123.21h-26.12v55.5l-133.89-11.77c12.92-86.58 78.02-154.72 160.01-166.94z" fill="#eadf53"/><path d="m69.5 309.63 133.89 11.77v30.49h-156.12v-31.99a11.194 11.194 0 0 1 12.17-11.15z" fill="#fb6771"/><path d="m69.5 309.63 6.586.579c21.727-72.26 80.978-126.721 153.424-137.519v-30c-81.99 12.22-147.09 80.36-160.01 166.94z" fill="#fff655"/><path d="m256 286.87a22.015 22.015 0 1 1 -22.01 22.02 22.013 22.013 0 0 1 22.01-22.02z" fill="#e75163"/><g fill="#284268"><path d="m470.733 345.916v-26.016a17.192 17.192 0 0 0 -18.7-17.126l-4.513.4a208.841 208.841 0 0 0 -54.764-109.021c-28.78-30.066-64.739-49.543-104.27-56.556v-2.657a17.212 17.212 0 0 0 -17.186-17.192h-30.6a17.212 17.212 0 0 0 -17.192 17.192v2.66c-39.531 7.013-75.49 26.49-104.27 56.555a208.848 208.848 0 0 0 -54.761 109.017l-4.513-.4a17.192 17.192 0 0 0 -18.7 17.126v26.015a22.268 22.268 0 0 0 -21.264 22.222v3.875a22.268 22.268 0 0 0 22.242 22.242h427.516a22.268 22.268 0 0 0 22.242-22.242v-3.875a22.268 22.268 0 0 0 -21.267-22.219zm-17.646-31.187a5.191 5.191 0 0 1 5.646 5.172v25.991h-144.128v-18.992zm-164.598-164.939c36.182 6.877 69.113 24.987 95.6 52.659a196.844 196.844 0 0 1 51.433 101.778l-120.917 10.627v-48.954a6 6 0 0 0 -6-6h-20.116zm-52.978-14.85a5.2 5.2 0 0 1 5.192-5.192h30.597a5.2 5.2 0 0 1 5.192 5.192v124.96h-40.981zm67.094 136.96v74h-93.205v-74zm-174.7-69.447c26.488-27.672 59.419-45.782 95.6-52.659v110.106h-20.105a6 6 0 0 0 -6 6v48.958l-120.923-10.631a196.844 196.844 0 0 1 51.433-101.778zm-74.638 117.447a5.191 5.191 0 0 1 5.646-5.172l138.487 12.172v18.992h-144.133zm426.733 52.11a10.254 10.254 0 0 1 -10.242 10.242h-427.516a10.254 10.254 0 0 1 -10.242-10.242v-3.875a10.254 10.254 0 0 1 10.242-10.243h427.516a10.254 10.254 0 0 1 10.242 10.243z"/><path d="m256 336.9a28.012 28.012 0 1 0 -28.013-28.011 28.044 28.044 0 0 0 28.013 28.011zm0-44.024a16.012 16.012 0 1 1 -16.013 16.013 16.032 16.032 0 0 1 16.013-16.015z"/></g></svg>