<svg id="Layer_1" height="512" viewBox="0 0 512 512" width="512" xmlns="http://www.w3.org/2000/svg" data-name="Layer 1"><path d="m288.08 185.73c-26.97-30.69-47-62.1-58.22-83.82a1.186 1.186 0 0 1 .22-1.39l74.17-74.17a1.206 1.206 0 0 1 1.37-.24c21.34 10.34 53.24 29.65 84.56 56.85 7.84 6.79 15.64 14.09 23.23 21.86 5.45 5.58 10.66 11.27 15.62 17 26.79 30.91 46.37 62.92 56.85 84.56a1.193 1.193 0 0 1 -.24 1.37l-74.16 74.16a1.2 1.2 0 0 1 -1.4.22c-21.55-11.12-52.54-30.91-82.81-57.36-6.69-5.84-13.35-12.01-19.86-18.48-6.78-6.74-13.23-13.63-19.33-20.56z" fill="#b0b5ca"/><path d="m450.91 112.35-21.76 9.37-.12.1c-4.96-5.73-10.17-11.42-15.62-17-7.59-7.77-15.39-15.07-23.23-21.86l.09-.11 9.37-21.76z" fill="#6d7486"/><path d="m327.27 224.77-.02.02-22.08 22.07-39.11-39.11 22.02-22.02c6.1 6.93 12.55 13.82 19.33 20.56 6.51 6.47 13.17 12.64 19.86 18.48z" fill="#6d7486"/><path d="m262.737 202.936h26.806v67.698h-26.806z" fill="#a0eaea" transform="matrix(.707 -.707 .707 .707 -86.545 264.709)"/><path d="m246.59 226.19 39.32 39.32c-25.69 26.91-51.69 56.77-79.35 87.82-36.33 40.78-68.3 80.39-96.32 117.77-1.78 1.98-12.55 13.61-29.78 14.81a37.635 37.635 0 0 1 -29.49-10.7l-14.17-14.17c-15.89-15.9-14.01-43.01 4.11-59.27 37.74-28.84 78.83-59.47 119.66-95.92 30.52-27.24 59.47-53.72 86.02-79.66z" fill="#e75163"/><path d="m61.8 476.04c-15.89-15.9-14.01-43.01 4.11-59.27 37.74-28.84 78.83-59.47 119.66-95.92 28.6-25.522 55.785-50.371 80.941-74.739l-19.921-19.921c-26.55 25.94-55.5 52.42-86.02 79.66-40.83 36.45-81.92 67.08-119.66 95.92-18.12 16.26-20 43.37-4.11 59.27l14.17 14.17a36.765 36.765 0 0 0 20.272 10.272z" fill="#fb6771"/><path d="m313.08 210.73c-26.97-30.69-47-62.1-58.22-83.82a1.186 1.186 0 0 1 .22-1.39l74.17-74.17a1.206 1.206 0 0 1 1.37-.24c21.34 10.34 53.24 29.65 84.56 56.85 2.459 2.129 4.91 4.327 7.356 6.555q-4.447-4.887-9.126-9.7c-7.59-7.77-15.39-15.07-23.23-21.86-31.32-27.2-63.22-46.51-84.56-56.85a1.206 1.206 0 0 0 -1.37.24l-74.17 74.17a1.186 1.186 0 0 0 -.22 1.39c11.22 21.72 31.25 53.13 58.22 83.82 6.1 6.93 12.55 13.82 19.33 20.56q5.853 5.817 11.846 11.291c-2.091-2.276-4.156-4.555-6.176-6.846z" fill="#6d7486"/><path d="m438.846 124.079 14.435-6.218a6 6 0 0 0 1.869-9.753l-51.263-51.263a6 6 0 0 0 -9.754 1.869l-6.208 14.415c-35.944-30.017-68.7-47.088-79.691-52.414a7.209 7.209 0 0 0 -8.228 1.394l-74.167 74.166a7.175 7.175 0 0 0 -1.31 8.389c5.621 10.888 23.981 44.215 55.352 80.783l-13.82 13.82-.134-.134a6 6 0 0 0 -8.486 0l-18.955 18.955a6 6 0 0 0 -.415 8.022c-22.4 21.73-47.793 45.179-81.494 75.265-36.011 32.147-71.744 59.373-106.3 85.7q-6.566 5-13.01 9.923c-.125.1-.247.2-.365.3a50.334 50.334 0 0 0 -16.884 35.821 43.283 43.283 0 0 0 12.538 32.153l14.171 14.178a43.619 43.619 0 0 0 30.944 12.55q1.6 0 3.207-.111c18.559-1.289 30.581-13.172 33.822-16.789.118-.131.23-.268.336-.409 30.188-40.263 62.487-79.753 96-117.372q8.609-9.664 17.016-19.159c20.059-22.62 39.082-44.051 57.977-64.049l.324.324a6 6 0 0 0 8.485 0l18.954-18.955a6 6 0 0 0 0-8.484l-.134-.134 13.9-13.9c36.226 30.887 69.078 48.975 79.777 54.5a7.175 7.175 0 0 0 8.386-1.313l74.161-74.161a7.2 7.2 0 0 0 1.4-8.229c-5.163-10.651-22.255-43.521-52.436-79.68zm-37.19-52.495 38.755 38.755-9.77 4.207q-6.159-6.937-12.94-13.915c-6.725-6.887-13.512-13.305-20.247-19.288zm-182.581 258.616q-8.4 9.477-17 19.139c-33.674 37.8-66.132 77.478-96.474 117.933-2.708 2.964-11.8 11.692-25.556 12.647a31.434 31.434 0 0 1 -24.835-8.956l-14.169-14.171a31.4 31.4 0 0 1 -9.028-23.345 38.268 38.268 0 0 1 12.735-27.061q6.339-4.845 12.8-9.763c34.739-26.469 70.66-53.838 107.019-86.3 33.883-30.248 59.416-53.828 81.965-75.706l31.008 31.007c-19.099 20.205-38.258 41.792-58.465 64.576zm71.525-68.489-39.386-39.381 10.47-10.47 39.381 39.381zm14.578-23.331-30.628-30.628 13.289-13.289c4.844 5.346 9.95 10.725 15.34 16.083q7.673 7.626 15.339 14.494zm104.558 36.792c-15.806-8.451-57.4-32.686-98.1-73.138-41.429-41.179-66.207-83.674-74.811-99.771l69.237-69.238c16.671 8.386 61.109 33.03 103.054 75.989 32.255 33.036 56.892 71.1 69.856 96.919z" fill="#284268"/></svg>