<svg id="Layer_1" height="512" viewBox="0 0 512 512" width="512" xmlns="http://www.w3.org/2000/svg" data-name="Layer 1"><path d="m458.74 31.436 18.67 31.3-24.03 24.03-.02.02-24.99-24.99z" fill="#6d7486"/><path d="m417.52 50.946-21.08 21.08a240.072 240.072 0 0 1 -32.87 27.474l.06.09 52.03 52.02a239.6 239.6 0 0 1 27.48-32.89l21.07-21.08z" fill="#e2e4ed"/><path d="m363.63 99.586 52.03 52.02a240 240 0 0 0 -20.64 36.04l-8.06 17.41-76.86-76.856 17.41-8.06a241.575 241.575 0 0 0 36.06-20.64z" fill="#ccd3df"/><path d="m310.1 128.196-244.28 259.04.97.92 61.02 61.02.13.14 259.02-244.26z" fill="#4689d3"/><path d="m127.81 449.176-41.98-41.98-19.04-19.04-.97-.92-31.23 33.12 60.21 60.21 33.14-31.25z" fill="#50dd5a"/><path d="m381.422 117.375q6.193-3.763 12.148-7.879a240.072 240.072 0 0 0 32.87-27.47l11.08-11.08-9.15-9.15-10.85-10.85-21.08 21.08a240.072 240.072 0 0 1 -32.87 27.474l.06.09z" fill="#ccd3df"/><path d="m340.1 138.2 17.41-8.06a241.585 241.585 0 0 0 23.912-12.761l-17.792-17.793-.06-.09a241.575 241.575 0 0 1 -36.06 20.64l-17.41 8.064 20.293 20.294z" fill="#b0b5ca"/><path d="m310.1 128.196-244.28 259.04.97.92 19.04 19.04 244.563-258.706z" fill="#5fa8ed"/><path d="m85.83 407.196-19.04-19.04-.97-.92-31.23 33.12 20.666 19.334 30.882-32.186z" fill="#49c160"/><path d="m199.31 315.846a15.662 15.662 0 0 0 -22.14 0l-91.34 91.354 22.14 22.14v-.01l91.34-91.34a15.668 15.668 0 0 0 0-22.14z" fill="#fb6771"/><path d="m463.889 28.358a6 6 0 0 0 -9.395-1.169l-26.121 26.121-6.608-6.61a6 6 0 0 0 -8.485 0l-21.08 21.081a233.335 233.335 0 0 1 -67.209 46.919l-17.406 8.054a6.012 6.012 0 0 0 -1.846 1.329l-275.515 292.153a6 6 0 0 0 .122 8.359l60.216 60.216a6 6 0 0 0 8.358.123l292.161-275.514a6.013 6.013 0 0 0 1.329-1.845l8.055-17.409a233.318 233.318 0 0 1 46.913-67.208l21.079-21.079a6 6 0 0 0 0-8.485l-6.608-6.608 19.805-19.8a6 6 0 0 0 .91-7.317zm-368.962 443.848-51.975-51.976 23.02-24.411 53.366 53.367zm-.612-65.014 87.1-87.1a9.653 9.653 0 0 1 13.652 13.652l-87.1 87.1zm33.757 33.757-11.619-11.619 87.1-87.1a21.654 21.654 0 0 0 -30.623-30.623l-87.1 87.1-11.622-11.622 236.023-250.279 68.122 68.123zm261.5-255.822-4.445 9.607-64.7-64.7 9.6-4.444a246.232 246.232 0 0 0 32.791-18.324l45.082 45.071a246.165 246.165 0 0 0 -18.326 32.79zm49.319-70.654a246.084 246.084 0 0 0 -24 27.888l-42.091-42.093a246.182 246.182 0 0 0 27.889-24l16.835-16.836 38.207 38.205zm14.473-36.173-16.506-16.5 20.673-20.672 12.334 20.672z" fill="#284268"/></svg>