<svg id="Layer_1" height="512" viewBox="0 0 512 512" width="512" xmlns="http://www.w3.org/2000/svg" data-name="Layer 1"><path d="m256 34.62c-127.03 0-230 102.98-230 230h460c0-127.02-102.97-230-230-230z" fill="#4689d3"/><path d="m447.62 294.97 21.13-13.6-18.74-16.75h-388.02l-18.74 16.75 21.13 13.6-15.89 19.47 23 10.14-12.65 21.71 24.3 6.41-9.1 23.43 25 2.53-5.32 24.56 25.1-1.41-1.42 25.09 24.57-5.32 2.52 25.01 23.43-9.1 6.41 24.3 21.72-12.65 10.13 23 19.47-15.9 13.61 21.14 16.74-18.75 16.74 18.75 13.61-21.14 19.47 15.9 10.13-23 21.72 12.65 6.41-24.3 23.43 9.1 2.52-25.01 24.57 5.32-1.42-25.09 25.1 1.41-5.32-24.56 25-2.53-9.1-23.43 24.3-6.41-12.65-21.71 23-10.14z" fill="#ccd3df"/><path d="m271 35.12c-4.96-.32-9.959-.5-15-.5-127.03 0-230 102.98-230 230h30c0-121.979 94.964-221.77 215-229.5z" fill="#5fa8ed"/><path d="m83.5 264.62a172.5 172.5 0 0 0 345 0z" fill="#b0b5ca"/><path d="m113.5 264.62h-30a172.5 172.5 0 0 0 172.5 172.5c5.055 0 10.055-.23 15-.656a172.507 172.507 0 0 1 -157.5-171.844z" fill="#6d7486"/><path d="m283.6 264.62h-56.35a28.75 28.75 0 1 0 57.5 0z" fill="#6d7486"/><g fill="#c6e02d"><path d="m404.4 264.62h-51.8l23.27-87.49a147.686 147.686 0 0 1 28.53 87.49z"/><path d="m347.95 148.14-29.85 116.48h-34.5l33.53-135.25a147.821 147.821 0 0 1 30.82 18.77z"/><path d="m284.08 118.89-36.13 145.73h-34.5l35.6-148.23c2.31-.11 4.62-.16 6.95-.16a148.448 148.448 0 0 1 28.08 2.66z"/><path d="m211.83 122.91-34.03 141.71h-35.65l29.29-121.96a147.789 147.789 0 0 1 40.39-19.75z"/></g><path d="m375.87 177.13-23.27 87.49h-34.5l29.85-116.48a148.942 148.942 0 0 1 27.92 28.99z" fill="#d8ff33"/><path d="m317.13 129.37-33.53 135.25h-35.65l36.13-145.73a146.717 146.717 0 0 1 33.05 10.48z" fill="#d8ff33"/><path d="m249.05 116.39-35.6 148.23h-35.65l34.03-141.71a148.1 148.1 0 0 1 37.22-6.52z" fill="#d8ff33"/><path d="m171.44 142.66-29.29 121.96h-34.55a148.229 148.229 0 0 1 63.84-121.96z" fill="#d8ff33"/><path d="m256 28.625a236 236 0 0 0 -236 236 6 6 0 0 0 6 6h20.271l-7.018 6.27a6 6 0 0 0 .747 9.519l15.484 9.97-11.643 14.266a6 6 0 0 0 2.228 9.286l16.854 7.423-9.271 15.913a6 6 0 0 0 3.655 8.823l17.807 4.7-6.667 17.167a6 6 0 0 0 4.99 8.142l18.322 1.853-3.9 18a6 6 0 0 0 6.2 7.261l18.386-1.036-1.036 18.386a6 6 0 0 0 7.261 6.2l18-3.9 1.853 18.322a6 6 0 0 0 8.142 4.99l17.167-6.667 4.7 17.807a6 6 0 0 0 8.823 3.655l15.913-9.271 7.423 16.854a6 6 0 0 0 9.286 2.228l14.266-11.645 9.97 15.484a6 6 0 0 0 9.519.749l12.268-13.736 12.27 13.734a6 6 0 0 0 4.474 2c.156 0 .314-.006.471-.019a6 6 0 0 0 4.574-2.733l9.97-15.484 14.266 11.645a6 6 0 0 0 9.286-2.228l7.423-16.854 15.913 9.271a6 6 0 0 0 8.823-3.655l4.7-17.807 17.167 6.667a6 6 0 0 0 8.142-4.99l1.853-18.322 18 3.9a6 6 0 0 0 7.261-6.2l-1.036-18.386 18.386 1.036a6 6 0 0 0 6.2-7.261l-3.9-18 18.322-1.853a6 6 0 0 0 4.99-8.142l-6.667-17.167 17.807-4.7a6 6 0 0 0 3.655-8.823l-9.271-15.913 16.854-7.423a6 6 0 0 0 2.228-9.286l-11.645-14.266 15.484-9.965a6 6 0 0 0 .749-9.519l-7.018-6.27h20.269a6 6 0 0 0 6-6 236 236 0 0 0 -236-236zm188.37 261.305a6 6 0 0 0 -1.4 8.839l10.909 13.363-15.786 6.953a6 6 0 0 0 -2.766 8.512l8.684 14.905-16.68 4.4a6 6 0 0 0 -4.062 7.974l6.244 16.08-17.161 1.735a6 6 0 0 0 -5.261 7.241l3.652 16.859-17.222-.971a6 6 0 0 0 -6.328 6.328l.971 17.222-16.859-3.652a6 6 0 0 0 -7.241 5.261l-1.735 17.161-16.08-6.244a6 6 0 0 0 -7.974 4.062l-4.4 16.68-14.905-8.684a6 6 0 0 0 -8.512 2.766l-6.951 15.78-13.363-10.9a6 6 0 0 0 -8.839 1.4l-9.338 14.5-11.492-12.864a6 6 0 0 0 -8.95 0l-11.492 12.864-9.333-14.5a6 6 0 0 0 -8.839-1.4l-13.368 10.9-6.953-15.786a6 6 0 0 0 -8.512-2.766l-14.9 8.684-4.4-16.68a6 6 0 0 0 -7.974-4.062l-16.08 6.244-1.735-17.161a6 6 0 0 0 -7.241-5.261l-16.859 3.652.971-17.222a6 6 0 0 0 -6.328-6.328l-17.222.971 3.652-16.859a6 6 0 0 0 -5.261-7.241l-17.161-1.735 6.244-16.08a6 6 0 0 0 -4.062-7.974l-16.68-4.4 8.681-14.896a6 6 0 0 0 -2.766-8.512l-15.786-6.953 10.909-13.366a6 6 0 0 0 -1.4-8.839l-14.5-9.338 11.157-9.967h13.325c3.177 95.657 81.972 172.5 178.388 172.5s175.211-76.843 178.388-172.5h13.329l11.157 9.967zm-96.384-31.305h-22.154l25.54-99.65a143.593 143.593 0 0 1 17.929 19.5zm30.234-67a141.438 141.438 0 0 1 20.044 67h-37.864zm-64.777 67h-22.175l29.9-120.591a142.742 142.742 0 0 1 19.98 12.516zm-34.537 0h-23.287l32.881-132.653a141.167 141.167 0 0 1 21.57 6.929zm-.965 12a22.745 22.745 0 0 1 -43.882 0zm-34.685-12h-22.194l32.746-136.372c.731-.011 1.459-.027 2.192-.027a143 143 0 0 1 20.7 1.508zm-34.536 0h-23.309l31.439-130.925a141.384 141.384 0 0 1 24.442-4.719zm-35.65 0h-23.308l26.947-112.225a142.271 142.271 0 0 1 26.7-14.1zm-35.649 0h-23.685a142.109 142.109 0 0 1 47.808-100.464zm84.358 12a34.742 34.742 0 0 0 68.442 0h132.159c-3.171 89.039-76.581 160.5-166.38 160.5s-163.209-71.461-166.38-160.5zm188.493-12c-3.165-82.365-71.147-148.4-154.272-148.4s-151.107 66.034-154.272 148.4h-69.65a224 224 0 0 1 382.314-152.392 222.449 222.449 0 0 1 65.53 152.392z" fill="#284268"/></svg>