<svg id="Layer_1" height="512" viewBox="0 0 512 512" width="512" xmlns="http://www.w3.org/2000/svg" data-name="Layer 1"><path d="m476.61 81.81a110.1 110.1 0 1 1 -199.37-4.26l53.23 53.23a68.715 68.715 0 0 0 97.17 0z" fill="#b0b5ca"/><path d="m431.46 42.58-78.15 78.15-51.9-51.9s39.73-61.6 130.05-26.25z" fill="#ccd3df"/><path d="m334.9 228.52v.01l-240.01 240.01a40.351 40.351 0 1 1 -57.07-57.06l238.41-238.41a110.467 110.467 0 0 0 58.67 55.45zm-253.87 224.71a19.725 19.725 0 1 0 -27.9 0 19.724 19.724 0 0 0 27.9 0z" fill="#4689d3"/><path d="m360.47 150.78a68.715 68.715 0 0 0 97.17 0l28.278-28.28a110.054 110.054 0 0 0 -9.308-40.69l-48.97 48.97a68.708 68.708 0 0 1 -70.7 16.47z" fill="#6d7486"/><path d="m56.23 455.764a19.717 19.717 0 0 1 20.8-33.49l219.608-219.612a109.953 109.953 0 0 1 -20.408-29.592l-238.41 238.41a40.339 40.339 0 0 0 23.5 68.556 40.164 40.164 0 0 1 -5.092-24.272z" fill="#5fa8ed"/><path d="m328.1 224.19a109.925 109.925 0 0 1 -23.966-119.746l-26.894-26.894a109.826 109.826 0 0 0 19.4 125.112c.489.508.961 1.027 1.462 1.528a109.709 109.709 0 0 0 32.659 22.562c-.898-.838-1.787-1.688-2.661-2.562z" fill="#6d7486"/><g fill="#284268"><path d="m481.916 78.481a6 6 0 0 0 -6.973-2.567l-.238.077a6.005 6.005 0 0 0 -3.126 2.365l-48.179 48.181a62.713 62.713 0 0 1 -88.689 0l-52.825-52.825a6 6 0 0 0 -8.878-.432l-.02.02a5.994 5.994 0 0 0 -1.275 1.886 115.949 115.949 0 0 0 -2.634 96.545l-235.5 235.5a46.353 46.353 0 0 0 65.553 65.554l237.24-237.241a116.138 116.138 0 0 0 146.387-154.644 5.985 5.985 0 0 0 -.843-2.419zm-391.271 385.819a34.353 34.353 0 0 1 -48.583-48.583l232.6-232.6a116.833 116.833 0 0 0 49.819 47.347zm387.755-319.674a104.208 104.208 0 0 1 -141.041 78.445c-.143-.064-.286-.12-.432-.173a104.259 104.259 0 0 1 -57.764-134.938l47.062 47.062a74.713 74.713 0 0 0 105.66 0l42.494-42.495a103.991 103.991 0 0 1 4.021 52.099z"/><path d="m349.07 124.976a6 6 0 0 0 8.485 0l78.145-78.15a6 6 0 0 0 -2.051-9.826c-26.906-10.533-66.761-19.061-103.837.124-22.384 11.584-33 27.777-33.44 28.461a6 6 0 0 0 .8 7.5zm-13.744-77.2c24.386-12.618 53.021-13.542 85.23-2.775l-67.244 67.244-43.953-43.951a85.548 85.548 0 0 1 25.967-20.515z"/><path d="m67.078 413.557a25.726 25.726 0 1 0 18.193 7.535 25.558 25.558 0 0 0 -18.193-7.535zm9.707 35.434a13.725 13.725 0 1 1 4.022-9.707 13.638 13.638 0 0 1 -4.023 9.707z"/></g></svg>