<svg id="Layer_1" height="512" viewBox="0 0 512 512" width="512" xmlns="http://www.w3.org/2000/svg" data-name="Layer 1"><path d="m200.31 184.21v254.18l-24.25 40.99-24.26-40.99v-254.18z" fill="#b0b5ca"/><path d="m349.95 78.08v366.92l-24.25 41-24.26-41v-366.92z" fill="#b0b5ca"/><path d="m125.15 157.07h101.81a26.826 26.826 0 0 0 -26.65 27.14h-48.51a26.826 26.826 0 0 0 -26.65-27.14z" fill="#6d7486"/><path d="m274.79 50.94h101.81a26.826 26.826 0 0 0 -26.65 27.14h-48.51a26.826 26.826 0 0 0 -26.65-27.14z" fill="#6d7486"/><g fill="#ccd3df"><path d="m236.18 152.13v4.94h-120.25v-4.94a19.994 19.994 0 0 1 20-20h80.25a19.994 19.994 0 0 1 20 20z"/><path d="m396.07 46v4.94h-140.75v-4.94a19.994 19.994 0 0 1 20-20h100.75a19.994 19.994 0 0 1 20 20z"/><path d="m328.44 445v-366.92h-27v366.92l24.26 41 13.497-22.82z"/></g><path d="m162.93 132.13h-27a19.994 19.994 0 0 0 -20 20v4.94h27v-4.94a19.994 19.994 0 0 1 20-20z" fill="#b0b5ca"/><path d="m302.32 26h-27a19.994 19.994 0 0 0 -20 20v4.94h27v-4.94a19.994 19.994 0 0 1 20-20z" fill="#b0b5ca"/><path d="m178.8 438.39v-254.18h-27v254.18l24.26 40.99 13.497-22.815z" fill="#ccd3df"/><path d="m216.185 126.127h-80.259a26.029 26.029 0 0 0 -26 26v4.941a6 6 0 0 0 6 6h9.225a20.921 20.921 0 0 1 20.649 21.137v254.183a5.992 5.992 0 0 0 .836 3.055l24.257 41a6 6 0 0 0 10.328 0l24.256-41a6 6 0 0 0 .836-3.055v-254.183a20.921 20.921 0 0 1 20.648-21.137h9.225a6 6 0 0 0 6-6v-4.941a26.029 26.029 0 0 0 -26.001-26zm-21.873 310.618-18.256 30.855-18.256-30.855v-246.54h36.513zm.546-258.54h-37.605a33.257 33.257 0 0 0 -6.979-15.137h51.563a33.257 33.257 0 0 0 -6.979 15.137zm-72.892-27.137a14.019 14.019 0 0 1 13.96-12.941h80.259a14.019 14.019 0 0 1 13.96 12.941z" fill="#284268"/><path d="m376.074 20h-100.757a26.029 26.029 0 0 0 -26 26v4.941a6 6 0 0 0 6 6h19.474a20.92 20.92 0 0 1 20.647 21.137v366.922a6.008 6.008 0 0 0 .836 3.056l24.258 41a6 6 0 0 0 10.327 0l24.257-41a6.008 6.008 0 0 0 .836-3.056v-366.922a20.92 20.92 0 0 1 20.648-21.137h19.474a6 6 0 0 0 6-6v-4.941a26.029 26.029 0 0 0 -26-26zm-32.122 423.361-18.252 30.856-18.262-30.857v-359.282h36.514zm.548-371.283h-37.608a33.237 33.237 0 0 0 -6.979-15.137h51.564a33.237 33.237 0 0 0 -6.977 15.137zm-83.144-27.137a14.02 14.02 0 0 1 13.961-12.941h100.757a14.019 14.019 0 0 1 13.96 12.941z" fill="#284268"/></svg>