<svg id="Layer_1" height="512" viewBox="0 0 512 512" width="512" xmlns="http://www.w3.org/2000/svg" data-name="Layer 1"><path d="m358.33 33.31 120.41 120.42-106.59 106.6-.01-.01-120.41-120.41z" fill="#b0b5ca"/><path d="m372.15 260.33-42.71 42.71-.01-.01-120.41-120.41 42.71-42.71 120.41 120.41z" fill="#49c160"/><path d="m329.43 303.03-120.41-120.41-.09.09-1.95 74.52 47.84 47.85 74.52-1.95.1-.09z" fill="#4689d3"/><path d="m248.75 299-.47.47-20.42 20.42-.64-.65-34.55-34.54-.5-.51 20.42-20.42.46-.46z" fill="#49c160"/><path d="m192.67 284.7 34.55 34.54c-31.79 31.79-86.36 100.14-110.34 139.97-10.19 16.92-36.03 21.67-55.54 18.61l-13.6-13.64-13.65-13.6a71.469 71.469 0 0 1 -.83-10.99c0-17.15 5.88-35.72 19.45-44.55 37.53-24.41 108.17-78.55 139.96-110.34z" fill="#fb6771"/><path d="m210.174 157.123h60.401v28.284h-60.401z" fill="#50dd5a" transform="matrix(.707 -.707 .707 .707 -50.698 220.133)"/><path d="m372.14 260.32.01.01z" fill="#f9ed32"/><path d="m226.98 277.23 1.95-74.52.09-.09-20-20-.09.09-1.95 74.52 23.164 23.169z" fill="#5fa8ed"/><path d="m251.672 301.926 3.148 3.154h.006z" fill="#f9ed32"/><path d="m192.67 284.7c-31.79 31.79-102.43 85.93-139.96 110.34-13.57 8.83-19.45 27.4-19.45 44.55a71.469 71.469 0 0 0 .83 10.99l13.65 13.6 6.345 6.364a71.536 71.536 0 0 1 -.825-10.954c0-17.15 5.88-35.72 19.45-44.55 37.53-24.41 108.17-78.55 139.96-110.34l14.547 14.543z" fill="#e75163"/><path d="m362.569 29.066a6 6 0 0 0 -8.485 0l-149.4 149.4a6 6 0 0 0 -1.756 4.085l-1.951 74.52a6 6 0 0 0 1.755 4.4l1.833 1.833-16.644 16.643a6 6 0 0 0 -1.491 2.479c-31.739 31.1-98.855 82.777-136.992 107.582-19.269 12.534-24.535 40.665-21.273 61.5a6 6 0 0 0 1.691 3.322l13.634 13.586 13.6 13.645a6 6 0 0 0 3.322 1.691 80.079 80.079 0 0 0 12.345.94c18.946 0 39.661-6.445 49.263-22.39 21.947-36.446 74.276-103 107.243-136.588a5.989 5.989 0 0 0 2.842-1.584l16.643-16.643 1.833 1.832a6 6 0 0 0 4.243 1.758h.157l74.519-1.952a6 6 0 0 0 4.086-1.755l149.4-149.4a6 6 0 0 0 0-8.485zm-250.829 427.046c-6.263 10.4-24.49 19.066-47.564 16.058l-12.2-12.24-12.222-12.181c-2.162-17.374 2.595-38.813 16.228-47.681 37.727-24.54 103.568-75.144 136.647-106.929l26.147 26.147c-31.166 32.25-82.694 96.402-107.036 136.826zm116.123-144.712-27.213-27.211 12.4-12.4 27.213 27.211zm29.381-12.391-44.2-44.2 1.523-58.161 100.833 100.84zm72.191-4.463-111.935-111.929 34.224-34.225 111.936 111.932zm42.71-42.71-111.931-111.929 98.113-98.113 23.811 23.812-60.478 60.478a6 6 0 1 0 8.486 8.485l60.477-60.478 19.427 19.426-44.529 44.529a6 6 0 1 0 8.485 8.485l44.529-44.531 19.426 19.426-60.478 60.478a6 6 0 0 0 8.485 8.485l60.478-60.478 23.812 23.812z" fill="#284268"/></svg>