<svg id="Layer_1" height="512" viewBox="0 0 512 512" width="512" xmlns="http://www.w3.org/2000/svg" data-name="Layer 1"><path d="m448.96 50.37a83.182 83.182 0 0 0 -117.65 0l-250.22 250.22a16.9 16.9 0 0 0 0 23.9l93.75 93.75a16.875 16.875 0 0 0 23.9 0l250.22-250.22a83.182 83.182 0 0 0 0-117.65z" fill="#e75163"/><path d="m101.09 320.59 250.22-250.22a83.179 83.179 0 0 1 106.79-9.144 84.146 84.146 0 0 0 -9.14-10.856 83.182 83.182 0 0 0 -117.65 0l-250.22 250.22a16.9 16.9 0 0 0 0 23.9l14.29 14.29 1.45-1.45a16.991 16.991 0 0 1 -.69-4.79 16.743 16.743 0 0 1 4.95-11.95z" fill="#fb6771"/><path d="m291.775 139.276h44.396v92.168h-44.396z" fill="#6d7486" transform="matrix(.707 -.707 .707 .707 -39.109 276.302)"/><path d="m265.69 168.47-227.02 227.02 39.84 90.51 252.35-252.36z" fill="#ccd3df"/><path d="m320.078 100.426h65.489v92.168h-65.489z" fill="#5fa8ed" transform="matrix(.707 -.707 .707 .707 -.243 292.433)"/><path d="m58.67 405.49 222.02-222.02-15-15-227.02 227.02 29.09 66.1 10.75 24.41 10.827-10.829-1.577-3.581z" fill="#b0b5ca"/><path d="m268.918 196.195h34.394v34.04h-34.394z" fill="#4a5160" transform="matrix(.707 -.707 .707 .707 -66.965 264.763)"/><path d="m453.207 46.126a89.192 89.192 0 0 0 -126.141 0l-250.22 250.218a22.9 22.9 0 0 0 0 32.388l10.049 10.05-52.47 52.468a6 6 0 0 0 -1.249 6.661l39.839 90.506a6 6 0 0 0 9.733 1.826l77.8-77.8 10.052 10.042a22.9 22.9 0 0 0 32.389 0l250.22-250.22a89.189 89.189 0 0 0 0-126.14zm-372.743 429.43-5.558-12.626 118.629-118.63a6 6 0 1 0 -8.484-8.486l-115.331 115.333-23.908-54.314 219.877-219.876 12.067 12.067-20.074 20.076a6 6 0 0 0 0 8.485l24.068 24.068a6 6 0 0 0 8.484 0l20.076-20.075 12.066 12.067zm273.307-273.307-22.91 22.91-56.687-56.687 22.91-22.909zm-48.2-65.171 37.82-37.82 56.686 56.687-37.819 37.819zm-3.744 76.014-15.833 15.832-15.583-15.583 15.832-15.832zm142.9-49.311-250.227 250.219a10.9 10.9 0 0 1 -15.418 0l-10.047-10.047 243.765-243.765a6 6 0 0 0 0-8.486l-65.169-65.172a6 6 0 0 0 -8.485 0l-243.767 243.77-10.05-10.05a10.9 10.9 0 0 1 0-15.417l250.223-250.222a77.195 77.195 0 1 1 109.17 109.17z" fill="#284268"/></svg>