<svg id="Layer_1" height="512" viewBox="0 0 512 512" width="512" xmlns="http://www.w3.org/2000/svg" data-name="Layer 1"><path d="m141.314 442.9-22.62 22.58a51.032 51.032 0 0 1 -72.17-72.17l22.58-22.62.08.08 71.58 71.58z" fill="#4689d3"/><path d="m186.364 397.916-45.05 44.98-.55-.55-71.58-71.58-.08-.08 44.98-45.05.16.16 35.74 35.75h.01l35.84 35.84z" fill="#edb740"/><path d="m480.404 31.596-17.82 54.19-.47-.16-36.14-36.14z" fill="#6d7486"/><path d="m389.124 122.406-17.37-54.86.34-.34 53.88-17.72 36.14 36.14.47.16-17.77 54.07-.1-.03-55.48-17.06z" fill="#edb740"/><path d="m389.124 122.406-239.13 239.14h-.01l-35.74-35.75-.16-.16 257.67-258.09z" fill="#e75163"/><path d="m444.714 139.826.1.03-.02.05-258.43 258.01-.53-.53-35.84-35.84 239.13-239.14.11.36z" fill="#fb6771"/><path d="m114.084 325.636-44.979 45.052.079.078 19.921 19.922 44.976-45.049-19.837-19.843z" fill="#eadf53"/><path d="m372.494 67.075-.4.131-.227.227-.113.113v.001l9.623 30.393 10.377-10.394.34-.34 53.882-17.717-19.998-19.998z" fill="#d8a43d"/><path d="m114.244 325.796 19.837 19.843 247.296-247.699-9.623-30.393-257.67 258.089z" fill="#fb6771"/><path d="m66.524 413.306 22.58-22.62-19.92-19.92-.08-.08-22.58 22.62a51.029 51.029 0 0 0 11.444 80.726 51.016 51.016 0 0 1 8.556-60.726z" fill="#5fa8ed"/><path d="m484.642 27.358a6.005 6.005 0 0 0 -6.117-1.457l-108.3 35.607a6 6 0 0 0 -2.372 1.461l-325.578 326.094a57.037 57.037 0 0 0 80.663 80.662l326.093-325.577a6 6 0 0 0 1.461-2.372l35.608-108.301a6 6 0 0 0 -1.458-6.117zm-115.627 51.429 13.285 41.959-232.312 232.311-27.426-27.425zm-254.556 382.446a45.037 45.037 0 0 1 -63.692-63.692l18.339-18.368 63.721 63.721zm26.86-26.818-63.734-63.734 36.5-36.557 63.792 63.792zm45.049-44.977-27.895-27.895 232.088-232.089 42.971 13.212zm254.577-257.047-46.945-14.433-14.8-46.768 45.152-14.845 31.306 31.307zm18.909-57.511-22.734-22.734 33.87-11.135z" fill="#284268"/></svg>