<svg id="Layer_1" height="512" viewBox="0 0 512 512" width="512" xmlns="http://www.w3.org/2000/svg" data-name="Layer 1"><path d="m276.34 231.49v22.56h-47.48v-44.4a30.991 30.991 0 0 0 29.61 21.84z" fill="#d8ff33"/><path d="m171.66 195.08a21.1 21.1 0 0 1 -1.05-6.59v-50.75a21.132 21.132 0 0 1 21.15-21.15h44.36a30.932 30.932 0 0 0 -8.63 21.46v62.46a30.944 30.944 0 0 0 1.37 9.13h-37.1a21.161 21.161 0 0 1 -20.1-14.56z" fill="#e75163"/><path d="m176.3 245.59-10.57 23.73v.42h-18.88v-.42l-10.58-23.73h20.02z" fill="#a0eaea"/><path d="m135.22 269.74v80.44a19.922 19.922 0 0 0 19.92 19.92h2.29a19.924 19.924 0 0 0 19.93-19.92v-80.44z" fill="#fb6771"/><path d="m170.61 137.74a21.147 21.147 0 0 1 1.24-7.15l-.02-.01h-42.17v64.5h42a21.1 21.1 0 0 1 -1.05-6.59z" fill="#b0b5ca"/><path d="m74.64 121.32h32.52v83.59h-32.52z" fill="#b0b5ca"/><path d="m107.16 141.44h22.5v43.35h-22.5z" fill="#ccd3df"/><path d="m74.64 136.15v53.93h-23.14a25.5 25.5 0 0 1 -25.5-25.5v-2.93a25.5 25.5 0 0 1 25.5-25.5z" fill="#ccd3df"/><path d="m406.7 300.98-6.62-27.08a52.949 52.949 0 0 0 -51.94-42.41h-89.67a30.991 30.991 0 0 1 -29.61-21.84v-.01a30.944 30.944 0 0 1 -1.37-9.13v-62.46a30.969 30.969 0 0 1 30.98-30.98h120.59c38.8 0 69.59 23.91 76.38 57.19l29.64 181.74a52.631 52.631 0 0 1 -28.08 56.76 20.167 20.167 0 0 1 -28.55-12.75z" fill="#5fa8ed"/><path d="m160.22 350.18v-80.44h-25v80.44a19.922 19.922 0 0 0 19.92 19.92h2.29a19.829 19.829 0 0 0 11.359-3.563 19.887 19.887 0 0 1 -8.569-16.357z" fill="#e75163"/><path d="m51 164.58v-2.93a25.5 25.5 0 0 1 23.64-25.425v-.075h-23.14a25.5 25.5 0 0 0 -25.5 25.5v2.93a25.5 25.5 0 0 0 25.5 25.5h23.14v-.075a25.5 25.5 0 0 1 -23.64-25.425z" fill="#b0b5ca"/><path d="m253.86 209.65v-.01a30.944 30.944 0 0 1 -1.37-9.13v-62.46a30.969 30.969 0 0 1 30.98-30.98h-25a30.969 30.969 0 0 0 -30.98 30.98v62.46a30.944 30.944 0 0 0 1.37 9.13v.01a30.991 30.991 0 0 0 29.61 21.84h25a30.991 30.991 0 0 1 -29.61-21.84z" fill="#4689d3"/><path d="m453.45 390.01-21.75-89.03-6.62-27.08a52.949 52.949 0 0 0 -51.94-42.41h-25a52.949 52.949 0 0 1 51.94 42.41l6.62 27.08 21.75 89.03a20.167 20.167 0 0 0 28.55 12.75q1.861-.937 3.633-2.015a19.985 19.985 0 0 1 -7.183-10.735z" fill="#4689d3"/><path d="m266.3 142.49h97.28v48.64h-97.28z" fill="#d8ff33"/><g fill="#284268"><path d="m490.986 344.965-29.622-181.672c-.012-.078-.027-.156-.043-.234-7.449-36.5-41.276-61.988-82.261-61.988h-120.592a36.835 36.835 0 0 0 -24.735 9.517h-41.976a27.167 27.167 0 0 0 -23.735 13.988h-38.366a6 6 0 0 0 -6 6v4.861h-10.492v-14.119a6 6 0 0 0 -6-6h-32.523a6 6 0 0 0 -6 6v8.831h-17.141a31.536 31.536 0 0 0 -31.5 31.5v2.928a31.536 31.536 0 0 0 31.5 31.5h17.141v8.831a6 6 0 0 0 6 6h32.523a6 6 0 0 0 6-6v-14.118h10.492v4.287a6 6 0 0 0 6 6h20.633v38.514h-14.016a6 6 0 0 0 -5.48 8.442l7 15.705h-2.576a6 6 0 0 0 -6 6v80.439a25.957 25.957 0 0 0 25.928 25.923h2.288a25.957 25.957 0 0 0 25.928-25.927v-80.435a6 6 0 0 0 -6-6h-2.576l7-15.705a6 6 0 0 0 -5.48-8.442h-14.016v-38.514h5.424a27.172 27.172 0 0 0 24.044 14.563h31.1v38.41a6 6 0 0 0 6 6h47.485a6 6 0 0 0 6-6v-16.558h65.8a46.611 46.611 0 0 1 16.206 2.91v31.687a34.93 34.93 0 0 0 34.891 34.891h2.746l20.641 84.451c.011.045.022.089.034.133a26.142 26.142 0 0 0 37.04 16.558 58.917 58.917 0 0 0 31.286-63.157zm-422.345-160.888h-17.141a19.523 19.523 0 0 1 -19.5-19.5v-2.928a19.523 19.523 0 0 1 19.5-19.5h17.141zm32.523 14.831h-20.523v-71.59h20.523zm22.492-20.118h-10.492v-31.353h10.492zm47.7 171.387a13.943 13.943 0 0 1 -13.923 13.923h-2.288a13.944 13.944 0 0 1 -13.929-13.927v-74.435h30.145zm-4.3-98.586-5.414 12.147h-10.712l-5.413-12.147zm-2.438-62.514h-28.962v-52.5h28.982c-.016.385-.03.771-.03 1.159v50.756c0 .196.011.39.015.585zm56.864-51.025v62.46c0 1.054.055 2.095.142 3.128h-29.867a15.172 15.172 0 0 1 -13.974-9.306 5.972 5.972 0 0 0 -.7-2.17 15.033 15.033 0 0 1 -.47-3.673v-50.756a15.165 15.165 0 0 1 15.149-15.147h33.132a36.736 36.736 0 0 0 -3.407 15.464zm48.854 110h-35.48v-19.1a36.811 36.811 0 0 0 23.612 8.544h11.873zm106.007 24.039v-25.136a46.977 46.977 0 0 1 17.857 28.145c.016.075.032.149.051.224l4.8 19.653a22.916 22.916 0 0 1 -22.703-22.888zm77.957 125.309a14.161 14.161 0 0 1 -20.036-8.9l-28.332-115.917a59.208 59.208 0 0 0 -57.79-47.091h-89.674a25.009 25.009 0 0 1 -24.981-24.98v-62.46a25.009 25.009 0 0 1 24.981-24.981h120.592c35.172 0 64.137 21.489 70.48 52.274l29.614 181.621c.008.048.017.1.026.144a46.862 46.862 0 0 1 -24.88 50.29z"/><path d="m363.577 136.494h-97.277a6 6 0 0 0 -6 6v48.641a6 6 0 0 0 6 6h97.281a6 6 0 0 0 6-6v-48.641a6 6 0 0 0 -6.004-6zm-6 48.641h-85.277v-36.641h85.281z"/></g></svg>