<svg id="Layer_1" height="512" viewBox="0 0 512 512" width="512" xmlns="http://www.w3.org/2000/svg" data-name="Layer 1"><path d="m418.28 483.13-54.74 2.87-72.61-246.55-10.23-34.72a146.652 146.652 0 0 1 -24.7 2.08 145.611 145.611 0 0 1 -24.7-2.09 132.973 132.973 0 0 1 -38.78-12.85c-31.43-16.28-52.17-44.3-52.17-76.14 0-44.95 41.36-82.3 95.74-89.73v26.19c-29.85 6.51-51.68 27.28-51.68 51.89 0 29.83 32.05 54.01 71.59 54.01 20.88 0 39.67-6.74 52.75-17.51l.01.01s4.39 20.53 11.05 51.11h.01c15.99 73.38 45.11 204.65 58.17 248.98 7.54 25.6 40.29 42.45 40.29 42.45z" fill="#5fa8ed"/><path d="m371.65 115.73c0 31.73-20.6 59.65-51.83 75.97h-.01c-6.66-30.58-11.05-51.11-11.05-51.11l-.01-.01c11.7-9.6 18.84-22.42 18.84-36.5 0-24.38-21.41-44.99-50.83-51.7l-.01-26.26c53.97 7.7 94.9 44.89 94.9 89.61z" fill="#4689d3"/><path d="m231.3 204.72v.01l-10.23 34.72-72.61 246.55-54.74-2.87s32.75-16.85 40.29-42.45c17.06-57.91 53.06-223.76 58.51-248.81a132.973 132.973 0 0 0 38.78 12.85z" fill="#4689d3"/><path d="m412.358 483.44 5.922-.31a112.146 112.146 0 0 1 -16.626-11.075 82.9 82.9 0 0 0 10.704 11.385z" fill="#f9ed32"/><path d="m155.35 130.73c0-40.715 33.934-75.194 80.74-86.851v-17.879c-54.38 7.43-95.74 44.78-95.74 89.73 0 24.69 12.477 47.078 32.732 63.481-11.231-14.039-17.732-30.661-17.732-48.481z" fill="#4689d3"/><path d="m421.028 477.79c-.3-.157-30.549-15.938-37.285-38.809-12.674-43.032-40.915-170.036-57.1-244.168 32.03-18.212 51.007-47.488 51.007-79.081 0-47.1-42.077-87.284-100.05-95.555a6 6 0 0 0 -6.848 5.943l.014 26.261a6 6 0 0 0 4.665 5.847c27.179 6.2 46.163 25.06 46.163 45.855 0 12.019-6.064 23.019-16.07 31.45a5.974 5.974 0 0 0 -1.09.9c-12 9.621-29.27 15.665-48.431 15.665-36.167 0-65.591-21.537-65.591-48.011 0-21.075 19.309-40 46.955-46.032a6 6 0 0 0 4.722-5.861v-26.189a6 6 0 0 0 -6.813-5.946c-58.479 7.992-100.924 48.23-100.924 95.677 0 32.649 20.3 61.585 51.36 79.192-26.006 119.433-46.923 208.3-57.456 244.057-6.711 22.785-36.986 38.654-37.285 38.809a6 6 0 0 0 2.429 11.323l54.744 2.875c.106.006.211.008.317.008a6 6 0 0 0 5.753-4.305l71.346-242.246h24.44v4.167a6 6 0 0 0 12 0v-4.167h24.439l71.346 242.251a6 6 0 0 0 5.753 4.3c.106 0 .211 0 .317-.008l54.744-2.875a6 6 0 0 0 2.429-11.327zm-87.437-373.707c0-25.57-20.231-47.768-50.83-56.369l-.008-14.5c48.432 9.409 82.894 43.284 82.894 82.522 0 26.133-15.443 50.62-41.7 66.735-4.191-19.259-7.271-33.571-8.6-39.765 11.378-10.448 18.244-23.928 18.244-38.623zm-118.243 133.566c-.005.015-.009.03-.014.045l-71.292 242.066-31.655-1.66c10.395-8 22.837-20.3 27.382-35.726 14.242-48.362 41.283-169.719 57.01-241.87a139.558 139.558 0 0 0 26.91 8.825zm46.652-4.2v-4.167a6 6 0 0 0 -12 0v4.167h-20.9l6.484-22.014a152.07 152.07 0 0 0 20.416 1.375 153.5 153.5 0 0 0 20.426-1.361l6.479 22zm105.958 246.311-71.292-242.066c0-.015-.009-.03-.014-.045l-10.195-34.617a6 6 0 0 0 -5.751-4.305 6.066 6.066 0 0 0 -1.018.086 140.511 140.511 0 0 1 -23.688 2c-60.46 0-109.647-38.165-109.647-85.078 0-19.893 9.075-39.261 25.553-54.536 15.115-14.011 35.576-23.872 58.183-28.143v14.432c-30.664 8.374-51.678 31.119-51.678 56.6 0 33.09 34.807 60.011 77.591 60.011 18.47 0 35.455-5.018 48.794-13.383 1.89 8.778 5.079 23.545 9.1 42 .031.179.069.357.117.534 16.054 73.6 45.212 204.971 58.216 249.13 4.545 15.431 16.987 27.725 27.382 35.726z" fill="#284268"/></svg>