<svg id="Layer_1" height="512" viewBox="0 0 512 512" width="512" xmlns="http://www.w3.org/2000/svg" data-name="Layer 1"><g fill="#b0b5ca"><path d="m486 47.04-28.28 28.28-13.97-28.11 21.21-21.21z"/><path d="m436.5 96.53-21.21 21.22-13.97-28.11 21.22-21.21z"/><path d="m380.11 110.85 13.97 28.11-21.22 21.21-13.96-28.1z"/><path d="m337.68 153.28 13.97 28.11-21.21 21.21-13.97-28.11z"/><path d="m295.26 195.71 13.96 28.1-21.21 21.22-13.97-28.11z"/><path d="m266.8 266.23v.01l-21.22 21.21-13.96-28.1 21.21-21.21z"/></g><path d="m443.75 47.21 13.97 28.11-21.22 21.21-13.96-28.1z" fill="#ccd3df"/><path d="m401.32 89.64 13.97 28.11-21.21 21.21-13.97-28.11z" fill="#ccd3df"/><path d="m372.86 160.17-21.21 21.22-13.97-28.11 21.22-21.21z" fill="#ccd3df"/><path d="m316.47 174.49 13.97 28.11-21.22 21.21-13.96-28.1z" fill="#ccd3df"/><path d="m274.04 216.92 13.97 28.11-21.21 21.2-13.97-28.09v-.01z" fill="#ccd3df"/><path d="m231.62 259.35 13.96 28.1-32.15 32.15-.33.33-21.03-21.03.33-.33z" fill="#ccd3df"/><path d="m219.37 326.2-33.57-33.57a9.94 9.94 0 0 0 -15.05 12.9 10.84 10.84 0 0 0 .99 1.16l33.57 33.57a10.84 10.84 0 0 0 1.16.99 9.94 9.94 0 0 0 12.9-15.05z" fill="#6ebeff"/><path d="m46.916 381.731h99.349v67.359h-99.349z" fill="#fb6771" transform="matrix(.707 -.707 .707 .707 -265.449 189.97)"/><path d="m85.28 474.35-1.79 1.79a33.679 33.679 0 0 1 -47.63-47.63l1.79-1.79z" fill="#5fa8ed"/><path d="m205.31 340.26a10.84 10.84 0 0 0 1.16.99l-.34.49a38.99 38.99 0 0 0 -39.01 39.01l-.01-.01a33.521 33.521 0 0 1 -9.79 21.57l-1.79 1.79-47.63-47.63 1.79-1.79a33.545 33.545 0 0 1 21.58-9.79l-.02-.01a38.99 38.99 0 0 0 39.01-39.01l.49-.34a10.84 10.84 0 0 0 .99 1.16z" fill="#5fa8ed"/><path d="m33.101 387.453h99.349v28.284h-99.349z" fill="#e75163" transform="matrix(.707 -.707 .707 .707 -259.726 176.155)"/><path d="m46 472.32a33.531 33.531 0 0 1 9.86-23.81l1.79-1.79-20-20-1.79 1.79a33.673 33.673 0 0 0 12.2 55.426 33.806 33.806 0 0 1 -2.06-11.616z" fill="#4689d3"/><path d="m151.27 364.89-.02-.01a38.851 38.851 0 0 0 24.6-8.729 39.177 39.177 0 0 1 5.682-5.682 38.851 38.851 0 0 0 8.729-24.6l.39-.27-18.91-18.91a10.84 10.84 0 0 1 -.99-1.16l-.49.34a38.99 38.99 0 0 1 -39.01 39.01l.02.01a33.545 33.545 0 0 0 -21.58 9.79l-1.79 1.79 20 20 1.79-1.79a33.545 33.545 0 0 1 21.579-9.789z" fill="#4689d3"/><path d="m206.47 341.25a10.84 10.84 0 0 1 -1.16-.99l1.09 1.09z" fill="#f9ed32"/><path d="m469.206 21.757a6 6 0 0 0 -8.485 0l-268.656 268.657-2.026-2.026a15.931 15.931 0 0 0 -25.787 17.833 33.045 33.045 0 0 1 -33 32.661 5.965 5.965 0 0 0 -.737.045 39.65 39.65 0 0 0 -25.065 11.51l-73.828 73.827a39.679 39.679 0 0 0 56.115 56.114l73.826-73.826a39.652 39.652 0 0 0 11.512-25.088 6.047 6.047 0 0 0 .042-.715 33.045 33.045 0 0 1 32.68-33 15.929 15.929 0 0 0 17.816-25.784l-2.027-2.027 268.657-268.66a6 6 0 0 0 0-8.484zm-429.099 450.137a27.717 27.717 0 0 1 -2.3-36.53l38.826 38.825a27.716 27.716 0 0 1 -36.526-2.295zm45.173-6.03-39.145-39.144 61.77-61.77 39.145 39.15zm75.838-85.437a27.616 27.616 0 0 1 -5.757 15.01l-38.8-38.8a27.619 27.619 0 0 1 15.025-5.758 45.088 45.088 0 0 0 43-32.868l19.4 19.4a45.087 45.087 0 0 0 -32.868 43.016zm54.01-44.41a3.942 3.942 0 0 1 -5.571 0l-33.574-33.575a3.939 3.939 0 0 1 0-5.571 4.033 4.033 0 0 1 5.57 0l33.575 33.575a3.94 3.94 0 0 1 0 5.57zm-2.028-24.567-12.55-12.55 29.408-29.409 8.333 16.771zm34.142-34.141-8.332-16.771 12.261-12.261 8.332 16.77zm21.215-21.209-8.333-16.771 12.261-12.261 8.333 16.77zm21.212-21.213-8.332-16.77 12.263-12.266 8.332 16.77zm21.214-21.213-8.333-16.774 12.262-12.261 8.332 16.77zm21.217-21.219-8.332-16.77 12.261-12.261 8.332 16.77zm21.213-21.213-8.332-16.77 12.261-12.261 8.332 16.77zm21.213-21.213-8.332-16.77 12.257-12.259 8.333 16.77zm21.214-21.214-8.332-16.77 12.261-12.261 8.331 16.77zm21.209-21.215-8.333-16.77 12.261-12.262 8.333 16.77zm21.213-21.214-8.332-16.77 12.261-12.261 8.332 16.77zm21.213-21.213-8.332-16.77 13.92-13.921 12.552 12.551z" fill="#284268"/></svg>