<svg id="Layer_1" height="512" viewBox="0 0 512 512" width="512" xmlns="http://www.w3.org/2000/svg" data-name="Layer 1"><path d="m450.17 112.57 24.89-11.75-23.53-14.32-.02-.02 15.2-23-27.55-.02 1.1-27.56-23.6 14.22-13.32-24.12-12.82 24.38-21.43-16.24-4.82 25.92.06.06-22.43-3.96 3.95 22.44-22.43-3.96 3.95 22.44-22.43-3.96 3.95 22.44-22.43-3.96 3.95 22.44-22.43-3.96 3.95 22.44-22.43-3.96 3.95 22.44-22.43-3.96 3.95 22.44-22.43-3.96 3.95 22.44-22.43-3.96 3.95 22.44-.36.37 76.7 76.7.37-.37 22.43 3.96-3.95-22.44 22.43 3.96-3.95-22.44 22.43 3.96-3.95-22.44 22.43 3.96-3.95-22.44 22.43 3.96-3.95-22.44 22.43 3.96-3.95-22.44 22.43 3.96-3.95-22.44 22.43 3.96-3.95-22.44 22.43 3.96-4.58-21.81 25.96-3.72z" fill="#b0b5ca"/><path d="m287.18 316.34-100.13-100.13a20.367 20.367 0 0 0 -30.72 2.22l-115.34 154.43a20.358 20.358 0 0 0 1.92 26.59l80.58 80.58a20.352 20.352 0 0 0 28.8 0l134.89-134.88a20.382 20.382 0 0 0 0-28.81zm-136.95 110.75a20.008 20.008 0 0 1 -28.29 0l-28.9-28.9a20 20 0 0 1 0-28.28l11.96-11.96 57.18 57.18z" fill="#6d7486"/><path d="m197.65 226.81-10.6-10.6a20.367 20.367 0 0 0 -30.72 2.22l-115.34 154.43a20.358 20.358 0 0 0 1.92 26.59l20.742 20.742a20.361 20.361 0 0 1 1.338-22.332l115.34-154.43a20.367 20.367 0 0 1 30.72-2.22l2.21 1.22v-.01z" fill="#4a5160"/><path d="m283.33 313.49 7.052 7.052a20.36 20.36 0 0 0 -3.2-4.2" fill="#4a5160"/><path d="m421.33 80.41a32.58 32.58 0 0 1 0 46.07l-162 162.01h-.01l-46.06-46.06v-.01l162.01-162.01a32.568 32.568 0 0 1 46.06 0zm-15.81 33.34a12.389 12.389 0 1 0 -17.52 0 12.385 12.385 0 0 0 17.52 0z" fill="#f5cac1"/><path d="m385.516 110.164a12.376 12.376 0 0 1 17.826-15.664 32.643 32.643 0 0 1 25.708-1.815 32.574 32.574 0 0 0 -53.78-12.275l-162.01 162.01v.01l20 20v-.01z" fill="#fdddd8"/><g fill="#284268"><path d="m478.18 95.692-18.231-11.092 11.765-17.806a6 6 0 0 0 -5-9.308l-21.31-.02.847-21.323a6 6 0 0 0 -9.091-5.378l-18.262 11-10.298-18.665a6 6 0 0 0 -5.253-3.1h-.062a6 6 0 0 0 -5.249 3.208l-9.523 18.114-15.798-11.968a6 6 0 0 0 -9.524 3.686l-3.739 20.125-16.514-2.91a6 6 0 0 0 -6.951 6.95l2.467 14-14-2.467a6 6 0 0 0 -6.95 6.951l2.467 14-14-2.467a6 6 0 0 0 -6.951 6.95l2.467 14-14-2.467a6 6 0 0 0 -6.951 6.951l2.467 14-14-2.467a6 6 0 0 0 -6.951 6.95l2.467 14-14-2.467a6 6 0 0 0 -6.95 6.95l2.467 14-14-2.467a6 6 0 0 0 -6.951 6.95l2.467 14-14-2.467a6 6 0 0 0 -6.95 6.951l2.467 14-14-2.467a6 6 0 0 0 -6.951 6.95l.864 4.9a26.36 26.36 0 0 0 -37.49 4.893l-27.076 36.253-24.494-24.551a6 6 0 0 0 -9.234.914l-56.927 85.395a6 6 0 0 0 .75 7.57l21.832 21.833-20.162 27a26.5 26.5 0 0 0 2.482 34.42l80.581 80.583a26.4 26.4 0 0 0 37.287 0l134.889-134.893a26.358 26.358 0 0 0 .089-37.194l4.6.811a6.118 6.118 0 0 0 1.041.091 6 6 0 0 0 5.91-7.041l-2.467-14 14 2.466a6 6 0 0 0 6.95-6.95l-2.467-14 14 2.467a6 6 0 0 0 6.951-6.95l-2.467-14 14 2.466a6 6 0 0 0 6.95-6.95l-2.467-14 14 2.467a6 6 0 0 0 6.95-6.95l-2.466-14 14 2.466a6 6 0 0 0 6.95-6.95l-2.467-14 14 2.467a6 6 0 0 0 6.95-6.95l-2.466-14 14 2.467a6 6 0 0 0 6.95-6.95l-2.467-14 14 2.467a6 6 0 0 0 6.914-7.143l-3.291-15.517 19.622-2.811a6 6 0 0 0 3.914-9.586l-11.681-15.26 18.169-8.579a6 6 0 0 0 .558-10.551zm-431.706 219.747 50.138-75.211 20.578 20.577-53.59 71.759zm236.462 25.461-134.889 134.893a14.385 14.385 0 0 1 -20.318 0l-80.582-80.583a14.442 14.442 0 0 1 -1.347-18.755l115.34-154.437a14.353 14.353 0 0 1 10.476-5.733c.346-.025.692-.037 1.036-.037a14.362 14.362 0 0 1 10.158 4.207l100.13 100.132a14.366 14.366 0 0 1 0 20.317zm-61.191-98.478 157.77-157.77a26.571 26.571 0 0 1 37.577 37.577l-157.77 157.771zm225.866-135.278a6 6 0 0 0 -2.2 9.072l9.971 13.026-15.819 2.267a6 6 0 0 0 -5.022 7.172l2.756 13.127-13.7-2.414a6 6 0 0 0 -6.951 6.95l2.467 14-14-2.467c-.046-.008-.092-.01-.138-.017-.1-.016-.208-.028-.312-.039s-.191-.017-.286-.022-.2-.007-.3-.007-.2 0-.3.007-.2.013-.3.023-.2.022-.3.037c-.049.007-.1.009-.148.018s-.109.026-.164.038c-.086.017-.171.037-.255.058-.119.03-.236.062-.351.1q-.09.029-.18.06c-.134.048-.267.1-.4.155l-.11.05c-.145.067-.287.138-.426.215l-.069.04c-.144.084-.285.171-.42.266-.023.015-.045.032-.067.048-.131.093-.259.191-.382.294l-.09.08c-.109.1-.216.194-.318.3-.042.043-.083.088-.124.133-.085.091-.168.184-.247.28-.051.062-.1.127-.148.191-.064.086-.128.171-.187.26s-.1.156-.149.236-.1.169-.148.255-.089.171-.131.258-.086.182-.125.275-.066.166-.1.25c-.039.106-.076.213-.109.322-.023.074-.044.15-.064.226-.032.122-.06.246-.085.37-.007.038-.018.073-.025.111s-.007.07-.013.105c-.019.123-.034.246-.046.37-.008.084-.015.168-.02.251 0 .105-.007.21-.007.315s0 .211.007.315c0 .084.012.167.02.251.012.124.027.248.046.37.006.035.007.07.013.105l2.467 14-14-2.466a6 6 0 0 0 -6.95 6.951l2.466 14-14-2.467a6 6 0 0 0 -6.95 6.951l2.467 14-14-2.467a6 6 0 0 0 -6.95 6.951l2.466 14-14-2.467a6 6 0 0 0 -6.95 6.95l2.467 14-14-2.467a6 6 0 0 0 -6.951 6.951l2.466 14-14-2.467a6 6 0 0 0 -6.951 6.95l2.467 14-13.032-2.3-8.915-8.915 157.769-157.77a38.57 38.57 0 1 0 -54.511-54.576l-157.769 157.769-9.511-9.511-2.3-13.031 14 2.467a6 6 0 0 0 6.95-6.95l-2.466-14 14 2.467a6 6 0 0 0 6.95-6.951l-2.467-14 14 2.467a6 6 0 0 0 6.95-6.95l-2.466-14 14 2.467a6 6 0 0 0 6.95-6.95l-2.467-14 14 2.467a6 6 0 0 0 6.951-6.95l-2.466-14 14 2.467a6 6 0 0 0 6.95-6.95l-2.467-14 14 2.466a6 6 0 0 0 6.95-6.95l-2.467-14 14 2.467a6 6 0 0 0 6.95-6.951l-2.467-14 14 2.466a5.98 5.98 0 0 0 6.335-3.167 5.909 5.909 0 0 0 .647-2.234l2.943-15.836 13.52 10.246a6 6 0 0 0 9.1-1.86l7.638-14.527 7.899 14.396a6.005 6.005 0 0 0 8.352 2.239l14.063-8.472-.652 16.436a6 6 0 0 0 5.989 6.238l16.405.016-9.054 13.7a6.021 6.021 0 0 0 1.208 7.953 5.905 5.905 0 0 0 .695.493l14.014 8.528z"/><path d="m383.755 91.987a18.389 18.389 0 1 0 26.006 0 18.409 18.409 0 0 0 -26.006 0zm17.521 17.521a6.387 6.387 0 1 1 0-9.036 6.4 6.4 0 0 1 0 9.036z"/><path d="m147.724 291.227a5.979 5.979 0 0 0 4.242-1.758l30.05-30.05a6 6 0 1 0 -8.485-8.484l-30.05 30.049a6 6 0 0 0 4.243 10.243z"/><path d="m158.507 304.493a6 6 0 0 0 8.484 0l30.05-30.05a6 6 0 0 0 -8.484-8.484l-30.05 30.05a6 6 0 0 0 0 8.484z"/><path d="m212.066 280.984a6 6 0 0 0 -8.485 0l-30.05 30.049a6 6 0 0 0 8.485 8.487l30.049-30.049a6 6 0 0 0 .001-8.487z"/><path d="m227.091 296.009a6 6 0 0 0 -8.485 0l-30.049 30.05a6 6 0 1 0 8.484 8.484l30.05-30.05a6 6 0 0 0 0-8.484z"/><path d="m242.115 311.033a6 6 0 0 0 -8.484 0l-30.05 30.05a6 6 0 1 0 8.484 8.484l30.05-30.049a6 6 0 0 0 0-8.485z"/><path d="m248.654 326.059-30.049 30.049a6 6 0 0 0 8.487 8.485l30.049-30.05a6 6 0 0 0 -8.487-8.484z"/><path d="m109.239 353.711a6 6 0 0 0 -8.485 0l-11.954 11.954a26.028 26.028 0 0 0 0 36.769l28.9 28.9a26.028 26.028 0 0 0 36.77 0l11.953-11.953a6 6 0 0 0 0-8.484zm36.744 69.135a14.02 14.02 0 0 1 -19.8 0l-28.9-28.9a14 14 0 0 1 0-19.8l7.71-7.711 48.7 48.7z"/></g></svg>