<svg id="Layer_1" height="512" viewBox="0 0 512 512" width="512" xmlns="http://www.w3.org/2000/svg" data-name="Layer 1"><path d="m376.48 239.63v109.19h-240.96v-109.19z" fill="#fb6771"/><path d="m380.77 167.97c-10.07 6.5-24.82 8.38-36.62 3l-.12-3.98c9.91-3.39 31.85-20.94 23.63-44.92-6.9 9.79-19.88 17.06-32.83 16.48l-2.42-5.05c7.8-7 21.13-31.73 4.18-50.59-2.52 11.71-11.62 23.47-23.77 28.01l-2.9-2.72c4.61-9.41 7.72-37.33-15.05-48.49 2.04 11.81-2 26.13-11.56 34.88l-5.28-1.86c.56-10.46-7.5-37.38-32.82-38.73 6.5 10.06 8.38 24.82 3 36.61l-3.98.13c-3.39-9.91-20.94-31.86-44.93-23.64 9.8 6.9 17.06 19.88 16.49 32.83l-5.05 2.42c-7-7.79-31.73-21.12-50.6-4.18 11.72 2.52 23.48 11.63 28.02 23.77l-2.73 2.9c-9.41-4.61-37.33-7.72-48.48 15.06 11.81-2.05 26.12 1.99 34.87 11.56l-1.85 5.28c-10.47-.56-37.38 7.5-38.74 32.82 10.07-6.5 24.82-8.38 36.62-3l.12 3.97c-6.27 2.15-17.35 9.96-22.57 21.49h201.95a34.979 34.979 0 0 1 -7.17-5.95l1.86-5.28c10.46.56 37.37-7.5 38.73-32.82z" fill="#ccd3df"/><path d="m135.52 239.63h30v109.19h-30z" fill="#e75163"/><path d="m323.14 178.76a66.94 66.94 0 0 1 -8.79 33.26h-116.69a67.146 67.146 0 1 1 125.48-33.26z" fill="#6d7486"/><path d="m188.86 178.76a66.844 66.844 0 0 0 8.8 33.26h30a67.163 67.163 0 0 1 43.34-98.7 67.117 67.117 0 0 0 -82.14 65.437z" fill="#4a5160"/><path d="m347.52 265.95v56.55h-89.9v-56.55z" fill="#d8ff33"/><path d="m291.19 283.12a11.105 11.105 0 1 1 -11.1 11.1 11.1 11.1 0 0 1 11.1-11.1z" fill="#6d7486"/><path d="m49.85 239.63h31.87v218.37h-31.87z" fill="#d8a43d"/><path d="m430.28 239.63h31.87v218.37h-31.87z" fill="#d8a43d"/><path d="m26 212.02h460v27.61h-460z" fill="#edb740"/><g fill="#284268"><path d="m486 206.021h-135.213c15.042-2.968 34.724-14.428 35.972-37.728a6 6 0 0 0 -9.246-5.361 34.558 34.558 0 0 1 -22.419 4.9 52.955 52.955 0 0 0 12.4-12.047c5.609-7.687 11.175-20.115 5.848-35.666a6 6 0 0 0 -10.58-1.512 34.618 34.618 0 0 1 -21.182 13.449c8.918-12.545 15.508-35.316-.521-53.162a6 6 0 0 0 -10.329 2.748 34.581 34.581 0 0 1 -12.385 19.321 52.983 52.983 0 0 0 .248-17.285c-1.47-9.4-6.321-22.125-21.085-29.356a6 6 0 0 0 -8.551 6.413 34.614 34.614 0 0 1 -5.468 24.489c-2.566-15.179-14.008-35.939-37.959-37.223a6 6 0 0 0 -5.361 9.246 34.582 34.582 0 0 1 4.916 22.333c-8.668-12.523-26.268-25.51-47.725-18.161a6 6 0 0 0 -1.513 10.581 34.619 34.619 0 0 1 13.453 21.187c-12.548-8.919-35.317-15.506-53.161.521a6 6 0 0 0 2.748 10.33 34.578 34.578 0 0 1 19.313 12.384 52.9 52.9 0 0 0 -17.285-.248c-9.4 1.47-22.127 6.321-29.357 21.084a6 6 0 0 0 6.413 8.551 34.594 34.594 0 0 1 24.488 5.467c-15.178 2.567-35.939 14.008-37.222 37.959a6 6 0 0 0 9.246 5.362 34.563 34.563 0 0 1 22.421-4.905 51.1 51.1 0 0 0 -15.172 16.329h-115.732a6 6 0 0 0 -6 6v27.611a6 6 0 0 0 6 6h17.845v212.368a6 6 0 0 0 6 6h31.872a6 6 0 0 0 6-6v-32.019l168.283-22.508 168.283 22.508v32.019a6 6 0 0 0 6 6h31.872a6 6 0 0 0 6-6v-212.368h17.845a6 6 0 0 0 6-6v-27.611a6 6 0 0 0 -6-6zm-316.081-9.812a6 6 0 0 0 4.053-5.864l-.125-3.978a6 6 0 0 0 -3.508-5.27c-9.1-4.151-20.178-4.718-30.239-1.951 6.893-13.078 24.02-16.7 29.545-16.417a6.011 6.011 0 0 0 5.98-4l1.859-5.282a6 6 0 0 0 -1.233-6.043c-6.758-7.384-16.738-12.241-27.088-13.624a27.9 27.9 0 0 1 13.609-5.751c8.634-1.352 16.706.577 20.024 2.2a6 6 0 0 0 7.012-1.28l2.724-2.9a6 6 0 0 0 1.247-6.209c-3.5-9.37-10.93-17.606-20-22.761 14.118-4.373 28.8 5.167 32.5 9.283a6 6 0 0 0 7.058 1.4l5.049-2.421a6 6 0 0 0 3.4-5.145c.443-9.993-3.175-20.477-9.507-28.771 14.706 1.5 24.488 16.022 26.281 21.256a6 6 0 0 0 5.864 4.052l3.976-.125a6 6 0 0 0 5.271-3.507c4.15-9.1 4.72-20.179 1.95-30.24 13.076 6.9 16.713 24.022 16.417 29.545a6 6 0 0 0 4 5.982l5.282 1.858a6 6 0 0 0 6.042-1.234c7.384-6.758 12.242-16.739 13.624-27.087a27.881 27.881 0 0 1 5.752 13.608c1.351 8.636-.576 16.7-2.2 20.023a6 6 0 0 0 1.28 7.01l2.9 2.726a5.991 5.991 0 0 0 6.209 1.248c9.369-3.5 17.6-10.932 22.761-20 4.373 14.124-5.167 28.8-9.283 32.5a6 6 0 0 0 -1.4 7.056l2.419 5.051a6 6 0 0 0 5.146 3.4c10.012.439 20.493-3.18 28.788-9.521a27.907 27.907 0 0 1 -5.555 13.691c-5.152 7.06-12.221 11.4-15.715 12.6a6 6 0 0 0 -4.053 5.863l.123 3.978a6 6 0 0 0 3.508 5.274c9.1 4.149 20.178 4.717 30.239 1.95-6.894 13.078-24.015 16.706-29.543 16.417a6.025 6.025 0 0 0 -5.98 4l-1.861 5.281a5.963 5.963 0 0 0 -.328 1.944h-10.314a73.143 73.143 0 1 0 -135.759 0h-31.667c4.49-5.083 9.906-8.596 13.466-9.815zm147.224-17.445a61.2 61.2 0 0 1 -6.4 27.257h-109.482a61.146 61.146 0 1 1 115.882-27.257zm-241.426 273.236h-19.872v-206.368h19.872zm12-38.131v-32.904l123.022 16.454zm336.566 0-123.022-16.45 123.022-16.454zm0-45.016-168.283 22.512-168.283-22.508v-123.225h41.8v103.185a6 6 0 0 0 6 6h240.964a6 6 0 0 0 6-6v-103.185h41.8zm-282.764-26.04v-97.181h228.962v97.185zm314.636 109.187h-19.872v-206.368h19.872zm23.845-218.368h-448v-15.611h448z"/><path d="m347.524 259.95h-89.9a6 6 0 0 0 -6 6v56.55a6 6 0 0 0 6 6h89.9a6 6 0 0 0 6-6v-56.55a6 6 0 0 0 -6-6zm-6 56.549h-77.9v-44.549h77.9z"/><path d="m291.189 311.327a17.1 17.1 0 1 0 -17.1-17.1 17.122 17.122 0 0 0 17.1 17.1zm0-22.2a5.1 5.1 0 1 1 -5.1 5.1 5.108 5.108 0 0 1 5.1-5.104z"/><path d="m323.143 311.327a6 6 0 0 0 6-6v-22.2a6 6 0 0 0 -12 0v22.2a6 6 0 0 0 6 6z"/></g></svg>