<svg id="Layer_1" height="512" viewBox="0 0 512 512" width="512" xmlns="http://www.w3.org/2000/svg" data-name="Layer 1"><path d="m238.711 134.226h27.818v19.247h-27.818z" fill="#b0b5ca" transform="matrix(.707 -.707 .707 .707 -27.727 220.762)"/><path d="m396.41 143.98 71.75 71.75 17.84-17.84-45.29-72.74-64.73-64.73-16.92 16.93c-36.39-36.38-55.82-26.54-55.82-26.54l41.18 41.18-19.91 19.9 10.39 10.39-73.79 73.79-10.38-10.39-224.73 224.72 52 52" fill="#ccd3df"/><path d="m379.06 97.35 16.92-16.93 44.73 44.73-64.73-64.73-16.92 16.93c-36.39-36.38-55.82-26.54-55.82-26.54l20 20s19.43-9.84 55.82 26.54z" fill="#b0b5ca"/><path d="m281.11 216.07 73.79-73.79-10.39-10.39 19.91-19.9-20-20-19.91 19.9 10.39 10.39-73.79 73.79-10.38-10.39-224.73 224.72 20 20 224.73-224.72z" fill="#b0b5ca"/><path d="m448.26 235.63-17.85 17.84-72.74-45.29-42.22 42.22-12.73-12.73-10.82-10.82 73.79-73.79 10.82 10.82v.01z" fill="#fb6771"/><path d="m324.51 111.89 10.39 10.39-73.79 73.79-10.38-10.39-13.17-13.17 12.03-12.02 19.67-19.67 28.37-28.37c-21.16-21.62-15.1-42.55-15.1-42.55z" fill="#fb6771"/><path d="m445.8 121.976a5.993 5.993 0 0 0 -.852-1.072l-64.723-64.725a6 6 0 0 0 -8.486 0l-12.751 12.751c-35.688-33.461-56.162-24.63-58.459-23.468a6 6 0 0 0 -1.529 9.595l36.932 36.932-11.416 11.416-37.745-37.743a6 6 0 0 0 -10 2.574c-.27.931-5.991 21.744 12.585 44.007l-20.089 20.088-9.367-9.368a6 6 0 0 0 -8.485 0l-19.673 19.672a6 6 0 0 0 0 8.486l9.368 9.367-7.784 7.784a6 6 0 0 0 0 8.485l8.921 8.921-220.489 220.484a6 6 0 0 0 0 8.485l52 52a6 6 0 0 0 8.484 0l220.48-220.488 8.487 8.487a6 6 0 0 0 8.485 0l38.852-38.852 68.7 42.773a6 6 0 0 0 7.413-.85l17.841-17.842a6 6 0 0 0 0-8.486l-67.5-67.5 11.415-11.416 67.505 67.5a6 6 0 0 0 8.485 0l17.842-17.843a6 6 0 0 0 .851-7.414zm-143.933-5.282a6 6 0 0 0 .046-8.44c-8.642-8.828-12.192-17.374-13.518-24l38.02 38.02-65.3 65.3-15.065-15.066zm-46.217 19 5.125 5.125-11.185 11.181-5.125-5.125zm184.119 99.941-10.23 10.23-68.7-42.773a6 6 0 0 0 -7.413.85l-37.979 37.979-15.065-15.066 65.3-65.3zm28.387-28.386-66.7-66.7c-1.182-1.181-3.642-3.64-7.345-2.106a6.021 6.021 0 0 0 -1.947 1.3l-15.654 15.657-6.578-6.579a6 6 0 0 0 -8.485 0l-73.788 73.788a6 6 0 0 0 0 8.486l6.579 6.579-33.157 33.156-10.481-10.477a6 6 0 0 0 -8.487 8.485l10.487 10.478-8.169 8.169-22.145-22.144a6 6 0 1 0 -8.484 8.486l22.144 22.143-8.17 8.17-10.477-10.478a6 6 0 0 0 -8.486 8.485l10.477 10.479-8.169 8.169-22.144-22.144a6 6 0 1 0 -8.485 8.485l22.144 22.144-8.169 8.169-10.478-10.477a6 6 0 0 0 -8.486 8.485l10.478 10.478-8.17 8.17-22.144-22.144a6 6 0 0 0 -8.484 8.485l22.143 22.144-8.17 8.17-10.478-10.478a6 6 0 0 0 -8.485 8.485l10.479 10.478-8.17 8.169-22.143-22.143a6 6 0 0 0 -8.487 8.485l22.139 22.144-8.169 8.169-10.479-10.478a6 6 0 1 0 -8.484 8.486l10.478 10.477-8.17 8.17-22.143-22.144a6 6 0 0 0 -8.486 8.485l22.142 22.145-8.169 8.169-10.477-10.479a6 6 0 1 0 -8.485 8.485l10.478 10.478-8.047 8.052-43.515-43.515 216.241-216.237 6.145 6.146a6 6 0 0 0 8.485 0l73.789-73.788a6 6 0 0 0 0-8.486l-6.145-6.145 15.658-15.659a6 6 0 0 0 0-8.485l-31.077-31.078c8.231 2.159 20.708 8.4 37.232 24.923a6 6 0 0 0 8.486 0l12.683-12.684 60 60 42.41 68.112z" fill="#284268"/></svg>