<svg id="Layer_1" height="512" viewBox="0 0 512 512" width="512" xmlns="http://www.w3.org/2000/svg" data-name="Layer 1"><path d="m486 26-21.28 45.64-19.81-4.55-4.55-19.81z" fill="#b0b5ca"/><path d="m464.72 71.64-198.36 198.36-24.36-24.36 198.36-198.36 4.55 19.81z" fill="#ccd3df"/><path d="m300.27 303.92-14.71 14.7-92.18-92.18 14.7-14.71z" fill="#fb6771"/><path d="m258.27 318.9-24.07 24.08-65.18-65.18 24.08-24.07z" fill="#edb740"/><path d="m285.56 318.62-27.29.28-65.17-65.17.28-27.29z" fill="#e75163"/><path d="m224.23 379.96-95.74 95.74a20.008 20.008 0 0 1 0-28.29l67.46-67.45a20 20 0 0 1 28.28 0z" fill="#fb6771"/><path d="m178.14 333.86a20 20 0 0 1 0 28.29l-67.46 67.45a20 20 0 1 1 -28.28-28.28l67.45-67.46a20.008 20.008 0 0 1 28.29 0z" fill="#fb6771"/><path d="m234.2 342.98 2.94 24.07-12.91 12.91a20 20 0 0 0 -28.28 0l-67.46 67.45a20.008 20.008 0 0 0 0 28.29l-.57.57a33.226 33.226 0 0 1 -46.98 0l-45.21-45.21a33.226 33.226 0 0 1 0-46.98l.57-.57a20.008 20.008 0 0 0 28.29 0l67.45-67.46a20 20 0 0 0 0-28.28l12.91-12.91 24.07 2.94zm-50.2 5.02a20.005 20.005 0 0 0 -34.15-14.14l-67.45 67.46a20 20 0 1 0 28.28 28.28l67.46-67.45a19.985 19.985 0 0 0 5.86-14.15z" fill="#e75163"/><path d="m169.02 277.8-24.07-2.94-12.91 12.91-95.74 95.74-.57.57a33.226 33.226 0 0 0 0 46.98l19.67 19.669a33.235 33.235 0 0 1 4.33-41.649l.57-.57 95.74-95.74 12.91-12.91 24.07 2.94z" fill="#ff8d98"/><path d="m132.04 287.77a20 20 0 0 1 0 28.28l-67.45 67.46a20.008 20.008 0 0 1 -28.29 0z" fill="#fb6771"/><g fill="#284268"><path d="m145.611 329.62-67.458 67.457a26 26 0 0 0 36.769 36.77l67.458-67.458a26 26 0 0 0 -36.769-36.769zm28.289 28.28-67.458 67.458a14 14 0 0 1 -19.8-19.8l67.458-67.453a14 14 0 0 1 19.8 19.8z"/><path d="m483.464 20.562-45.636 21.282.005.011a5.966 5.966 0 0 0 -1.711 1.184l-194.122 194.12-29.675-29.675a6 6 0 0 0 -8.485 0l-14.708 14.709a5.972 5.972 0 0 0 -1.751 4.181h-.006l-.255 24.842-20.275 20.275-21.173-2.583a6 6 0 0 0 -4.969 1.714l-109.217 109.217a39.218 39.218 0 0 0 0 55.461l45.214 45.214a39.218 39.218 0 0 0 55.461 0l109.217-109.214a6 6 0 0 0 1.714-4.969l-2.583-21.173 20.276-20.276 24.841-.254a6 6 0 0 0 4.182-1.754l14.708-14.708a6 6 0 0 0 0-8.486l-29.676-29.68 194.121-194.122a5.97 5.97 0 0 0 1.184-1.712l.011.005 21.282-45.635a6 6 0 0 0 -7.974-7.974zm-352.39 276.66a14.006 14.006 0 0 1 -3.274 14.588l-67.458 67.458a13.951 13.951 0 0 1 -14.594 3.279zm-1.615 169.022a14 14 0 0 1 3.273-14.587l67.458-67.457a14.01 14.01 0 0 1 14.589-3.273zm94.274-94.273a26.041 26.041 0 0 0 -32.027 3.743l-67.458 67.458a26.044 26.044 0 0 0 -3.938 31.715 27.216 27.216 0 0 1 -35.125-2.859l-45.214-45.214a27.257 27.257 0 0 1 -2.863-35.114 26.027 26.027 0 0 0 31.719-3.948l67.458-67.452a26.04 26.04 0 0 0 3.743-32.028l7.094-7.093 19.12 2.332 62.252 62.252 2.332 19.12zm10.467-37.477-56.693-56.694 15.589-15.59 56.693 56.69zm26.535-21.616-61.612-61.611.107-10.493 72 72zm31.053-8.962-6.223 6.223-83.7-83.7 6.223-6.224zm-25.432-42.4-15.869-15.869 186.453-186.456 2.121 9.243a6 6 0 0 0 4.506 4.506l9.243 2.12zm194.976-196.816-11.417-2.618-2.615-11.413 26.3-12.264z"/></g></svg>