<svg id="Layer_1" height="512" viewBox="0 0 512 512" width="512" xmlns="http://www.w3.org/2000/svg" data-name="Layer 1"><path d="m421.84 344.59v24.1l-89.76 20.14v-24.1z" fill="#ccd3df"/><path d="m421.84 296.38v24.1l-89.76 20.14v-24.1z" fill="#ccd3df"/><path d="m421.84 248.17v24.1l-89.76 20.14v-24.1z" fill="#ccd3df"/><path d="m421.84 199.96v24.1l-89.76 20.14v-24.1z" fill="#ccd3df"/><path d="m421.84 151.75v24.1l-89.76 20.14v-24.1z" fill="#ccd3df"/><g fill="#b0b5ca"><path d="m188.15 165.18v266.82l-44.89 15.29-44.88-15.29v-266.83a148.67 148.67 0 0 0 44.88 6.65 148.689 148.689 0 0 0 44.89-6.65z"/><path d="m421.84 368.69v54.42l-44.88 53.72-44.88-53.72v-34.28z"/><path d="m421.84 320.48v24.11l-89.76 20.14v-24.11z"/><path d="m421.84 272.27v24.11l-89.76 20.14v-24.11z"/><path d="m421.84 224.06v24.11l-89.76 20.14v-24.11z"/><path d="m421.84 175.85v24.11l-89.76 20.14v-24.11z"/><path d="m421.84 88.03v63.72l-89.76 20.14v-83.86-.45h89.76z"/><path d="m188.15 432v.29l-44.89 53.71-44.88-53.71v-.29l44.88 15.29z"/><path d="m143.26 130.82c50.86 0 92.08-23.47 92.08-52.41v41c0 19.66-19.03 36.8-47.19 45.76a148.689 148.689 0 0 1 -44.89 6.65 148.67 148.67 0 0 1 -44.88-6.65c-28.16-8.96-47.19-26.1-47.19-45.76v-41c0 28.94 41.22 52.41 92.07 52.41z"/><path d="m460.81 75.17v12.41h-167.7v-12.41a40 40 0 0 1 40-40h87.7a40 40 0 0 1 40 40z"/><path d="m235.34 78.41c0 28.94-41.22 52.41-92.08 52.41s-92.07-23.47-92.07-52.41 41.22-52.41 92.07-52.41 92.08 23.46 92.08 52.41z"/></g><path d="m363.11 35.17h-30a40 40 0 0 0 -40 40v12.41h30v-12.41a40 40 0 0 1 40-40z" fill="#ccd3df"/><path d="m128.38 432v-260.889a142.273 142.273 0 0 1 -30-5.941v266.83l44.88 15.29 15-5.11z" fill="#ccd3df"/><path d="m81.19 78.41c0-26.042 33.357-47.637 77.071-51.714-4.882-.455-9.892-.7-15-.7-50.851.004-92.071 23.464-92.071 52.414s41.22 52.41 92.07 52.41c5.109 0 10.119-.241 15-.7-43.713-4.074-77.07-25.677-77.07-51.71z" fill="#ccd3df"/><path d="m420.815 29.172h-87.707a46.053 46.053 0 0 0 -46 46v12.407a6 6 0 0 0 6 6h32.971v73.505l-10.3 2.311a6 6 0 1 0 2.621 11.705l7.677-1.722v11.806l-10.3 2.311a6 6 0 1 0 2.626 11.709l7.677-1.722v11.808l-10.3 2.31a6 6 0 1 0 2.626 11.709l7.677-1.721v11.812l-10.3 2.311a6 6 0 1 0 2.626 11.709l7.677-1.722v11.802l-10.3 2.31a6 6 0 1 0 2.626 11.709l7.677-1.721v11.806l-10.3 2.311a6 6 0 1 0 2.626 11.709l7.677-1.722v11.808l-10.3 2.31a6 6 0 1 0 2.626 11.709l7.677-1.721v11.806l-10.3 2.311a6 6 0 1 0 2.626 11.709l7.677-1.722v11.807l-10.3 2.31a6 6 0 1 0 2.626 11.709l7.677-1.721v11.806l-10.3 2.311a6 6 0 1 0 2.626 11.709l7.677-1.722v26.79a6 6 0 0 0 1.4 3.848l44.882 53.714a6 6 0 0 0 9.208 0l44.884-53.714a6 6 0 0 0 1.4-3.848v-49.611l10.3-2.31a6 6 0 0 0 -2.626-11.709l-7.676 1.721v-11.809l10.3-2.311a6 6 0 0 0 -2.626-11.709l-7.676 1.722v-11.807l10.3-2.31a6 6 0 0 0 -2.626-11.709l-7.676 1.721v-11.806l10.3-2.311a6 6 0 0 0 -2.626-11.709l-7.676 1.722v-11.807l10.3-2.31a6 6 0 0 0 -2.626-11.709l-7.676 1.721v-11.807l10.3-2.311a6 6 0 0 0 -2.626-11.709l-7.676 1.722v-11.807l10.3-2.31a6 6 0 0 0 -2.626-11.709l-7.676 1.721v-11.806l10.3-2.311a6 6 0 0 0 -2.626-11.709l-7.676 1.722v-11.808l10.3-2.31a6 6 0 0 0 -2.626-11.709l-7.676 1.721v-11.806l10.3-2.311a6 6 0 0 0 -2.626-11.709l-7.676 1.722v-50.678h32.97a6 6 0 0 0 6-6v-12.407a46.053 46.053 0 0 0 -46.013-46zm-4.97 391.766-38.884 46.533-38.882-46.533v-27.305l77.766-17.443zm0-57.046-77.766 17.443v-11.807l77.766-17.444zm0-24.105-77.766 17.443v-11.807l77.766-17.443zm0-24.1-77.766 17.443v-11.811l77.766-17.444zm0-24.1-77.766 17.443v-11.816l77.766-17.443zm0-24.1-77.766 17.443v-11.821l77.766-17.443zm0-24.105-77.766 17.443v-11.825l77.766-17.443zm0-24.1-77.766 17.444v-11.826l77.766-17.443zm0-24.1-77.766 17.418v-11.806l77.766-17.443zm0-24.106-77.766 17.424v-11.81l77.766-17.443zm0-24.1-77.766 17.443v-70.84h77.766zm38.97-65.37h-155.707v-6.434a34.039 34.039 0 0 1 34-34h87.707a34.039 34.039 0 0 1 34 34z" fill="#284268"/><path d="m211.341 36.136c-18.281-10.406-42.458-16.136-68.077-16.136s-49.8 5.73-68.077 16.136c-19.347 11.01-30 26.023-30 42.272v42.592a6.048 6.048 0 0 0 .1 1.076c1.1 15.219 11.623 29.2 29.906 39.605a108.928 108.928 0 0 0 17.193 7.8v262.804a6.009 6.009 0 0 0 1.4 3.848l44.884 53.715a6 6 0 0 0 9.208 0l44.883-53.715a6 6 0 0 0 1.4-3.848v-262.807a108.94 108.94 0 0 0 17.194-7.8c18.283-10.406 28.8-24.386 29.905-39.605a6.048 6.048 0 0 0 .1-1.076v-42.589c-.018-16.249-10.673-31.262-30.019-42.272zm-68.077 440.507-26.885-32.175 24.951 8.5a6 6 0 0 0 3.868 0l24.95-8.5zm38.883-48.938-38.883 13.241-38.884-13.241v-254.585a163.328 163.328 0 0 0 77.767 0zm47.2-308.3c0 25.156-39.419 46.408-86.078 46.408s-86.079-21.252-86.079-46.408v-12.662a74.2 74.2 0 0 0 18 13.938c18.281 10.405 42.458 16.135 68.077 16.135s49.8-5.73 68.077-16.135a74.212 74.212 0 0 0 18-13.938zm-86.078 5.408c-46.66 0-86.079-21.252-86.079-46.408s39.41-46.405 86.074-46.405 86.078 21.252 86.078 46.408-39.419 46.408-86.078 46.408z" fill="#284268"/><path d="m195.454 72.408h-46.19v-19.985a6 6 0 0 0 -12 0v19.985h-46.19a6 6 0 0 0 0 12h46.19v19.986a6 6 0 0 0 12 0v-19.986h46.19a6 6 0 0 0 0-12z" fill="#284268"/></svg>