<svg id="Layer_1" height="512" viewBox="0 0 512 512" width="512" xmlns="http://www.w3.org/2000/svg" data-name="Layer 1"><path d="m144.74 421.6a59.486 59.486 0 0 1 -70.63 63.31l-.44-.45 41-40.99-11.91-34.23-34.23-11.91-41.03 41.04-.3.06a59.483 59.483 0 0 1 63.2-71.17v.01a59.455 59.455 0 0 1 54.33 54.33z" fill="#ccd3df"/><path d="m382.61 184.2a80.731 80.731 0 0 1 38.82-156.58l-.08.41-55.69 55.7 16.16 46.45 46.45 16.16 55.65-55.64.6.6a80.74 80.74 0 0 1 -101.91 92.9z" fill="#ccd3df"/><path d="m348.21 163.79a80.456 80.456 0 0 0 34.4 20.41 1292.707 1292.707 0 0 0 -125.88 109.87 1327.1 1327.1 0 0 0 -111.31 127.47l-.68.06h-.01a59.455 59.455 0 0 0 -54.33-54.33v-.01l.06-.68s69.93-53.77 126.51-110.35c61.36-61.36 105.8-120.11 110.83-126.84a80.456 80.456 0 0 0 20.41 34.4z" fill="#fb6771"/><path d="m236.97 266.23a1315.911 1315.911 0 0 0 101.322-114.47 80.37 80.37 0 0 1 -10.492-22.37c-5.03 6.73-49.47 65.48-110.83 126.84-56.58 56.58-126.51 110.35-126.51 110.35l-.06.68v.01a59.218 59.218 0 0 1 23.205 6.865c14.211-11.106 73.895-58.435 123.365-107.905z" fill="#e75163"/><path d="m347.8 139.39a80.75 80.75 0 0 1 64.544-102.353l9.006-9.007.08-.41a80.729 80.729 0 0 0 -41.877 155.612 80.907 80.907 0 0 1 -31.753-43.842z" fill="#6d7486"/><path d="m488.67 86.968a5.93 5.93 0 0 0 -.459-.562 6 6 0 0 0 -8.484 0l-53.035 53.034-40.157-13.976-13.975-40.157 53.033-53.034a5.954 5.954 0 0 0 1.657-3.2c.022-.086.049-.169.066-.257a6 6 0 0 0 -4.684-7.075 86.809 86.809 0 0 0 -101.4 106.4 1303.061 1303.061 0 0 1 -108.5 123.846c-52.253 52.253-116.8 102.754-125.054 109.158a65.414 65.414 0 0 0 -66.362 78.482 6 6 0 0 0 7.076 4.685c.061-.013.119-.032.18-.047.12-.021.236-.061.355-.091l.093-.027a5.933 5.933 0 0 0 2.718-1.536l38.376-38.375 27.932 9.721 9.721 27.932-38.375 38.372a6 6 0 0 0 0 8.485c.128.129.276.223.413.338a5.965 5.965 0 0 0 3.166 1.718 65.413 65.413 0 0 0 77.886-66.5c5.855-7.729 51.59-67.462 110.112-125.986a1305.779 1305.779 0 0 1 122.9-107.544 87.274 87.274 0 0 0 21.421 2.657 86.724 86.724 0 0 0 85.126-103.27 5.971 5.971 0 0 0 -1.746-3.191zm-365.39 377.371a53.4 53.4 0 0 1 -36.623 15.626l32.255-32.255a6 6 0 0 0 1.425-6.214l-11.911-34.227a6 6 0 0 0 -3.7-3.694l-34.226-11.912a6 6 0 0 0 -6.214 1.424l-32.26 32.26a53.463 53.463 0 1 1 91.25 38.992zm129.2-174.51c-48.424 48.425-88.178 97.672-104.227 118.2a65.343 65.343 0 0 0 -44.424-44.321c21.279-16.894 73.578-59.429 117.384-103.235a1328.109 1328.109 0 0 0 104.71-118.757 87.038 87.038 0 0 0 44.37 44.364c-19.96 15.52-68.872 54.812-117.809 103.749zm205.637-130.286a74.713 74.713 0 1 1 -49.3-127.465l-47.405 47.4a6 6 0 0 0 -1.425 6.215l16.166 46.452a6 6 0 0 0 3.7 3.695l46.447 16.17a6 6 0 0 0 6.214-1.424l47.4-47.4a74.652 74.652 0 0 1 -21.797 56.357z" fill="#284268"/></svg>