<svg id="Layer_1" height="512" viewBox="0 0 512 512" width="512" xmlns="http://www.w3.org/2000/svg" data-name="Layer 1"><path d="m26 268.61h25.58v74.62h-25.58z" fill="#e75163"/><path d="m179.9 210.33v59.28h194v-52.81-6.47z" fill="#4689d3"/><path d="m333.9 85.61h-114a40 40 0 0 0 -40 40v84.72h194v-84.72a40 40 0 0 0 -40-40z" fill="#fb6771"/><path d="m249.9 85.61h-30a40 40 0 0 0 -40 40v84.72h30v-84.72a40 40 0 0 1 40-40z" fill="#e75163"/><path d="m221.83 241.19h110.15v28.42h-110.15z" fill="#d8ff33"/><path d="m302.92 210.33a44.775 44.775 0 1 1 18.75-36.44 44.608 44.608 0 0 1 -18.75 36.44z" fill="#d8ff33"/><path d="m280.88 210.33a44.78 44.78 0 0 1 11.02-78.63 44.771 44.771 0 1 0 0 84.373 44.779 44.779 0 0 1 -11.02-5.743z" fill="#c6e02d"/><path d="m379.9 213.768v-88.155a46.052 46.052 0 0 0 -46-46h-114a46.053 46.053 0 0 0 -46 46v138h-147.9a6 6 0 0 0 -6 6v74.616a6 6 0 0 0 6 6h25.582a6 6 0 0 0 6-6v-68.617h316.318a6 6 0 0 0 6-6v-32.689a297.433 297.433 0 0 1 15.863 29.624c10.624 23.076 21.034 55.266 10.295 77.582-12.134 25.215-11 50.182 3.127 68.5 9.521 12.349 24.044 19.748 37.828 19.747a36.493 36.493 0 0 0 6.939-.653c14.322-2.774 25.279-11.289 31.687-24.625 10.879-22.646 7.46-58.3-8.5-88.743-24.059-50.132-62.734-79.17-97.239-104.587zm-334.318 124.46h-13.582v-62.616h13.582zm280.4-74.616h-98.152v-16.424h98.147zm41.926 0h-29.931v-22.424a6 6 0 0 0 -6-6h-110.147a6 6 0 0 0 -6 6v22.424h-29.93v-47.279h63.2a50.6 50.6 0 0 0 55.612 0h63.188zm-129.773-89.725a38.769 38.769 0 1 1 38.768 38.77 38.812 38.812 0 0 1 -38.768-38.77zm129.765 30.446h-50.4a50.769 50.769 0 1 0 -81.2 0h-50.4v-78.72a34.038 34.038 0 0 1 34-34h114a34.038 34.038 0 0 1 34 34zm106.925 197.567c-4.765 9.919-12.554 15.989-23.151 18.04-11.283 2.186-24.544-3.695-32.982-14.639-11.25-14.593-11.913-34.993-1.819-55.969 15.611-32.441-4.073-78.683-20.483-108.062 26.327 20.807 52.476 45.854 69.975 82.371.032.066.066.132.1.2 14.105 26.845 17.543 58.946 8.36 78.059z" fill="#284268"/></svg>