<svg id="Layer_1" height="512" viewBox="0 0 512 512" width="512" xmlns="http://www.w3.org/2000/svg" data-name="Layer 1"><path d="m472.4 197.61a40.627 40.627 0 0 0 -40.48-37.2h-351.84a40.627 40.627 0 0 0 -40.48 37.2l-4.43 52.52a40.606 40.606 0 0 1 39.83-32.67h362a40.606 40.606 0 0 1 39.83 32.67z" fill="#6d7486"/><path d="m476.83 250.13a40.606 40.606 0 0 0 -39.83-32.67h-362a40.606 40.606 0 0 0 -39.83 32.67l-1.53 18.16h444.72z" fill="#bc5e51"/><path d="m485.85 357.1-7.49-88.81h-444.72l-7.49 88.81a40.618 40.618 0 0 0 40.47 44.04h378.76a40.618 40.618 0 0 0 40.47-44.04z" fill="#c2684f"/><path d="m69.6 197.61a40.627 40.627 0 0 1 40.48-37.2h-30a40.627 40.627 0 0 0 -40.48 37.2l-4.43 52.52a40.618 40.618 0 0 1 32.7-32.044z" fill="#b0b5ca"/><path d="m105 217.46h-30a40.606 40.606 0 0 0 -39.83 32.67l-1.53 18.16h30l1.53-18.16a40.606 40.606 0 0 1 39.83-32.67z" fill="#daaa79"/><path d="m56.15 357.1 7.49-88.81h-30l-7.49 88.81a40.618 40.618 0 0 0 40.47 44.04h30a40.618 40.618 0 0 1 -40.47-44.04z" fill="#daaa79"/><path d="m182.88 217.46h146.24v134.1h-146.24z" fill="#ef9538"/><path d="m491.833 356.6-13.457-159.492a46.621 46.621 0 0 0 -46.456-42.7h-93.5l-9.114-18.331a46.606 46.606 0 0 0 -44-31.213h-58.606a46.606 46.606 0 0 0 -44 31.213l-9.114 18.331h-93.506a46.621 46.621 0 0 0 -46.456 42.7l-13.457 159.492a46.623 46.623 0 0 0 46.457 50.539h378.752a46.623 46.623 0 0 0 46.457-50.54zm-20-94.308h-136.716v-38.833h101.883a34.864 34.864 0 0 1 33.887 27.594zm-278.221-121.22a5.885 5.885 0 0 0 .307-.738 34.612 34.612 0 0 1 32.776-23.47h58.61a34.612 34.612 0 0 1 32.776 23.47 5.885 5.885 0 0 0 .307.738l6.631 13.336h-138.038zm-148.031 57.046a34.833 34.833 0 0 1 34.5-31.71h351.839a34.833 34.833 0 0 1 34.5 31.71l2.166 25.674-.037-.036a46.5 46.5 0 0 0 -31.55-12.3h-361.999a46.5 46.5 0 0 0 -31.55 12.3l-.037.036zm277.536 25.341v122.1h-134.234v-122.1zm-282 27.594a34.864 34.864 0 0 1 33.883-27.594h101.883v38.829h-136.716zm208.883 144.083h-183.376a34.622 34.622 0 0 1 -34.5-37.531l7.03-83.317h137.729v77.27a6 6 0 0 0 6 6h67.117zm220.865-11.192a34.25 34.25 0 0 1 -25.489 11.192h-183.376v-37.578h67.117a6 6 0 0 0 6-6v-77.27h137.728l7.03 83.317a34.249 34.249 0 0 1 -9.01 26.339z" fill="#284268"/></svg>