<svg id="Layer_1" height="512" viewBox="0 0 512 512" width="512" xmlns="http://www.w3.org/2000/svg" data-name="Layer 1"><path d="m110.82 90.16a39.571 39.571 0 0 0 -39.57 39.57v39.22h79.14v-39.22a39.562 39.562 0 0 0 -39.57-39.57z" fill="#ccd3df"/><path d="m110.82 90.16a39.571 39.571 0 0 0 -39.57 39.57v39.22h30v-39.22a39.574 39.574 0 0 1 24.574-36.619 39.444 39.444 0 0 0 -15.004-2.951z" fill="#6d7486"/><path d="m306.76 362.81c-2.54 22.25-5.62 43.69-8.64 64.36l-93.8-16.35a35.349 35.349 0 0 0 -16.56.84c-7.3 2.25-13.57 9.7-13.57 9.7l-.51-.08a41.176 41.176 0 0 0 .51-6.52v-90.01h40.99v23.63l67.06 16.93s15.88 3.19 24.52-2.5z" fill="#4689d3"/><path d="m158.08 223.86a20.2 20.2 0 0 0 -3.67-.34h-87.17a19.376 19.376 0 0 0 -3.68.35 19.775 19.775 0 0 0 -16.1 19.43v242.7l33.55-27.45a9.841 9.841 0 0 1 6.23-2.23h45.39a41.57 41.57 0 0 0 41.05-35.04l.51-177.98a19.786 19.786 0 0 0 -16.11-19.44z" fill="#fb6771"/><path d="m136.54 168.95v24.56h-51.44v-24.56h5.72 20 20z" fill="#b0b5ca"/><path d="m63.5 193.51v30.01l.06.35a19.376 19.376 0 0 1 3.68-.35h87.17a20.2 20.2 0 0 1 3.67.34l.06-.34v-30.01z" fill="#4689d3"/><path d="m315.18 169.29h53.08c-.23 6.01-.34 12.11-.38 18.29h-52.39q-.075-9.255-.31-18.29z" fill="#b0b5ca"/><path d="m427.51 86.15v73.69c-6.23-2.79-41.34-3.03-48.14 0v-73.69c6.8 3.02 41.91 2.79 48.14 0z" fill="#b0b5ca"/><path d="m305.3 86.15v73.69c-6.8-3.03-41.91-2.79-48.14 0v-73.69c6.23 2.79 41.34 3.02 48.14 0z" fill="#b0b5ca"/><path d="m464.54 86.19v73.61a18.515 18.515 0 0 1 -37.03.04v-73.69a18.515 18.515 0 0 1 37.03.04z" fill="#ccd3df"/><path d="m305.3 76.7h74.07v92.59h-74.07z" fill="#ccd3df"/><path d="m257.16 86.19v73.65a18.52 18.52 0 0 1 -37.04-.04v-73.61a18.52 18.52 0 0 1 37.04-.04z" fill="#ccd3df"/><path d="m310.25 187.58h64.17v23.45h-64.17z" fill="#a0eaea"/><path d="m388.19 446.8a38 38 0 0 1 -10.03 27.58 36.91 36.91 0 0 1 -26.94 11.62h-19a37.033 37.033 0 0 1 -36.97-39.2q1.41-9.69 2.87-19.63c3.02-20.67 6.1-42.11 8.64-64.36 1.83-16.02 3.37-32.46 4.4-49.32 2.2-35.72 3.86-70.01 4.27-102.46h52.71c.82 32.53 3.4 67.07 5.67 103.38 2.99 47.68 8.11 91.95 14.38 132.39z" fill="#d8a43d"/><path d="m86.936 431.592a6 6 0 0 1 -6-6v-45.392a6 6 0 0 1 12 0v45.388a6 6 0 0 1 -6 6.004z" fill="#e75163"/><path d="m110.71 431.592a6 6 0 0 1 -6-6v-45.392a6 6 0 0 1 12 0v45.388a6 6 0 0 1 -6 6.004z" fill="#e75163"/><path d="m134.71 431.592a6 6 0 0 1 -6-6v-45.392a6 6 0 0 1 12 0v45.388a6 6 0 0 1 -6 6.004z" fill="#e75163"/><path d="m204.19 324.75h-30v90.01a41.176 41.176 0 0 1 -.51 6.52l.51.08s6.27-7.45 13.57-9.7a35.481 35.481 0 0 1 16.43-.868z" fill="#5fa8ed"/><path d="m306.633 363.894c.041-.362.086-.721.127-1.084a15.176 15.176 0 0 1 -1.342.778z" fill="#f9ed32"/><path d="m67.24 223.52a19.376 19.376 0 0 0 -3.68.35 19.775 19.775 0 0 0 -16.1 19.43v242.7l30-24.545v-218.155a19.775 19.775 0 0 1 16.1-19.43 19.376 19.376 0 0 1 3.68-.35z" fill="#e75163"/><path d="m325.25 446.8q1.41-9.69 2.87-19.63c3.02-20.67 6.1-42.11 8.64-64.36 1.83-16.02 3.37-32.46 4.4-49.32 2.2-35.72 3.86-70.01 4.27-102.46h-30c-.41 32.45-2.07 66.74-4.27 102.46-1.03 16.86-2.57 33.3-4.4 49.32-2.54 22.25-5.62 43.69-8.64 64.36q-1.455 9.93-2.87 19.63a37.033 37.033 0 0 0 36.97 39.2h19a37.351 37.351 0 0 0 5.5-.413 37.035 37.035 0 0 1 -31.47-38.787z" fill="#edb740"/><path d="m146.44 310.57v38.58h-42.14z" fill="#4689d3"/><path d="m146.44 252.54v15.5l-71.23 65.22v-41.15l42.13-39.57z" fill="#4689d3"/><path d="m146.44 268.04v42.53l-42.14 38.58h-29.09v-15.89z" fill="#5fa8ed"/><path d="m117.34 252.54-42.13 39.57v-39.57z" fill="#5fa8ed"/><g fill="#284268"><path d="m446.028 61.675a24.557 24.557 0 0 0 -24.038 19.7c-8.33 1.244-27.97 1.271-36.623.083v-4.758a6 6 0 0 0 -6-6h-74.067a6 6 0 0 0 -6 6v4.755c-8.654 1.189-28.294 1.162-36.622-.083a24.517 24.517 0 0 0 -48.556 4.817v73.6a24.517 24.517 0 0 0 48.556 4.817c8.328-1.244 27.969-1.271 36.622-.083v4.756a6 6 0 0 0 6 6h4.013q.065 3.144.109 6.359a6 6 0 0 0 -5.173 5.936v23.444a6 6 0 0 0 5.086 5.923c-.459 27.067-1.76 57.069-4.16 96.169-.963 15.676-2.359 30.909-4.014 45.8-5.686 2.063-14.45 1.14-17.616.537l-62.363-15.749v-18.945a6 6 0 0 0 -6-6h-34.992v-75.448a25.822 25.822 0 0 0 -16.048-23.871v-25.921a6 6 0 0 0 -6-6h-15.6v-12.567h7.85a6 6 0 0 0 6-6v-39.217a45.629 45.629 0 0 0 -39.57-45.163v-58.566a6 6 0 1 0 -12 0v58.566a45.628 45.628 0 0 0 -39.57 45.163v39.217a6 6 0 0 0 6 6h7.848v12.567h-15.6a6 6 0 0 0 -6 6v25.921a25.823 25.823 0 0 0 -16.049 23.871v242.695a6 6 0 0 0 9.8 4.644l33.552-27.452a3.854 3.854 0 0 1 2.435-.87h45.39a47.634 47.634 0 0 0 46.47-37.464c1.665-1.857 6.15-6.145 10.423-7.458a29.56 29.56 0 0 1 13.439-.737c.106.025.215.046.323.066l88.045 15.352q-1.023 6.99-2.023 13.863c-.025.17-.041.34-.052.51a43.035 43.035 0 0 0 42.965 45.546h19a42.63 42.63 0 0 0 31.305-13.506c11.82-12.531 11.91-27.691 11.656-32.039-.012-.191-.032-.381-.062-.569-6.748-43.528-11.564-87.886-14.317-131.85q-.708-11.3-1.437-22.373c-1.7-26.1-3.295-50.846-4.044-74.638h.1a6 6 0 0 0 6-6v-23.444a6 6 0 0 0 -6-6h-.471q.048-3.189.129-6.295h5.291a6 6 0 0 0 6-6v-4.755c8.654-1.189 28.294-1.16 36.623.083a24.517 24.517 0 0 0 48.555-4.818v-73.6a24.544 24.544 0 0 0 -24.518-24.521zm-194.871 98.058v.151a12.515 12.515 0 0 1 -25.03-.088v-73.6a12.517 12.517 0 0 1 25.034 0zm48.144-7.192a178.926 178.926 0 0 0 -36.144 0v-59.094a160.318 160.318 0 0 0 18.071.917 160.381 160.381 0 0 0 18.073-.917zm-222.048 10.405v-33.217a33.6 33.6 0 0 1 32.32-33.539 5.985 5.985 0 0 0 2.5 0 33.606 33.606 0 0 1 32.32 33.539v33.217h-7.57v-8.946a6 6 0 0 0 -12 0v8.946h-8v-8.946a6 6 0 0 0 -12 0v8.946h-8v-8.946a6 6 0 0 0 -12 0v8.946zm53.29 12v12.567h-39.443v-12.567zm-61.043 24.567h82.638v18.007h-82.638zm98.69 215.251a35.6 35.6 0 0 1 -35.558 35.558h-45.39a15.894 15.894 0 0 0 -10.034 3.578l-23.753 19.439v-230.034a13.8 13.8 0 0 1 13.785-13.785h87.166a13.8 13.8 0 0 1 13.784 13.785zm124.877 5.436-87.605-15.275a41.649 41.649 0 0 0 -19.462 1 27.47 27.47 0 0 0 -5.81 2.623v-77.8h28.993l.021 15.972a7.742 7.742 0 0 0 5.813 7.487l77.009 18.006a46.678 46.678 0 0 0 7.65-.6c-2.016 16.551-4.297 32.701-6.609 48.587zm18.233-260.242v-77.258h62.066v80.584h-62.066zm56.551 33.623h.566v11.444h-52.167v-11.444zm-46.535-18.295h40.756q-.079 3.108-.127 6.295h-40.521q-.043-3.181-.107-6.295zm60.894 272.137a31.8 31.8 0 0 1 -8.419 22.837 30.742 30.742 0 0 1 -22.575 9.74h-19a31.033 31.033 0 0 1 -30.994-32.6q1-6.884 2.027-13.889c5.548-37.879 11.284-77.048 13.9-119.657 2.417-39.345 3.725-69.547 4.185-96.829h40.978c.749 24.1 2.363 49.079 4.075 75.417q.719 11.055 1.434 22.344c2.772 44.224 7.611 88.846 14.39 132.637zm39.3-294.883a178.863 178.863 0 0 0 -36.145 0v-59.093a160.368 160.368 0 0 0 18.073.917 160.337 160.337 0 0 0 18.072-.917zm37.033 7.256a12.517 12.517 0 0 1 -25.033 0v-73.529c0-.061.006-.122 0-.184a12.514 12.514 0 0 1 25.028.108z"/><path d="m146.436 246.538h-71.226a6 6 0 0 0 -6 6v96.616a6 6 0 0 0 6 6h71.226a6 6 0 0 0 6-6v-96.616a6 6 0 0 0 -6-6zm-65.226 12h20.979l-20.979 19.7zm59.226 84.616h-20.7l20.7-18.952zm0-35.222-38.465 35.222h-20.761v-7.254l59.226-54.232zm0-42.537-59.226 54.232v-24.927l38.509-36.166h20.717z"/><path d="m86.936 374.2a6 6 0 0 0 -6 6v45.388a6 6 0 0 0 12 0v-45.388a6 6 0 0 0 -6-6z"/><path d="m110.71 374.2a6 6 0 0 0 -6 6v45.388a6 6 0 0 0 12 0v-45.388a6 6 0 0 0 -6-6z"/><path d="m134.71 374.2a6 6 0 0 0 -6 6v45.388a6 6 0 0 0 12 0v-45.388a6 6 0 0 0 -6-6z"/></g></svg>