<svg id="Layer_1" height="512" viewBox="0 0 512 512" width="512" xmlns="http://www.w3.org/2000/svg" data-name="Layer 1"><path d="m157.87 26h291.88v95.61h-291.88z" fill="#a0eaea"/><path d="m62.25 26h95.62v460h-95.62z" fill="#88ced8"/><path d="m62.25 26h30v460h-30z" fill="#a0eaea"/><path d="m449.745 20h-387.49a6 6 0 0 0 -6 6v460a6 6 0 0 0 6 6h95.613a6 6 0 0 0 6-6v-358.386h285.877a6 6 0 0 0 6-6v-95.614a6 6 0 0 0 -6-6zm-297.877 42.544h-32.614a6 6 0 0 0 0 12h32.614v20.937h-15.614a6 6 0 0 0 0 12h15.614v19.875h-32.614a6 6 0 0 0 0 12h32.614v20.937h-15.614a6 6 0 0 0 0 12h15.614v19.874h-32.614a6 6 0 1 0 0 12h32.614v20.933h-15.614a6 6 0 0 0 0 12h15.614v18.813h-32.614a6 6 0 0 0 0 12h32.614v20.936h-15.614a6 6 0 1 0 0 12h15.614v19.875h-32.614a6 6 0 0 0 0 12h32.614v20.937h-15.614a6 6 0 0 0 -6 6c0 .179.011.356.027.531-.016.175-.027.352-.027.531a6 6 0 0 0 6 6h15.614v18.812h-32.614a6 6 0 0 0 0 12h32.614v22h-15.614a6 6 0 0 0 0 12h15.614v18.812h-32.614a6 6 0 0 0 0 12h32.614v17.653h-83.613v-448h83.613zm291.877 53.07h-22.856v-32.614a6 6 0 0 0 -12 0v32.614h-20.937v-15.614a6 6 0 0 0 -12 0v15.614h-19.875v-32.614a6 6 0 0 0 -12 0v32.614h-20.936v-15.614a6 6 0 0 0 -12 0v15.614h-18.813v-32.614a6 6 0 0 0 -12 0v32.614h-20.936v-15.614a6 6 0 0 0 -12 0v15.614h-19.874v-32.614a6 6 0 0 0 -12 0v32.614h-20.938v-15.614a6 6 0 0 0 -6-6c-.179 0-.356.011-.531.026-.175-.015-.352-.026-.531-.026a6 6 0 0 0 -6 6v15.614h-17.65v-83.614h279.877z" fill="#284268"/></svg>