<svg id="Layer_1" height="512" viewBox="0 0 512 512" width="512" xmlns="http://www.w3.org/2000/svg" data-name="Layer 1"><path d="m49.38 241.09c13.8 0 24.99 10.89 24.99 24.33 0 9.6-13.99 22.94-13.99 31.96-.04 2.86-.05 6.25-.05 9.5 0 6.49.05 12.41.05 12.41l.18.57v.01c-7.66 2.36-15.17 4.65-21.94 6.7l-.24-.61v-28.57h.01c0-9.03-14-22.37-14-31.97 0-13.44 11.19-24.33 24.99-24.33z" fill="#4689d3"/><path d="m302.43 161.42-60.25 82.79a128.59 128.59 0 0 0 -16.12-1 132.588 132.588 0 0 0 -24.03 2.11l54.86-74.92z" fill="#4689d3"/><path d="m443.11 230.12c-1.63 33.19 60.06 56.92 58.27 93.48-.61 12.4-7.74 23.96-18.49 30.8v-19.41l-49.49-11.5c13.69-27.2-40.37-45.03-32.31-103.63l46.36-4.39a25.282 25.282 0 0 0 -4.33 14.65z" fill="#d8a43d"/><path d="m482.89 354.4v22h-472.31v-23h472.31z" fill="#ccd3df"/><path d="m263.517 254.774a6 6 0 0 1 -4.853-9.521l82.044-113.17a6 6 0 0 1 9.716 7.043l-82.045 113.174a5.99 5.99 0 0 1 -4.862 2.474z" fill="#b0b5ca"/><path d="m121.06 299.71c13.81-13.8 34.61-45.88 80.97-54.39a132.588 132.588 0 0 1 24.03-2.11 128.59 128.59 0 0 1 16.12 1c60.15 7.55 88.87 55.5 88.87 55.5l102.35 23.78 49.49 11.5v18.41h-472.31v-18.41s11.94-3.54 28.04-8.42c6.77-2.05 14.28-4.34 21.94-6.7v-.01c25.9-7.99 53.56-16.82 60.5-20.15z" fill="#6d7486"/><path d="m202.03 245.32c-46.36 8.51-67.16 40.59-80.97 54.39-6.94 3.33-34.6 12.16-60.5 20.15v.01c-7.66 2.36-15.17 4.65-21.94 6.7-16.1 4.88-28.04 8.42-28.04 8.42v18.41h30v-18.41s11.94-3.54 28.04-8.42c6.77-2.05 14.28-4.34 21.94-6.7v-.01c25.9-7.99 53.56-16.82 60.5-20.15 13.81-13.8 34.61-45.88 80.97-54.39q4.188-.771 8.664-1.274a128.834 128.834 0 0 0 -14.634-.836 132.588 132.588 0 0 0 -24.03 2.11z" fill="#4a5160"/><path d="m475.41 270.236c-13.746-13.42-26.736-26.1-26.324-39.465a5.959 5.959 0 0 0 .036-.627 19.289 19.289 0 0 1 3.263-11.261 6 6 0 0 0 -5.5-9.388l-46.36 4.392a6 6 0 0 0 -5.378 5.156c-4.775 34.721 11.082 56.567 22.66 72.52 7.994 11.015 12.684 17.959 11.653 24.854l-94.69-22a135.908 135.908 0 0 0 -61.725-48.554l11.255-15.523 19.518 3.542-2.572 14.172a6 6 0 0 0 4.833 6.974 5.913 5.913 0 0 0 1.078.1 6 6 0 0 0 5.9-4.93l7.285-40.15a6 6 0 0 0 -11.808-2.143l-2.571 14.172-13.847-2.513 58.314-80.436a6 6 0 0 0 -9.716-7.043l-79.623 109.83c-2.7-.748-5.481-1.427-8.344-2.016l54.543-74.952a6 6 0 0 0 -6.013-9.417l-45.546 8.986a6 6 0 0 0 -3.68 2.341l-29.239 39.929-14.794-10.843 8.515-11.617a6 6 0 0 0 -9.678-7.094l-24.123 32.912a6 6 0 1 0 9.678 7.093l8.515-11.616 14.8 10.846-17.169 23.433c-39.171 8-60.65 32.119-74.447 47.638-2.44 2.744-4.585 5.156-6.549 7.178-6.932 3.026-28.407 9.974-51.22 17.073-.015-4.442-.016-10.044.041-14.406 0-2.737 3.292-8.068 5.937-12.351 3.959-6.409 8.052-13.032 8.052-19.612 0-16.726-13.9-30.333-30.989-30.333s-30.988 13.607-30.988 30.333c0 6.577 4.094 13.2 8.054 19.614 2.6 4.215 5.835 9.445 5.936 12.219v.132 24.815c-9.3 2.812-17.529 5.273-23.507 7.044a6 6 0 0 0 -4.295 5.753v41.4a6 6 0 0 0 6 6h472.311a6 6 0 0 0 6-6v-18.863a44.868 44.868 0 0 0 18.482-33.641c1.048-21.423-15.734-37.809-31.964-53.657zm-215.066-94.4 28.227-5.569-49.2 67.606c-4.287-.426-8.721-.661-13.312-.661-3.783 0-7.43.146-10.963.409zm-229.951 89.584c0-10.108 8.518-18.333 18.988-18.333s18.989 8.225 18.989 18.333c0 3.168-3.326 8.555-6.261 13.307-3.974 6.434-7.728 12.512-7.728 18.58-.074 5.713-.05 13.566-.025 18.189-3.36 1.034-6.7 2.056-9.974 3.056v-20.952c0-.073 0-.145 0-.217 0-6.146-3.755-12.224-7.73-18.658-2.932-4.75-6.259-10.136-6.259-13.305zm446.499 104.98h-460.312v-11h460.312zm0-23h-460.312v-7.927c19.157-5.709 94.533-28.32 107.085-34.351a5.976 5.976 0 0 0 1.784-1.311c2.374-2.386 4.928-5.258 7.629-8.3 16.391-18.438 41.162-46.3 92.984-46.3 27.93 0 53.174 8.954 75.032 26.614 16.469 13.306 24.737 26.843 24.818 26.978a6.005 6.005 0 0 0 3.784 2.753l147.2 34.2zm18.5-24.089a32.065 32.065 0 0 1 -6.5 17.451v-5.765a6 6 0 0 0 -4.642-5.845l-43.029-10c2.43-12.4-5.442-23.254-13.7-34.635-10.916-15.039-23.21-31.98-21-59.142l31.463-2.98a34.808 34.808 0 0 0 -.857 7.251c0 .06-.008.121-.011.181-.924 18.891 14.752 34.2 29.911 49 14.328 13.986 29.145 28.454 28.362 44.48z" fill="#284268"/></svg>