<svg id="Layer_1" height="512" viewBox="0 0 512 512" width="512" xmlns="http://www.w3.org/2000/svg" data-name="Layer 1"><path d="m387.23 170.35-259.2 259.2a49.834 49.834 0 0 0 -42.73-42.74l264.02-264.02h.01a76.8 76.8 0 0 0 37.9 47.56z" fill="#a0a7bc"/><path d="m128.03 429.55a49.834 49.834 0 1 1 -14.15-28.59 49.718 49.718 0 0 1 14.15 28.59zm-31.73 24.27 6.45-24.09-17.64-17.64-24.09 6.46-6.46 24.09 17.64 17.64z" fill="#ccd3df"/><path d="m423.38 151.14h59.4a76.686 76.686 0 1 1 -.38-97.37v.47h-59.02l-33.27 48.45z" fill="#ccd3df"/><path d="m349.33 122.79h-.01l-264.02 264.02a49.567 49.567 0 0 1 21.635 8.365l251.565-251.566a76.24 76.24 0 0 1 -9.17-20.819z" fill="#6d7486"/><path d="m369.33 132.79a76.728 76.728 0 0 1 97.921-92.985 76.695 76.695 0 1 0 -67.74 135.785 76.722 76.722 0 0 1 -30.181-42.8z" fill="#b0b5ca"/><g fill="#284268"><path d="m485.238 145.054a5.993 5.993 0 0 0 -4.374.081h-54.329l-29.151-42.449 29.151-42.45h55.865a6 6 0 0 0 6-6v-.468a6 6 0 0 0 -1.381-3.83 82.663 82.663 0 0 0 -144.314 70.981l-259.637 259.64c-1.461-.113-2.929-.187-4.41-.187a55.813 55.813 0 1 0 55.815 55.814c0-1.481-.074-2.949-.187-4.41l254.156-254.156a82.609 82.609 0 0 0 97.958-21.447 6 6 0 0 0 2.737-4.844l.014-.455a6 6 0 0 0 -3.913-5.82zm-375.598 322.113a43.812 43.812 0 1 1 12.834-30.981 43.528 43.528 0 0 1 -12.835 30.981zm21.716-49.431a56.022 56.022 0 0 0 -34.247-34.248l249.657-249.657a83.147 83.147 0 0 0 30.815 37.68zm291.987-244.364a70.686 70.686 0 1 1 45.085-125.136h-45.051a6 6 0 0 0 -4.946 2.6l-33.272 48.454a6 6 0 0 0 0 6.793l33.272 48.449a6 6 0 0 0 4.946 2.6h45.062a70.335 70.335 0 0 1 -45.096 16.24z"/><path d="m89.356 407.85a6 6 0 0 0 -5.794-1.553l-24.094 6.456a6 6 0 0 0 -4.243 4.247l-6.456 24.093a6 6 0 0 0 1.553 5.8l17.638 17.629a5.994 5.994 0 0 0 5.8 1.553l24.094-6.456a6 6 0 0 0 4.243-4.243l6.456-24.093a6 6 0 0 0 -1.554-5.8zm2.04 41.075-17.396 4.662-12.743-12.738 4.663-17.4 17.4-4.662 12.74 12.736z"/></g></svg>